<?xml version="1.0" encoding="UTF-8" standalone="no"?>
<!-- Created with Inkscape (http://www.inkscape.org/) -->

<svg
   xmlns:dc="http://purl.org/dc/elements/1.1/"
   xmlns:cc="http://creativecommons.org/ns#"
   xmlns:rdf="http://www.w3.org/1999/02/22-rdf-syntax-ns#"
   xmlns:svg="http://www.w3.org/2000/svg"
   xmlns="http://www.w3.org/2000/svg"
   xmlns:sodipodi="http://sodipodi.sourceforge.net/DTD/sodipodi-0.dtd"
   xmlns:inkscape="http://www.inkscape.org/namespaces/inkscape"
   width="796.72217"
   height="111.78"
   id="svg2"
   version="1.1"
   inkscape:version="0.92.2 5c3e80d, 2017-08-06"
   sodipodi:docname="logo.svg"
   viewBox="0 0 796.72217 111.78">
  <defs
     id="defs4" />
  <sodipodi:namedview
     id="base"
     pagecolor="#ffffff"
     bordercolor="#666666"
     borderopacity="1.0"
     inkscape:pageopacity="0.0"
     inkscape:pageshadow="2"
     inkscape:zoom="0.87636719"
     inkscape:cx="466.05851"
     inkscape:cy="-434.79406"
     inkscape:document-units="px"
     inkscape:current-layer="layer1"
     showgrid="false"
     inkscape:window-width="1438"
     inkscape:window-height="2538"
     inkscape:window-x="0"
     inkscape:window-y="20"
     inkscape:window-maximized="0"
     fit-margin-top="0"
     fit-margin-left="0"
     fit-margin-right="0"
     fit-margin-bottom="0" />
  <metadata
     id="metadata7">
    <rdf:RDF>
      <cc:Work
         rdf:about="">
        <dc:format>image/svg+xml</dc:format>
        <dc:type
           rdf:resource="http://purl.org/dc/dcmitype/StillImage" />
        <dc:title />
      </cc:Work>
    </rdf:RDF>
  </metadata>
  <g
     inkscape:label="Layer 1"
     inkscape:groupmode="layer"
     id="layer1"
     transform="translate(-240.73665,-220.68191)">
    <g
       aria-label="DWHoman"
       style="font-style:normal;font-variant:normal;font-weight:500;font-stretch:normal;line-height:0%;font-family:GenoaItalic;-inkscape-font-specification:'GenoaItalic Medium';text-align:start;letter-spacing:0px;word-spacing:0px;text-anchor:start;fill:#000000;fill-opacity:1;stroke:none;stroke-width:1px;stroke-linecap:butt;stroke-linejoin:miter;stroke-opacity:1"
       id="text3333">
      <path
         d="m 298.69665,233.10191 1.62,-6.12 h -6.48 l -1.62,6.12 h -18.36 l -15.84,12.6 -4.86,18.54 h 6.3 l 1.62,-6.48 15.3,-12.06 h 6.3 l -19.8,74.34 h -12.24 l -8.28,6.3 -1.62,6.12 h 81 l 15.66,-12.42 19.8,-74.34 -9,-12.6 z m -10.8,86.94 19.8,-74.34 h 12.42 l 9,12.42 -13.32,49.32 -15.84,12.6 z"
         style="font-size:180px;line-height:1.25"
         id="path3828" />
      <path
         d="m 461.72321,233.10191 -7.92,6.3 -1.8,6.3 h 6.3 l 7.92,-6.12 -11.7,43.38 -31.32,24.66 11.7,-43.56 h -6.3 l -39.24,31.14 16.56,-62.1 h -24.84 l -15.84,12.6 -1.62,6.12 h 6.3 l 7.56,-6.12 -23.22,86.76 h 6.48 l 46.98,-37.08 -8.28,30.96 4.5,6.12 h 18.9 l 55.08,-43.38 11.52,-43.38 -9.18,-12.6 z"
         style="font-size:180px;line-height:1.25"
         id="path3830" />
      <path
         d="m 595.9329,220.68191 -7.92,6.3 h -6.66 l -8.1,6.3 -9.9,37.08 h -24.48 l 9.9,-37.26 h -37.44 l -15.48,12.42 -5.04,18.72 h 6.3 l 1.8,-6.66 14.94,-11.88 h 6.48 l -6.48,24.66 h -12.42 l -8.1,6.3 -3.24,12.42 h 6.66 l 1.62,-6.12 h 12.06 l -8.28,30.96 -15.48,12.24 h -12.42 l -1.8,6.3 h 37.08 l 16.02,-12.42 9.9,-37.08 h 24.48 l -13.32,49.5 h 37.62 l 15.84,-12.42 1.62,-6.3 h -6.12 l -7.74,6.3 h -12.42 l 24.84,-92.88 h 12.24 l 1.8,-6.48 z"
         style="font-size:180px;line-height:1.25"
         id="path3832" />
      <path
         d="m 634.39946,257.94191 -15.48,12.42 -13.32,49.68 8.82,12.42 h 50.04 l 15.66,-12.42 13.32,-49.68 -9,-12.42 z m 23.94,49.68 -15.48,12.42 -9,-12.42 6.66,-24.84 15.48,-12.24 9,12.24 z"
         style="font-size:180px;line-height:1.25"
         id="path3834" />
      <path
         d="m 808.8504,257.94191 -23.58,18.72 5.04,-18.72 h -31.14 l -23.58,18.72 5.04,-18.72 h -25.02 l -15.48,12.42 -1.8,6.48 h 12.24 l -14.94,55.62 h 25.02 l 9.9,-37.08 31.32,-24.84 -16.56,61.92 h 25.02 l 10.08,-37.26 30.96,-24.48 -16.56,61.74 h 25.38 l 15.66,-12.42 1.62,-6.3 h -12.24 l 14.94,-55.8 z"
         style="font-size:180px;line-height:1.25"
         id="path3836" />
      <path
         d="m 869.94633,257.94191 -15.48,12.42 -13.32,49.68 8.82,12.42 h 6.3 l 39.24,-30.96 -8.28,30.96 h 25.02 l 15.84,-12.42 1.62,-6.3 h -12.42 l 14.94,-55.8 z m 30.6,25.02 -31.14,24.66 9.9,-37.08 h 24.48 z"
         style="font-size:180px;line-height:1.25"
         id="path3838" />
      <path
         d="m 1006.3188,257.94191 -23.57997,18.72 5.04,-18.72 h -25.02 l -15.48,12.42 -1.8,6.48 h 12.24 l -14.94,55.62 h 25.02 l 10.08,-37.62 30.95997,-24.3 -16.55997,61.92 h 25.19997 l 15.66,-12.42 1.62,-6.3 h -12.24 l 14.94,-55.8 z"
         style="font-size:180px;line-height:1.25"
         id="path3840" />
    </g>
  </g>
</svg>
