<?xml version="1.0" encoding="UTF-8" standalone="no"?>
<!-- Created with Inkscape (http://www.inkscape.org/) -->

<svg
   xmlns:dc="http://purl.org/dc/elements/1.1/"
   xmlns:cc="http://creativecommons.org/ns#"
   xmlns:rdf="http://www.w3.org/1999/02/22-rdf-syntax-ns#"
   xmlns:svg="http://www.w3.org/2000/svg"
   xmlns="http://www.w3.org/2000/svg"
   xmlns:sodipodi="http://sodipodi.sourceforge.net/DTD/sodipodi-0.dtd"
   xmlns:inkscape="http://www.inkscape.org/namespaces/inkscape"
   width="128"
   height="128"
   id="svg2"
   version="1.1"
   inkscape:version="0.92.2 5c3e80d, 2017-08-06"
   sodipodi:docname="logo2.svg"
   viewBox="0 0 128 128"
   inkscape:export-filename="/home/nived/devin/blog/github-pages/graphics/logo2.png"
   inkscape:export-xdpi="90"
   inkscape:export-ydpi="90">
  <defs
     id="defs4" />
  <sodipodi:namedview
     id="base"
     pagecolor="#ffffff"
     bordercolor="#666666"
     borderopacity="1.0"
     inkscape:pageopacity="0.0"
     inkscape:pageshadow="2"
     inkscape:zoom="3.5054689"
     inkscape:cx="66.496392"
     inkscape:cy="91.987258"
     inkscape:document-units="px"
     inkscape:current-layer="g845"
     showgrid="false"
     inkscape:window-width="1438"
     inkscape:window-height="2538"
     inkscape:window-x="1440"
     inkscape:window-y="20"
     inkscape:window-maximized="0"
     fit-margin-top="0"
     fit-margin-left="0"
     fit-margin-right="0"
     fit-margin-bottom="0"
     showguides="true"
     inkscape:guide-bbox="true">
    <sodipodi:guide
       position="46.213504,155.18609"
       orientation="1,0"
       id="guide1384"
       inkscape:locked="false" />
    <sodipodi:guide
       position="65.897034,203.1112"
       orientation="1,0"
       id="guide1386"
       inkscape:locked="false" />
  </sodipodi:namedview>
  <metadata
     id="metadata7">
    <rdf:RDF>
      <cc:Work
         rdf:about="">
        <dc:format>image/svg+xml</dc:format>
        <dc:type
           rdf:resource="http://purl.org/dc/dcmitype/StillImage" />
        <dc:title />
      </cc:Work>
    </rdf:RDF>
  </metadata>
  <g
     inkscape:label="Layer 1"
     inkscape:groupmode="layer"
     id="layer1"
     transform="translate(-259.97931,-252.45504)">
    <g
       aria-label="DWHoman"
       style="font-style:normal;font-variant:normal;font-weight:500;font-stretch:normal;line-height:0%;font-family:GenoaItalic;-inkscape-font-specification:'GenoaItalic Medium';text-align:start;letter-spacing:0px;word-spacing:0px;text-anchor:start;fill:#000000;fill-opacity:1;stroke:none;stroke-width:1px;stroke-linecap:butt;stroke-linejoin:miter;stroke-opacity:1"
       id="text3333">
      <g
         id="g857">
        <g
           transform="matrix(0.4167127,0,0,0.4167127,151.64263,221.91459)"
           id="g845">
          <path
             d="m 542.05665,183.78191 -7.92,6.3 h -6.66 l -8.1,6.3 -9.9,37.08 h -24.48 l 9.9,-37.26 h -37.44 l -15.48,12.42 -5.04,18.72 h 6.3 l 1.8,-6.66 14.94,-11.88 h 6.48 l -6.48,24.66 h -12.42 l -8.1,6.3 -3.24,12.42 h 6.66 l 1.62,-6.12 h 12.06 l -8.28,30.96 -15.48,12.24 h -12.42 l -1.8,6.3 h 37.08 l 16.02,-12.42 9.9,-37.08 h 24.48 l -13.32,49.5 h 37.62 l 15.84,-12.42 1.62,-6.3 h -6.12 l -7.74,6.3 h -12.42 l 24.84,-92.88 h 12.24 l 1.8,-6.48 z"
             style="font-size:180px;line-height:1.25;fill:#000000;fill-opacity:1"
             id="path3832"
             inkscape:connector-curvature="0" />
          <path
             d="m 464.65665,146.34191 -7.92,6.3 -1.8,6.3 h 6.3 l 7.92,-6.12 -11.7,43.38 -31.32,24.66 11.7,-43.56 h -6.3 l -39.24,31.14 16.56,-62.1 h -24.84 l -15.84,12.6 -1.62,6.12 h 6.3 l 7.56,-6.12 -23.22,86.76 h 6.48 l 46.98,-37.08 -8.28,30.96 4.5,6.12 h 18.9 l 55.08,-43.38 11.52,-43.38 -9.18,-12.6 z"
             style="font-size:180px;line-height:1.25"
             id="path3830"
             inkscape:connector-curvature="0" />
          <path
             d="m 333.79665,195.84191 1.62,-6.12 h -6.48 l -1.62,6.12 h -18.36 l -15.84,12.6 -4.86,18.54 h 6.3 l 1.62,-6.48 15.3,-12.06 h 6.3 l -19.8,74.34 h -12.24 l -8.28,6.3 -1.62,6.12 h 81 l 15.66,-12.42 19.8,-74.34 -9,-12.6 z m -10.8,86.94 19.8,-74.34 h 12.42 l 9,12.42 -13.32,49.32 -15.84,12.6 z"
             style="font-size:180px;line-height:1.25;fill:#000000;fill-opacity:1"
             id="path3828"
             inkscape:connector-curvature="0" />
          <g
             id="g836">
            <g
               transform="matrix(0.80537031,0,0,0.80537031,80.491511,40.906918)"
               id="g14617">
              <circle
                 style="fill:none;fill-opacity:1;stroke:#000000;stroke-width:23.10000038;stroke-miterlimit:4;stroke-dasharray:none;stroke-opacity:1"
                 id="path14520"
                 cx="413.56235"
                 cy="230.90631"
                 r="179.14865" />
              <g
                 id="g14531" />
            </g>
          </g>
        </g>
        <text
           id="text14610"
           y="923.89124"
           x="269.78366"
           style="font-style:normal;font-weight:normal;font-size:17.33333397px;line-height:1.25;font-family:sans-serif;letter-spacing:0px;word-spacing:0px;fill:#000000;fill-opacity:1;stroke:none"
           xml:space="preserve"><tspan
             y="939.50433"
             x="269.78366"
             id="tspan14608"
             sodipodi:role="line" /></text>
      </g>
    </g>
  </g>
</svg>
