<?xml version="1.0" encoding="UTF-8" standalone="no"?>
<svg
   xmlns:dc="http://purl.org/dc/elements/1.1/"
   xmlns:cc="http://creativecommons.org/ns#"
   xmlns:rdf="http://www.w3.org/1999/02/22-rdf-syntax-ns#"
   xmlns:svg="http://www.w3.org/2000/svg"
   xmlns="http://www.w3.org/2000/svg"
   xmlns:sodipodi="http://sodipodi.sourceforge.net/DTD/sodipodi-0.dtd"
   xmlns:inkscape="http://www.inkscape.org/namespaces/inkscape"
   version="1.1"
   x="0px"
   y="0px"
   viewBox="0 0 43.996441 60"
   enable-background="new 0 0 64 64"
   xml:space="preserve"
   id="svg3819"
   sodipodi:docname="noun_591006_cc.svg"
   inkscape:version="0.92.2 5c3e80d, 2017-08-06"><metadata
     id="metadata3825"><rdf:RDF><cc:Work
         rdf:about=""><dc:format>image/svg+xml</dc:format><dc:type
           rdf:resource="http://purl.org/dc/dcmitype/StillImage" /><dc:title></dc:title></cc:Work></rdf:RDF></metadata><defs
     id="defs3823" /><sodipodi:namedview
     pagecolor="#ffffff"
     bordercolor="#666666"
     borderopacity="1"
     objecttolerance="10"
     gridtolerance="10"
     guidetolerance="10"
     inkscape:pageopacity="0"
     inkscape:pageshadow="2"
     inkscape:window-width="1438"
     inkscape:window-height="1268"
     id="namedview3821"
     showgrid="false"
     fit-margin-top="0"
     fit-margin-left="0"
     fit-margin-right="0"
     fit-margin-bottom="0"
     inkscape:zoom="5.9"
     inkscape:cx="-12.800464"
     inkscape:cy="45.351181"
     inkscape:window-x="0"
     inkscape:window-y="20"
     inkscape:window-maximized="0"
     inkscape:current-layer="svg3819" /><!-- <text x="0" y="79" fill='#F5E8C8' font-size="5px" font-weight="bold" font-family="'Helvetica Neue', Helvetica, Arial-Unicode, Arial, Sans-serif">Created by Delwar Hossain</text><text x="0" y="84" fill='#F5E8C8' font-size="5px" font-weight="bold" font-family="'Helvetica Neue', Helvetica, Arial-Unicode, Arial, Sans-serif">from the Noun Project</text> --><!-- https://thenounproject.com/search/?q=resume&i=591006 --><g
     id="g4393"
     transform="matrix(0.59999998,0,0,0.59999998,-5.1942001,21.699599)"><g
       transform="matrix(1.5706508,0,0,1.5706508,-4.9401236,-36.42692)"
       id="g3817"><g
         id="g3815"><g
           id="g3807"><path
             style="fill:#f5e8c8"
             inkscape:connector-curvature="0"
             id="path3805"
             d="M 47.359,50.102 C 47.276,47.814 47.067,45.497 46.797,43.183 46.75,42.509 46.68,41.84 46.557,41.176 46.468,40.697 46.354,40.221 46.2,39.752 c -0.146,-0.448 -0.307,-0.924 -0.596,-1.278 -0.305,-0.37 -0.732,-0.758 -1.174,-0.88 -1.07,-0.289 -2.14,-0.568 -3.215,-0.838 -1.63,-0.414 -3.259,-0.815 -4.889,-1.224 -0.094,-0.021 -0.198,-0.013 -0.362,-0.026 -0.021,0.075 -0.039,0.148 -0.06,0.221 -0.286,1.052 -0.552,2.106 -0.872,3.142 -0.385,1.239 -0.817,2.468 -1.247,3.694 -0.047,0.138 -0.112,0.268 -0.18,0.398 C 33.53,42.404 33.433,41.67 33.337,40.951 33.164,39.605 33,38.298 33,38.254 c 0.068,-0.154 0.128,-0.299 0.193,-0.44 0.008,-0.021 0.018,-0.042 0.029,-0.06 0.036,-0.086 0.073,-0.18 0.112,-0.258 0.021,-0.029 0.039,-0.07 0.057,-0.102 0.057,-0.115 0.128,-0.234 0.128,-0.38 0,-0.016 0,-0.029 -0.003,-0.042 -0.005,-0.023 -0.008,-0.049 -0.01,-0.073 0,-0.003 -0.003,-0.008 -0.003,-0.01 -0.018,-0.073 -0.047,-0.143 -0.07,-0.203 L 33.412,36.644 C 33.404,36.626 33.404,36.615 33.391,36.592 33.383,36.563 33.362,36.524 33.344,36.49 l -0.01,-0.018 c -0.005,-0.008 -0.021,-0.021 -0.021,-0.029 -0.023,-0.042 -0.052,-0.07 -0.078,-0.091 -0.052,-0.034 -0.107,-0.047 -0.146,-0.055 h -0.096 c -0.029,-0.021 -0.07,-0.021 -0.086,-0.021 -0.133,-0.008 -0.469,-0.008 -0.901,-0.008 -0.43,0 -0.773,0 -0.906,0.008 -0.029,0 -0.057,0 -0.089,0.021 h -0.086 c -0.062,0.01 -0.154,0.031 -0.229,0.146 -0.008,0.008 -0.008,0.021 -0.018,0.039 l -0.01,0.008 c -0.005,0.008 -0.01,0.018 -0.013,0.026 -0.075,0.075 -0.122,0.182 -0.125,0.307 -0.016,0.055 -0.031,0.12 -0.031,0.19 0,0.146 0.062,0.266 0.125,0.38 0.003,0.008 0.01,0.018 0.016,0.031 0.013,0.023 0.029,0.049 0.039,0.07 0.039,0.078 0.078,0.172 0.115,0.258 0.008,0.01 0.016,0.029 0.021,0.044 0.068,0.151 0.133,0.299 0.198,0.456 0,0.029 -0.036,0.323 -0.094,0.773 -0.133,1.023 -0.37,2.825 -0.518,3.934 -0.068,-0.13 -0.133,-0.26 -0.18,-0.398 -0.43,-1.226 -0.862,-2.455 -1.247,-3.694 -0.32,-1.039 -0.588,-2.096 -0.872,-3.147 -0.021,-0.073 -0.039,-0.146 -0.06,-0.216 -0.164,0.013 -0.268,0.005 -0.362,0.026 -1.458,0.367 -2.918,0.726 -4.373,1.093 -0.003,0 -0.003,0.003 -0.003,0.003 -1.244,0.31 -2.489,0.63 -3.728,0.966 -0.417,0.115 -0.817,0.463 -1.117,0.812 -0.021,0.023 -0.039,0.047 -0.057,0.068 -0.289,0.354 -0.45,0.83 -0.596,1.278 -0.138,0.422 -0.245,0.846 -0.328,1.276 -0.198,0.997 -0.271,2.015 -0.318,3.035 -0.003,0.073 -0.005,0.143 -0.01,0.216 -0.2,1.869 -0.406,3.738 -0.5,5.62 -0.055,1.169 0.497,1.7 1.762,1.716 4.524,0.065 9.054,0.12 13.579,0.18 H 45.58 c 1.259,10e-4 1.824,-0.525 1.779,-1.691 z" /></g><g
           id="g3811"><path
             style="fill:#f5e8c8"
             inkscape:connector-curvature="0"
             id="path3809"
             d="m 22.619,8.314 c 0,-1.418 -0.065,-2.763 0.019,-4.098 0.079,-1.26 1.213,-2.153 2.6,-2.178 0.974,-0.018 1.948,-0.003 2.968,-0.003 0.013,-0.265 0.013,-0.483 0.035,-0.699 0.066,-0.643 0.561,-1.149 1.207,-1.156 1.691,-0.019 3.382,-0.018 5.073,0 0.678,0.007 1.122,0.455 1.21,1.139 0.028,0.218 0.039,0.438 0.063,0.715 0.942,0 1.855,-0.003 2.768,0.001 1.817,0.006 2.826,1.019 2.834,2.845 0.004,0.896 -0.034,1.795 0.012,2.689 0.03,0.577 -0.134,0.762 -0.734,0.758 C 36.395,8.302 32.117,8.314 27.838,8.314 26.351,8.314 24.863,8.315 23.376,8.315 23.137,8.314 22.898,8.314 22.619,8.314 Z" /></g><path
           style="fill:#f5e8c8"
           inkscape:connector-curvature="0"
           id="path3813"
           d="m 52.761,4.249 h -8.718 v 2.805 h 8.505 V 61.04 H 11.452 V 7.054 h 8.505 V 4.249 h -8.718 c -1.417,0 -2.582,1.174 -2.582,2.582 v 54.411 c 0,1.428 1.175,2.592 2.582,2.592 h 41.522 c 1.407,0 2.582,-1.164 2.582,-2.592 V 6.831 c 0,-1.407 -1.165,-2.582 -2.582,-2.582 z" /></g></g><path
       style="fill:#f5e8c8;stroke-width:0.39344326"
       inkscape:connector-curvature="0"
       id="path3706"
       d="m 51.798937,-5.5387483 c -0.03934,0 -0.03934,-0.03934 -0.07869,-0.03934 -0.472132,-1.9278718 -3.226235,-3.9344328 -5.82296,-3.4229558 -2.596725,0.55082 -7.947553,-0.07869 -7.947553,-0.07869 -0.07869,1.140986 0.904919,1.927872 0.904919,1.927872 -4.524597,2.7541025 -3.698366,8.6557511 -3.265579,10.7803449 -0.03934,0.039344 -0.07869,0.078689 -0.118033,0.1573772 -0.944263,1.2590184 -0.590164,3.0688571 -0.236066,4.2885313 0.236066,0.7868862 0.629509,2.2819707 1.573773,3.1475457 0.708198,2.596726 2.754103,5.626239 6.059026,6.806569 0.786887,0.27541 1.613118,0.432787 2.478692,0.432787 0.826232,0 1.652462,-0.157377 2.439349,-0.432787 3.304923,-1.18033 5.350828,-4.170499 6.059026,-6.806569 0.944263,-0.865575 1.337706,-2.3606595 1.573773,-3.1475457 C 55.772712,6.8153731 56.126811,5.0448784 55.182547,3.78586 55.143207,3.746516 55.103857,3.707172 55.064515,3.6284828 55.143205,3.1956951 55.182547,2.7629077 55.221892,2.3694643 56.362878,-5.0666123 52.271069,-5.4994003 51.798937,-5.5387443 Z M 53.64812,7.5235674 C 53.097299,9.451439 52.585823,10.00226 52.19238,10.00226 c -0.354099,2.28197 -2.124593,5.193451 -5.036073,6.216403 -0.590165,0.196722 -1.219675,0.314755 -1.849184,0.314755 -0.629509,0 -1.259018,-0.118033 -1.849183,-0.314755 C 40.585804,15.195711 38.775966,12.28423 38.421867,10.00226 38.028423,9.962915 37.516947,9.4120947 36.966127,7.5235674 36.257929,5.044875 36.926777,4.5727432 37.556291,4.5727432 c 0.03935,0 0.07869,0 0.118034,0 0,0 0,-0.039344 0,-0.039344 -0.118034,-0.3934434 -0.668854,-2.6360698 1.298362,-4.01312117 1.573773,0.354099 3.973777,0.4327874 7.200012,-0.9442639 6.177058,-2.63606953 6.727879,4.99672937 6.727879,4.99672937 v 0 c 0.03934,0 0.07869,0 0.118033,0 0.668853,0 1.337707,0.5114762 0.629509,2.9508239 z" /></g></svg>
