<?xml version="1.0" encoding="UTF-8" standalone="no"?>
<svg
   xmlns:dc="http://purl.org/dc/elements/1.1/"
   xmlns:cc="http://creativecommons.org/ns#"
   xmlns:rdf="http://www.w3.org/1999/02/22-rdf-syntax-ns#"
   xmlns:svg="http://www.w3.org/2000/svg"
   xmlns="http://www.w3.org/2000/svg"
   xmlns:sodipodi="http://sodipodi.sourceforge.net/DTD/sodipodi-0.dtd"
   xmlns:inkscape="http://www.inkscape.org/namespaces/inkscape"
   version="1.1"
   x="0px"
   y="0px"
   viewBox="0 0 60.005804 60"
   enable-background="new 0 0 100 100"
   xml:space="preserve"
   id="svg5619"
   sodipodi:docname="noun_1322581_cc.svg"
   inkscape:version="0.92.2 5c3e80d, 2017-08-06"><metadata
     id="metadata5625"><rdf:RDF><cc:Work
         rdf:about=""><dc:format>image/svg+xml</dc:format><dc:type
           rdf:resource="http://purl.org/dc/dcmitype/StillImage" /><dc:title></dc:title></cc:Work></rdf:RDF></metadata><defs
     id="defs5623" /><sodipodi:namedview
     pagecolor="#ffffff"
     bordercolor="#666666"
     borderopacity="1"
     objecttolerance="10"
     gridtolerance="10"
     guidetolerance="10"
     inkscape:pageopacity="0"
     inkscape:pageshadow="2"
     inkscape:window-width="1438"
     inkscape:window-height="844"
     id="namedview5621"
     showgrid="false"
     fit-margin-top="0"
     fit-margin-left="0"
     fit-margin-right="0"
     fit-margin-bottom="0"
     inkscape:zoom="0.944"
     inkscape:cx="-138.0978"
     inkscape:cy="97.162993"
     inkscape:window-x="0"
     inkscape:window-y="20"
     inkscape:window-maximized="0"
     inkscape:current-layer="svg5619" /><g
     id="g13244"
     transform="scale(0.6)"><path
       style="fill:#f5e8c8"
       inkscape:connector-curvature="0"
       id="path5613"
       d="m 84.000378,97 c 0,1.657 -1.343,3 -3,3 h -63 c -1.657,0 -3,-1.343 -3,-3 0,-1.657 1.343,-3 3,-3 h 63 c 1.657,0 3,1.343 3,3 z" /><path
       style="fill:#f5e8c8"
       inkscape:connector-curvature="0"
       id="path5615"
       d="m 75.000378,79 c 1.657,0 3,1.343 3,3 0,1.657 -1.343,3 -3,3 h -45 c -1.657,0 -3,-1.343 -3,-3 0,-1.657 1.343,-3 3,-3 z" /><path
       style="fill:#f5e8c8;stroke-width:1.19058335"
       inkscape:connector-curvature="0"
       id="path5617"
       d="M 92.809988,0.01838708 C 28.813756,-0.66024542 3.5722001,17.319943 3.5722001,74.997751 c 0,0.0762 0.0381,0.139298 0.04286,0.213114 C 1.3529528,82.073387 0.12427081,89.145452 4.5021492e-4,96.368721 -0.03050499,98.339136 1.5386838,99.965473 3.5126711,100 c 0.02143,0 0.0381,0 0.05953,0 1.946604,0 3.537223,-1.559664 3.57175,-3.512221 0.179778,-10.548568 2.8871639,-20.073234 7.2363649,-28.633528 10.898599,-0.09048 26.205929,1.339406 40.407206,-3.784864 4.480165,-1.616812 2.152575,-7.712599 -2.420456,-6.718462 -9.282977,2.02042 -22.531788,1.678723 -31.293291,-0.211923 2.079949,-2.899071 2.626427,-3.707477 5.781473,-7.161359 40.710805,0.01786 67.00484,-7.076827 73.04943,-41.6323164 0.753642,-4.3253891 -2.64667,-8.28288792 -7.09469,-8.32693952 z M 67.451756,12.363545 C 47.114212,21.156003 30.4139,33.583311 17.348439,49.647852 16.719811,50.42054 15.503035,49.739526 15.841161,48.801347 23.551378,27.41609 39.138495,13.404115 67.106487,10.983659 c 0.835789,-0.07263 1.114386,1.047713 0.345269,1.379886 z" /></g><!-- <text x="0" y="115" fill="#F5E8C8" font-size="5px" font-weight="bold" font-family="'Helvetica Neue', Helvetica, Arial-Unicode, Arial, Sans-serif">Created by Ayub Irawan</text><text x="0" y="120" fill="#F5E8C8" font-size="5px" font-weight="bold" font-family="'Helvetica Neue', Helvetica, Arial-Unicode, Arial, Sans-serif">from the Noun Project</text> --><!-- https://thenounproject.com/search/?q=feather&i=1322581 --></svg>
