<?xml version="1.0" encoding="UTF-8" standalone="no"?>
<svg
   xmlns:dc="http://purl.org/dc/elements/1.1/"
   xmlns:cc="http://creativecommons.org/ns#"
   xmlns:rdf="http://www.w3.org/1999/02/22-rdf-syntax-ns#"
   xmlns:svg="http://www.w3.org/2000/svg"
   xmlns="http://www.w3.org/2000/svg"
   xmlns:sodipodi="http://sodipodi.sourceforge.net/DTD/sodipodi-0.dtd"
   xmlns:inkscape="http://www.inkscape.org/namespaces/inkscape"
   version="1.1"
   x="0px"
   y="0px"
   viewBox="0 0 53.192821 60"
   enable-background="new 0 0 100 100"
   xml:space="preserve"
   id="svg3710"
   sodipodi:docname="noun_541507_cc.svg"
   inkscape:version="0.92.2 5c3e80d, 2017-08-06"><metadata
     id="metadata3716"><rdf:RDF><cc:Work
         rdf:about=""><dc:format>image/svg+xml</dc:format><dc:type
           rdf:resource="http://purl.org/dc/dcmitype/StillImage" /><dc:title></dc:title></cc:Work></rdf:RDF></metadata><defs
     id="defs3714" /><sodipodi:namedview
     pagecolor="#ffffff"
     bordercolor="#666666"
     borderopacity="1"
     objecttolerance="10"
     gridtolerance="10"
     guidetolerance="10"
     inkscape:pageopacity="0"
     inkscape:pageshadow="2"
     inkscape:window-width="1438"
     inkscape:window-height="2538"
     id="namedview3712"
     showgrid="false"
     fit-margin-top="0"
     fit-margin-left="0"
     fit-margin-right="0"
     fit-margin-bottom="0"
     inkscape:zoom="8.8"
     inkscape:cx="11.914974"
     inkscape:cy="-4.7496619"
     inkscape:window-x="0"
     inkscape:window-y="20"
     inkscape:window-maximized="0"
     inkscape:current-layer="svg3710" /><g
     id="g3708"
     transform="matrix(0.61852119,0,0,0.61852119,-4.3296483,-0.92433714)"><path
       d="m 57.9,73 c -1.1,0.6 -2.4,1.2 -3.7,1.6 C 51.7,75.5 49,76 46.3,76 43.6,76 41,75.6 38.5,74.7 33.3,72.9 29.3,69.7 26.3,66 22.2,68.3 14.7,72.5 7,78.2 c 8.9,12.2 23.2,20.2 39.5,20.2 5.1,0 10.1,-0.8 14.7,-2.3 -3.3,-3.7 -5.4,-8.6 -5.4,-13.9 0,-3.3 0.8,-6.4 2.1,-9.2 z"
       id="path3702"
       inkscape:connector-curvature="0"
       style="fill:#f5e8c8" /><path
       d="m 76.7,65.9 c -9,0 -16.3,7.3 -16.3,16.3 0,9 7.3,16.3 16.3,16.3 9,0 16.3,-7.3 16.3,-16.3 0,-9 -7.3,-16.3 -16.3,-16.3 z m 0.7,25.6 -3,-3 4.1,-4.1 H 67.2 v -4.3 h 11.3 l -4.1,-4.1 3,-3 9.3,9.3 z"
       id="path3704"
       inkscape:connector-curvature="0"
       style="fill:#f5e8c8" /><path
       d="m 62.9,10.5 c -0.1,0 -0.1,-0.1 -0.2,-0.1 C 61.5,5.5 54.5,0.4 47.9,1.7 41.3,3.1 27.7,1.5 27.7,1.5 27.5,4.4 30,6.4 30,6.4 c -11.5,7 -9.4,22 -8.3,27.4 -0.1,0.1 -0.2,0.2 -0.3,0.4 -2.4,3.2 -1.5,7.8 -0.6,10.9 0.6,2 1.6,5.8 4,8 1.8,6.6 7,14.3 15.4,17.3 2,0.7 4.1,1.1 6.3,1.1 2.1,0 4.2,-0.4 6.2,-1.1 8.4,-3 13.6,-10.6 15.4,-17.3 2.4,-2.2 3.4,-6 4,-8 0.9,-3.2 1.8,-7.7 -0.6,-10.9 -0.1,-0.1 -0.2,-0.2 -0.3,-0.4 0.2,-1.1 0.3,-2.2 0.4,-3.2 2.9,-18.9 -7.5,-20 -8.7,-20.1 z m 4.7,33.2 C 66.2,48.6 64.9,50 63.9,50 63,55.8 58.5,63.2 51.1,65.8 c -1.5,0.5 -3.1,0.8 -4.7,0.8 -1.6,0 -3.2,-0.3 -4.7,-0.8 -7.3,-2.6 -11.9,-10 -12.8,-15.8 -1,-0.1 -2.3,-1.5 -3.7,-6.3 -1.8,-6.3 -0.1,-7.5 1.5,-7.5 0.1,0 0.2,0 0.3,0 0,0 0,-0.1 0,-0.1 -0.3,-1 -1.7,-6.7 3.3,-10.2 4,0.9 10.1,1.1 18.3,-2.4 15.7,-6.7 17.1,12.7 17.1,12.7 v 0 c 0.1,0 0.2,0 0.3,0 1.7,0 3.4,1.3 1.6,7.5 z"
       id="path3706"
       inkscape:connector-curvature="0"
       style="fill:#f5e8c8" /></g><!-- <text x="0" y="115" fill="#000000" font-size="5px" font-weight="bold" font-family="'Helvetica Neue', Helvetica, Arial-Unicode, Arial, Sans-serif">Created by Gregor Cresnar</text><text x="0" y="120" fill="#000000" font-size="5px" font-weight="bold" font-family="'Helvetica Neue', Helvetica, Arial-Unicode, Arial, Sans-serif">from the Noun Project</text> --><!-- https://thenounproject.com/search/?q=follow&i=541507 --></svg>
