<?xml version="1.0" encoding="UTF-8" standalone="no"?>
<svg
   xmlns:dc="http://purl.org/dc/elements/1.1/"
   xmlns:cc="http://creativecommons.org/ns#"
   xmlns:rdf="http://www.w3.org/1999/02/22-rdf-syntax-ns#"
   xmlns:svg="http://www.w3.org/2000/svg"
   xmlns="http://www.w3.org/2000/svg"
   xmlns:sodipodi="http://sodipodi.sourceforge.net/DTD/sodipodi-0.dtd"
   xmlns:inkscape="http://www.inkscape.org/namespaces/inkscape"
   version="1.1"
   x="0px"
   y="0px"
   viewBox="0 0 77.819121 60"
   enable-background="new 0 0 96 96"
   xml:space="preserve"
   id="svg7613"
   sodipodi:docname="noun_1572678_cc.svg"
   inkscape:version="0.92.2 5c3e80d, 2017-08-06"><metadata
     id="metadata7619"><rdf:RDF><cc:Work
         rdf:about=""><dc:format>image/svg+xml</dc:format><dc:type
           rdf:resource="http://purl.org/dc/dcmitype/StillImage" /><dc:title /></cc:Work></rdf:RDF></metadata><defs
     id="defs7617" /><sodipodi:namedview
     pagecolor="#ffffff"
     bordercolor="#666666"
     borderopacity="1"
     objecttolerance="10"
     gridtolerance="10"
     guidetolerance="10"
     inkscape:pageopacity="0"
     inkscape:pageshadow="2"
     inkscape:window-width="1438"
     inkscape:window-height="2538"
     id="namedview7615"
     showgrid="false"
     fit-margin-top="0"
     fit-margin-left="0"
     fit-margin-right="0"
     fit-margin-bottom="0"
     inkscape:zoom="5.5625734"
     inkscape:cx="53.300767"
     inkscape:cy="-76.711685"
     inkscape:window-x="0"
     inkscape:window-y="20"
     inkscape:window-maximized="0"
     inkscape:current-layer="svg7613" /><g
     id="g7611"
     transform="translate(-9.0904388,-18.00025)"><path
       d="m 8,20.308 c 2.192,13.842 4.384,27.683 6.577,41.524 1.988,-0.315 3.979,-0.602 5.972,-0.86 -1.567,-12.097 -3.134,-24.193 -4.702,-36.291 21.347,-2.765 42.961,-2.765 64.308,10e-4 -1.567,12.097 -3.135,24.193 -4.702,36.29 1.993,0.259 3.983,0.545 5.971,0.86 C 83.615,47.99 85.809,34.149 88,20.308 61.498,16.11 34.501,16.11 8,20.308 Z"
       id="path7607"
       inkscape:connector-curvature="0"
       style="fill:#f5e8c8" /><path
       d="m 48,32.333 c -6.09,5.374 -11.771,10.979 -17.032,16.77 2.844,-0.217 5.691,-0.379 8.54,-0.486 1.778,-0.067 3.556,-0.113 5.334,-0.139 0.143,10.121 0.285,20.242 0.427,30.363 1.821,-0.026 3.642,-0.026 5.463,0 0.143,-10.121 0.285,-20.242 0.428,-30.363 1.777,0.025 3.556,0.071 5.333,0.139 2.849,0.107 5.695,0.27 8.539,0.486 C 59.771,43.313 54.09,37.707 48,32.333 Z"
       id="path7609"
       inkscape:connector-curvature="0"
       style="fill:#f5e8c8" /></g><!-- <text x="0" y="111" fill="#000000" font-size="5px" font-weight="bold" font-family="'Helvetica Neue', Helvetica, Arial-Unicode, Arial, Sans-serif">Created by designvector</text><text x="0" y="116" fill="#000000" font-size="5px" font-weight="bold" font-family="'Helvetica Neue', Helvetica, Arial-Unicode, Arial, Sans-serif">from the Noun Project</text> --><!-- https://thenounproject.com/search/?q=update&i=1572678# --></svg>