<?xml version="1.0" encoding="UTF-8" standalone="no"?>
<svg
   xmlns:dc="http://purl.org/dc/elements/1.1/"
   xmlns:cc="http://creativecommons.org/ns#"
   xmlns:rdf="http://www.w3.org/1999/02/22-rdf-syntax-ns#"
   xmlns:svg="http://www.w3.org/2000/svg"
   xmlns="http://www.w3.org/2000/svg"
   xmlns:sodipodi="http://sodipodi.sourceforge.net/DTD/sodipodi-0.dtd"
   xmlns:inkscape="http://www.inkscape.org/namespaces/inkscape"
   viewBox="0 0 65.067064 60"
   x="0px"
   y="0px"
   version="1.1"
   id="svg6985"
   sodipodi:docname="noun_1355740_cc.svg"
   width="65.067062"
   height="60"
   inkscape:version="0.92.2 5c3e80d, 2017-08-06">
  <metadata
     id="metadata6991">
    <rdf:RDF>
      <cc:Work
         rdf:about="">
        <dc:format>image/svg+xml</dc:format>
        <dc:type
           rdf:resource="http://purl.org/dc/dcmitype/StillImage" />
        <dc:title>01_android_home</dc:title>
      </cc:Work>
    </rdf:RDF>
  </metadata>
  <defs
     id="defs6989" />
  <sodipodi:namedview
     pagecolor="#ffffff"
     bordercolor="#666666"
     borderopacity="1"
     objecttolerance="10"
     gridtolerance="10"
     guidetolerance="10"
     inkscape:pageopacity="0"
     inkscape:pageshadow="2"
     inkscape:window-width="1438"
     inkscape:window-height="844"
     id="namedview6987"
     showgrid="false"
     fit-margin-top="0"
     fit-margin-left="0"
     fit-margin-right="0"
     fit-margin-bottom="0"
     inkscape:zoom="2.36"
     inkscape:cx="88.023185"
     inkscape:cy="71.21273"
     inkscape:window-x="0"
     inkscape:window-y="20"
     inkscape:window-maximized="0"
     inkscape:current-layer="svg6985" />
  <title
     id="title6979">01_android_home</title>
  <g
     id="g6983"
     transform="matrix(1.1849093,0,0,1.1849093,-14.969482,-15.834194)">
    <path
       d="m 40.77,13.63 a 1,1 0 0 0 -1.36,0 L 12.95,38.27 A 1,1 0 0 0 13.63,40 H 19 v 23 a 1,1 0 0 0 1,1 H 34 V 46.75 a 1,1 0 0 1 1,-1 h 10 a 1,1 0 0 1 1,1 V 64 h 14 a 1,1 0 0 0 1,-1 V 40 h 5.55 a 1,1 0 0 0 0.68,-1.73 z"
       id="path6981"
       inkscape:connector-curvature="0"
       style="fill:#f5e8c8" />
  </g>
  <!-- <text x="0" y="95" fill="#000000" font-size="5px" font-weight="bold" font-family="'Helvetica Neue', Helvetica, Arial-Unicode, Arial, Sans-serif">Created by Weltenraser</text> -->
  <!-- <text x="0" y="100" fill="#000000" font-size="5px" font-weight="bold" font-family="'Helvetica Neue', Helvetica, Arial-Unicode, Arial, Sans-serif">from the Noun Project</text> -->
  <!-- https://thenounproject.com/search/?q=main&i=1355740 -->
</svg>
