<?xml version="1.0" encoding="UTF-8" standalone="no"?>
<svg
   xmlns:dc="http://purl.org/dc/elements/1.1/"
   xmlns:cc="http://creativecommons.org/ns#"
   xmlns:rdf="http://www.w3.org/1999/02/22-rdf-syntax-ns#"
   xmlns:svg="http://www.w3.org/2000/svg"
   xmlns="http://www.w3.org/2000/svg"
   xmlns:sodipodi="http://sodipodi.sourceforge.net/DTD/sodipodi-0.dtd"
   xmlns:inkscape="http://www.inkscape.org/namespaces/inkscape"
   version="1.1"
   x="0px"
   y="0px"
   viewBox="0 0 60.275446 60"
   enable-background="new 0 0 100 100"
   xml:space="preserve"
   id="svg973"
   sodipodi:docname="noun_19895_cc.svg"
   inkscape:version="0.92.2 5c3e80d, 2017-08-06"><metadata
     id="metadata979"><rdf:RDF><cc:Work
         rdf:about=""><dc:format>image/svg+xml</dc:format><dc:type
           rdf:resource="http://purl.org/dc/dcmitype/StillImage" /><dc:title></dc:title></cc:Work></rdf:RDF></metadata><defs
     id="defs977" /><sodipodi:namedview
     pagecolor="#ffffff"
     bordercolor="#666666"
     borderopacity="1"
     objecttolerance="10"
     gridtolerance="10"
     guidetolerance="10"
     inkscape:pageopacity="0"
     inkscape:pageshadow="2"
     inkscape:window-width="1438"
     inkscape:window-height="1268"
     id="namedview975"
     showgrid="false"
     fit-margin-top="0"
     fit-margin-left="0"
     fit-margin-right="0"
     fit-margin-bottom="0"
     inkscape:zoom="4.4"
     inkscape:cx="4.5776669"
     inkscape:cy="36.755585"
     inkscape:window-x="0"
     inkscape:window-y="20"
     inkscape:window-maximized="0"
     inkscape:current-layer="g971" /><g
     id="g971"
     transform="matrix(1.116212,0,0,1.116212,-5.58106,-45.810201)"><g
       id="g9946"
       transform="matrix(0.59999998,0,0,0.59999998,2.0000001,37.917602)"><path
         style="fill:#f5e8c8;fill-opacity:1"
         inkscape:connector-curvature="0"
         id="path965"
         d="M 27.143,94.794 C 14.932,94.794 5,84.862 5,72.652 V 35.498 c 0,-3.549 2.877,-6.427 6.428,-6.427 3.551,0 6.428,2.878 6.428,6.427 v 37.155 c 0,5.121 4.166,9.287 9.287,9.287 5.121,0 9.287,-4.166 9.287,-9.287 -0.003,-3.505 -1.942,-6.674 -5.068,-8.279 -3.158,-1.62 -4.406,-5.493 -2.786,-8.655 1.62,-3.16 5.496,-4.405 8.654,-2.788 7.433,3.814 12.056,11.37 12.056,19.72 -0.001,12.211 -9.932,22.143 -22.143,22.143 z" /><path
         style="fill:#f5e8c8"
         inkscape:connector-curvature="0"
         id="path967"
         d="m 65.715,79.083 c -3.551,0 -6.431,-2.88 -6.431,-6.431 0,-15.46 -11.01,-28.752 -26.177,-31.594 -3.492,-0.654 -5.789,-4.014 -5.139,-7.5 0.656,-3.492 4.02,-5.791 7.506,-5.136 21.246,3.981 36.668,22.584 36.668,44.23 0.001,3.551 -2.879,6.431 -6.427,6.431 z" /><path
         style="fill:#f5e8c8"
         inkscape:connector-curvature="0"
         id="path969"
         d="m 88.572,79.083 c -3.551,0 -6.431,-2.88 -6.431,-6.431 C 82.141,44.714 61.249,21.228 33.546,18.02 30.019,17.611 27.493,14.421 27.898,10.894 28.308,7.368 31.481,4.847 35.026,5.247 69.216,9.207 95,38.185 95,72.652 c 0,3.551 -2.877,6.431 -6.428,6.431 z" /></g></g><!-- <text x="0" y="115" fill="#000000" font-size="5px" font-weight="bold" font-family="'Helvetica Neue', Helvetica, Arial-Unicode, Arial, Sans-serif">Created by Alex Berkowitz</text><text x="0" y="120" fill="#000000" font-size="5px" font-weight="bold" font-family="'Helvetica Neue', Helvetica, Arial-Unicode, Arial, Sans-serif">from the Noun Project</text> --><!-- https://thenounproject.com/search/?q=blog&i=19895 --></svg>
