<?xml version="1.0" encoding="UTF-8" standalone="no"?>
<svg
   xmlns:dc="http://purl.org/dc/elements/1.1/"
   xmlns:cc="http://creativecommons.org/ns#"
   xmlns:rdf="http://www.w3.org/1999/02/22-rdf-syntax-ns#"
   xmlns:svg="http://www.w3.org/2000/svg"
   xmlns="http://www.w3.org/2000/svg"
   xmlns:sodipodi="http://sodipodi.sourceforge.net/DTD/sodipodi-0.dtd"
   xmlns:inkscape="http://www.inkscape.org/namespaces/inkscape"
   viewBox="0 0 63.157898 60"
   version="1.1"
   x="0px"
   y="0px"
   id="svg6364"
   sodipodi:docname="noun_1332809_cc.svg"
   inkscape:version="0.92.2 5c3e80d, 2017-08-06">
  <metadata
     id="metadata6370">
    <rdf:RDF>
      <cc:Work
         rdf:about="">
        <dc:format>image/svg+xml</dc:format>
        <dc:type
           rdf:resource="http://purl.org/dc/dcmitype/StillImage" />
        <dc:title>Furniture ISO - Outline - 025 - Pigeon Holes</dc:title>
      </cc:Work>
    </rdf:RDF>
  </metadata>
  <defs
     id="defs6368" />
  <sodipodi:namedview
     pagecolor="#ffffff"
     bordercolor="#666666"
     borderopacity="1"
     objecttolerance="10"
     gridtolerance="10"
     guidetolerance="10"
     inkscape:pageopacity="0"
     inkscape:pageshadow="2"
     inkscape:window-width="1438"
     inkscape:window-height="1268"
     id="namedview6366"
     showgrid="false"
     fit-margin-top="0"
     fit-margin-left="0"
     fit-margin-right="0"
     fit-margin-bottom="0"
     inkscape:zoom="3.2551724"
     inkscape:cx="19.810223"
     inkscape:cy="37.441081"
     inkscape:window-x="0"
     inkscape:window-y="20"
     inkscape:window-maximized="0"
     inkscape:current-layer="svg6364" />
  <title
     id="title6342">Furniture ISO - Outline - 025 - Pigeon Holes</title>
  <desc
     id="desc6344">Created with Sketch.</desc>
  <g
     id="g6362"
     transform="matrix(1.0526316,0,0,1.0526316,2.6490383e-8,-0.52632758)"
     style="fill:none;fill-rule:evenodd;stroke:none;stroke-width:1">
    <g
       id="g6360"
       style="fill:#f5e8c8;fill-rule:nonzero">
      <path
         d="m 59.8913,24.066 c -0.04076,-0.08414 -0.09327,-0.162071 -0.15594,-0.23145 -0.01514,-0.01672 -0.02625,-0.03564 -0.04242,-0.05127 -0.07229,-0.07151 -0.155148,-0.13148 -0.24567,-0.1778 l -46,-23 c -0.281596,-0.14062508 -0.612934,-0.14062508 -0.89453,0 l -12,6 C 0.46213451,6.651864 0.37919627,6.7118982 0.30683,6.78348 0.29108,6.79874 0.2804,6.81723 0.26563,6.83341 0.20239231,6.9032138 0.14946615,6.9817057 0.10846,7.0665 0.09436,7.09546 0.08136,7.123 0.07,7.15344 0.02600885,7.2638084 0.00229554,7.3812096 0,7.5 v 26 c -8.4753371e-5,0.378807 0.21391012,0.725133 0.55273,0.89453 l 46,23 c 0.0088,0.0044 0.0191,0.0024 0.028,0.0066 0.264083,0.131859 0.574805,0.131837 0.83887,-6e-5 0.0088,-0.0041 0.019,-0.0022 0.02765,-0.0065 l 12,-6 C 59.786078,51.225138 60.000081,50.878811 60,50.5 v -26 C 59.9977,24.381366 59.97405,24.264117 59.93018,24.15387 59.9187,24.12311 59.90558,24.09521 59.8913,24.066 Z M 13,2.61816 56.76367,24.5 47,29.38184 3.23584,7.5 Z m -11,6.5 44,22 v 23.76368 l -44,-22 z M 48,54.88184 V 31.11816 l 10,-5 v 23.76368 z"
         id="path6346"
         inkscape:connector-curvature="0" />
      <path
         d="m 44.49658,32.488 c -4.38e-4,-0.07335 -0.01729,-0.145678 -0.04932,-0.21167 -0.0043,-0.0085 -0.01221,-0.01349 -0.01691,-0.02167 -0.01094,-0.01593 -0.02286,-0.03116 -0.03571,-0.04559 -0.03814,-0.05232 -0.0864,-0.09644 -0.14191,-0.12976 -0.0116,-0.007 -0.01691,-0.02045 -0.02911,-0.02661 l -19,-9.5 -0.01489,-0.004 C 25.14525,22.52926 25.080553,22.51401 25.01507,22.50305 L 25,22.5 c -0.0241,0.0029 -0.04793,0.0077 -0.07129,0.01434 -0.03521,0.0033 -0.06998,0.01029 -0.1037,0.02094 -0.0564,0.02891 -0.110444,0.06222 -0.16162,0.09961 -0.02552,0.02606 -0.04806,0.05489 -0.0672,0.08594 -0.01586,0.0174 -0.03038,0.03596 -0.04346,0.05554 l -0.004,0.01489 c -0.01175,0.03091 -0.02042,0.0629 -0.02588,0.09552 -0.0099,0.032 -0.01658,0.06492 -0.01984,0.09827 L 24.5,23 v 9 l 0.003,0.015 c 0.0088,0.05388 0.01965,0.107427 0.03241,0.16052 0.0043,0.01135 0.0082,0.02228 0.01331,0.03326 l 0.004,0.01489 c 0.0053,0.01044 0.01648,0.01434 0.02234,0.02423 l 0.0071,0.0105 c 0.01501,0.02794 0.03277,0.05432 0.053,0.07874 0.02454,0.0238 0.05147,0.04499 0.08038,0.06323 0.01317,0.01134 0.02696,0.02194 0.04132,0.03174 0.0074,0.0041 0.01178,0.01135 0.01947,0.0152 l 8,4 0.01373,0.0032 c 0.06451,0.03107 0.135007,0.04773 0.2066,0.04883 l 0.0028,6.7e-4 1.8e-4,-6e-5 L 33,36.5 c 0.08196,-0.0018 0.162159,-0.02418 0.23315,-0.06519 0.01783,-0.01035 0.03496,-0.02187 0.05127,-0.03448 0.05719,-0.0402 0.105099,-0.09219 0.1405,-0.15247 0.0059,-0.0099 0.01709,-0.01379 0.02234,-0.02423 l 0.004,-0.01489 c 0.01175,-0.03091 0.02042,-0.06291 0.02588,-0.09552 0.0099,-0.03198 0.01659,-0.06489 0.01986,-0.09822 L 33.5,36 v -8.19092 l 1,0.5 V 37 l 0.003,0.015 c 0.0088,0.05388 0.01965,0.107427 0.03241,0.16052 0.0043,0.01135 0.0082,0.02228 0.01331,0.03326 l 0.004,0.01489 c 0.0052,0.01044 0.01648,0.01434 0.02234,0.02423 l 0.0071,0.0105 c 0.01501,0.02794 0.03277,0.05432 0.053,0.07874 0.02454,0.0238 0.05147,0.04499 0.08038,0.06323 0.01317,0.01134 0.02696,0.02194 0.04132,0.03174 0.0074,0.0041 0.01178,0.01135 0.01947,0.0152 l 9,4.5 0.01373,0.0032 c 0.06451,0.03107 0.135007,0.04773 0.2066,0.04883 l 0.0029,6.3e-4 1.8e-4,-6e-5 L 44,42 c 0.08196,-0.0018 0.162159,-0.02418 0.23315,-0.06519 0.01783,-0.01035 0.03496,-0.02187 0.05127,-0.03448 0.05719,-0.0402 0.105099,-0.09219 0.1405,-0.15247 0.0059,-0.0099 0.01709,-0.01379 0.02234,-0.02423 l 0.004,-0.01489 c 0.01175,-0.03091 0.02042,-0.06291 0.02588,-0.09552 0.0099,-0.03198 0.01659,-0.06489 0.01986,-0.09822 L 44.5,41.5 v -9 z M 43.5,40.69092 36.11816,37 43.5,33.30908 Z m -11,-13 -7,3.5 v -7.38184 l 7,3.5 z m 0,1.11816 v 6.38184 L 26.11816,32 Z M 42.88184,32.5 35.5,36.19092 v -7.38184 z"
         id="path6348"
         inkscape:connector-curvature="0" />
      <path
         d="m 44.4646,43.32452 c -0.02894,-0.05643 -0.06231,-0.110469 -0.09979,-0.16162 -0.02577,-0.02507 -0.0542,-0.04725 -0.08478,-0.06616 -0.01764,-0.01609 -0.0365,-0.0308 -0.0564,-0.044 l -9,-4.5 -0.01477,-0.004 c -0.0325,-0.01253 -0.06624,-0.02158 -0.10065,-0.027 -0.02984,-0.009 -0.06045,-0.01513 -0.09143,-0.01843 C 35.01086,38.50317 35.006,38.5 35,38.5 c -0.0264,0.003 -0.05249,0.0083 -0.078,0.01575 -0.03248,0.0033 -0.06455,0.0097 -0.09576,0.01929 -0.03125,0.01343 -0.06097,0.03015 -0.08868,0.04987 -0.02615,0.01424 -0.05089,0.03091 -0.07391,0.0498 -0.02572,0.02625 -0.04845,0.05528 -0.06775,0.08655 -0.01573,0.01727 -0.03016,0.03569 -0.04315,0.05511 l -0.004,0.01489 c -0.01175,0.03091 -0.02042,0.06291 -0.02588,0.09552 -0.0099,0.032 -0.01657,0.06492 -0.01984,0.09827 L 34.5,39 v 8 l 0.003,0.015 c 0.0088,0.05388 0.01965,0.107427 0.03241,0.16052 0.0043,0.01135 0.0082,0.02228 0.01331,0.03326 l 0.004,0.01489 c 0.0052,0.01044 0.01648,0.01434 0.02234,0.02423 l 0.0071,0.0105 c 0.01501,0.02794 0.03277,0.05432 0.053,0.07874 0.02454,0.0238 0.05147,0.04499 0.08038,0.06323 0.01317,0.01134 0.02696,0.02194 0.04132,0.03174 0.0074,0.0041 0.01178,0.01135 0.01947,0.0152 l 9,4.5 c 0.155025,0.07743 0.339082,0.06911 0.486485,-0.022 C 44.410197,51.834197 44.499941,51.673286 44.5,51.5 v -8 c -0.0029,-0.02351 -0.0076,-0.04677 -0.014,-0.06958 -0.0032,-0.03598 -0.01039,-0.07149 -0.0214,-0.1059 z M 35.5,39.80908 41.88184,43 35.5,46.19092 Z M 36.11816,47 43,43.55908 l 0.5,0.25 v 6.88184 z"
         id="path6350"
         inkscape:connector-curvature="0" />
      <path
         d="m 23.4646,32.82452 c -0.02894,-0.05643 -0.06231,-0.110469 -0.09979,-0.16162 -0.02577,-0.02507 -0.0542,-0.04725 -0.08478,-0.06616 -0.01764,-0.01609 -0.0365,-0.0308 -0.0564,-0.044 l -9,-4.5 -0.01489,-0.004 C 14.17779,28.03691 14.14573,28.02822 14.11304,28.0228 14.08097,28.0129 14.04799,28.00626 14.01459,28.00296 L 14,28 c -0.02278,0.0029 -0.04532,0.0074 -0.06744,0.01361 -0.03698,0.0032 -0.07349,0.01055 -0.10883,0.02191 -0.05618,0.02899 -0.109998,0.06236 -0.16095,0.09979 -0.02495,0.02565 -0.04703,0.05393 -0.06586,0.08435 -0.01615,0.01775 -0.03092,0.0367 -0.04419,0.0567 l -0.004,0.01489 c -0.01175,0.03091 -0.02042,0.0629 -0.02588,0.09552 -0.0099,0.032 -0.01657,0.06493 -0.01984,0.09827 L 13.5,28.5 v 8 l 0.003,0.015 c 0.0088,0.05388 0.01965,0.107427 0.03241,0.16052 0.0043,0.01135 0.0082,0.02228 0.01331,0.03326 l 0.004,0.01489 c 0.0052,0.01044 0.01648,0.01434 0.02234,0.02423 l 0.0071,0.0105 c 0.01501,0.02794 0.03277,0.05432 0.053,0.07874 0.02454,0.0238 0.05147,0.04499 0.08038,0.06323 0.01317,0.01134 0.02696,0.02194 0.04132,0.03174 0.0074,0.0041 0.01178,0.01135 0.01947,0.0152 l 9,4.5 0.01373,0.0032 c 0.06451,0.03107 0.135007,0.04773 0.2066,0.04883 l 0.0028,6.7e-4 1.8e-4,-6e-5 L 23,41.5 c 0.08197,-0.0018 0.162159,-0.02418 0.23315,-0.06519 0.01783,-0.01035 0.03496,-0.02187 0.05127,-0.03448 0.05719,-0.0402 0.105099,-0.09219 0.1405,-0.15247 0.0059,-0.0099 0.01709,-0.01379 0.02234,-0.02423 l 0.004,-0.01489 c 0.01175,-0.03091 0.02042,-0.06291 0.02588,-0.09552 0.0099,-0.03198 0.01659,-0.06489 0.01986,-0.09822 L 23.5,41 v -8 c -0.0029,-0.02351 -0.0076,-0.04677 -0.014,-0.06958 -0.0032,-0.03598 -0.01039,-0.07149 -0.0214,-0.1059 z M 14.5,29.30908 20.88184,32.5 14.5,35.69092 Z m 7.5,3.75 0.5,0.25 v 6.88184 L 15.11816,36.5 Z"
         id="path6352"
         inkscape:connector-curvature="0" />
      <path
         d="m 12.48315,27.40887 c -0.0037,-0.02861 -0.0099,-0.05683 -0.01855,-0.08435 -0.0043,-0.01135 -0.0082,-0.02228 -0.01331,-0.03326 l -0.004,-0.01489 c -0.0298,-0.03609 -0.05734,-0.07398 -0.08246,-0.11346 -0.0095,-0.01019 -0.01892,-0.01923 -0.02911,-0.02863 -0.02004,-0.01633 -0.04137,-0.031 -0.06378,-0.04388 -0.01525,-0.01359 -0.03138,-0.02618 -0.04828,-0.03766 l -8,-4 -0.01483,-0.004 C 4.176984,23.03656 4.143975,23.02766 4.11032,23.02219 4.079663,23.01289 4.048186,23.00656 4.01632,23.00327 L 4,23 c -0.025622,0.003 -0.050953,0.0081 -0.07574,0.01526 -0.033342,0.0033 -0.066267,0.0099 -0.09827,0.01984 -0.030994,0.01336 -0.06049,0.02995 -0.088,0.0495 -0.026268,0.01435 -0.051136,0.03113 -0.07428,0.05011 -0.025758,0.02626 -0.048503,0.05531 -0.06781,0.08661 -0.015721,0.01726 -0.030143,0.03566 -0.04315,0.05505 l -0.004,0.01489 C 3.536996,23.32217 3.528327,23.35416 3.52287,23.38678 3.51294,23.41876 3.506278,23.45167 3.503,23.485 L 3.5,23.5 v 8 l 0.00342,0.012 c 4.382e-4,0.07335 0.01729,0.145678 0.04932,0.21167 0.00366,0.0073 0.0116,0.0099 0.01556,0.01691 0.026928,0.03959 0.059569,0.07497 0.09686,0.105 0.027907,0.03334 0.060134,0.06282 0.09583,0.08765 0.00629,0.0035 0.00891,0.0108 0.01538,0.014 l 8,4 0.01373,0.0032 c 0.06451,0.03107 0.135007,0.04773 0.2066,0.04883 l 0.0028,7.1e-4 1.8e-4,-6e-5 L 12,36 c 0.08197,-0.0018 0.162159,-0.02418 0.23315,-0.06519 0.01783,-0.01035 0.03496,-0.02187 0.05127,-0.03448 0.05719,-0.0402 0.105099,-0.09219 0.1405,-0.15247 0.0059,-0.0099 0.01709,-0.01379 0.02234,-0.02423 l 0.004,-0.01489 c 0.01175,-0.03091 0.02042,-0.06291 0.02588,-0.09552 0.0099,-0.03198 0.01659,-0.06489 0.01986,-0.09822 L 12.5,35.5 v -8 L 12.497,27.485 C 12.4944,27.4593 12.4897,27.43385 12.48315,27.40887 Z M 4.5,24.30908 10.88184,27.5 4.5,30.69092 Z m 7,4 v 6.38184 L 5.11816,31.5 Z"
         id="path6354"
         inkscape:connector-curvature="0" />
      <path
         d="m 23.48315,21.90887 c -0.0037,-0.02861 -0.0099,-0.05683 -0.01855,-0.08435 -0.0043,-0.01135 -0.0082,-0.02228 -0.01331,-0.03326 l -0.004,-0.01489 c -0.01083,-0.01569 -0.02259,-0.03072 -0.03522,-0.045 -0.0137,-0.02415 -0.02951,-0.04705 -0.04724,-0.06842 -0.0092,-0.0099 -0.01831,-0.01892 -0.02826,-0.02808 -0.02105,-0.01738 -0.04355,-0.03292 -0.06726,-0.04645 -0.01447,-0.0128 -0.02972,-0.02471 -0.04565,-0.03564 l -19,-9.5 C 4.0686516,11.975372 3.8846234,11.983695 3.7372357,12.07478 3.5898481,12.165866 3.500095,12.326738 3.5,12.5 v 9 l 0.003,0.015 c 0.00884,0.05388 0.019652,0.107427 0.03241,0.16052 0.00433,0.01135 0.00824,0.02228 0.01331,0.03326 l 0.004,0.01489 c 0.00525,0.01044 0.01648,0.01434 0.02234,0.02423 l 0.00708,0.0105 c 0.015012,0.02794 0.032766,0.05432 0.053,0.07874 0.024536,0.0238 0.051474,0.04499 0.08038,0.06323 0.013168,0.01135 0.026963,0.02194 0.04132,0.03174 0.00739,0.0041 0.01178,0.01135 0.01947,0.0152 l 8,4 0.01373,0.0032 c 0.06451,0.03107 0.135007,0.04773 0.2066,0.04883 l 0.0029,6.3e-4 1.8e-4,-6e-5 L 12,26 c 0.08197,-0.0018 0.162159,-0.02418 0.23315,-0.06519 0.01783,-0.01035 0.03496,-0.02187 0.05127,-0.03448 0.05719,-0.0402 0.105099,-0.09219 0.1405,-0.15247 0.0059,-0.0099 0.01709,-0.01379 0.02234,-0.02423 l 0.004,-0.01489 c 0.01175,-0.03091 0.02042,-0.0629 0.02588,-0.09552 0.0099,-0.03198 0.01659,-0.06489 0.01986,-0.09822 L 12.5,25.5 v -8.19092 l 1,0.5 V 26.5 l 0.003,0.015 c 0.0088,0.05388 0.01965,0.107427 0.03241,0.16052 0.0043,0.01135 0.0082,0.02228 0.01331,0.03326 l 0.004,0.01489 c 0.0052,0.01044 0.01648,0.01434 0.02234,0.02423 l 0.0071,0.0105 c 0.01501,0.02794 0.03277,0.05432 0.053,0.07874 0.02454,0.0238 0.05147,0.04499 0.08038,0.06323 0.01317,0.01135 0.02696,0.02194 0.04132,0.03174 0.0074,0.0041 0.01178,0.01135 0.01947,0.0152 l 9,4.5 0.01373,0.0032 c 0.06451,0.03107 0.135007,0.04773 0.2066,0.04883 l 0.0028,6.7e-4 1.8e-4,-6e-5 L 23,31.5 c 0.08197,-0.0018 0.162159,-0.02418 0.23315,-0.06519 0.01783,-0.01035 0.03496,-0.02187 0.05127,-0.03448 0.05719,-0.0402 0.105099,-0.09219 0.1405,-0.15247 0.0059,-0.0099 0.01709,-0.01379 0.02234,-0.02423 l 0.004,-0.01489 c 0.01175,-0.03091 0.02042,-0.0629 0.02588,-0.09552 0.0099,-0.03198 0.01659,-0.06489 0.01986,-0.09822 L 23.5,31 V 22 L 23.497,21.985 C 23.4944,21.9593 23.4897,21.93385 23.48315,21.90887 Z M 22.5,30.19092 15.11816,26.5 22.5,22.80908 Z m -11,-5.5 L 5.11816,21.5 11.5,18.30908 Z m 0,-7.88184 v 0.38184 l -7,3.5 V 13.30908 Z M 21.88184,22 14.5,25.69092 v -7.38184 z"
         id="path6356"
         inkscape:connector-curvature="0" />
      <path
         d="m 33.48315,37.90887 c -0.0037,-0.02861 -0.0099,-0.05683 -0.01855,-0.08435 -0.0043,-0.01135 -0.0082,-0.02228 -0.01331,-0.03326 l -0.004,-0.01489 c -0.01082,-0.01572 -0.0226,-0.03075 -0.03528,-0.045 -0.01372,-0.02413 -0.02951,-0.04702 -0.04718,-0.06842 -0.0092,-0.01 -0.01825,-0.01886 -0.0282,-0.028 -0.03927,-0.02511 -0.077,-0.05254 -0.113,-0.08215 l -8,-4 -0.01483,-0.004 c -0.06328,-0.01934 -0.127751,-0.03457 -0.193,-0.04559 L 25,33.5 c -0.02512,0.003 -0.04996,0.008 -0.07428,0.015 -0.03402,0.0032 -0.0676,0.01002 -0.10022,0.0202 -0.0565,0.02891 -0.110647,0.06221 -0.16193,0.09961 -0.0257,0.02617 -0.04838,0.05514 -0.06763,0.08636 -0.01576,0.01731 -0.0302,0.03578 -0.04321,0.05524 l -0.004,0.01489 c -0.01175,0.03091 -0.02042,0.06291 -0.02588,0.09552 -0.0099,0.032 -0.01658,0.06493 -0.01984,0.09827 L 24.5,34 v 8 l 0.003,0.015 c 0.0088,0.05388 0.01965,0.107427 0.03241,0.16052 0.0043,0.01135 0.0082,0.02228 0.01331,0.03326 l 0.004,0.01489 c 0.0053,0.01044 0.01648,0.01434 0.02234,0.02423 l 0.0071,0.0105 c 0.01501,0.02794 0.03277,0.05432 0.053,0.07874 0.02454,0.0238 0.05147,0.04499 0.08038,0.06323 0.01317,0.01134 0.02696,0.02194 0.04132,0.03174 0.0074,0.0041 0.01178,0.01135 0.01947,0.0152 l 8,4 0.01373,0.0032 c 0.06451,0.03107 0.135007,0.04773 0.2066,0.04883 l 0.0028,6.7e-4 1.8e-4,-6e-5 L 33,46.5 c 0.08196,-0.0018 0.162159,-0.02418 0.23315,-0.06519 0.01783,-0.01035 0.03496,-0.02187 0.05127,-0.03448 0.05719,-0.0402 0.105099,-0.09219 0.1405,-0.15247 0.0059,-0.0099 0.01709,-0.01379 0.02234,-0.02423 l 0.004,-0.01489 c 0.01175,-0.03091 0.02042,-0.06291 0.02588,-0.09552 0.0099,-0.03198 0.01659,-0.06489 0.01986,-0.09822 L 33.5,46 V 38 L 33.497,37.985 C 33.4944,37.9593 33.4897,37.93385 33.48315,37.90887 Z M 25.5,34.80908 31.88184,38 25.5,41.19092 Z m 7,4 v 6.38184 L 26.11816,42 Z"
         id="path6358"
         inkscape:connector-curvature="0" />
    </g>
  </g>
  <!-- <text x="0" y="73" fill="#000000" font-size="5px" font-weight="bold" font-family="'Helvetica Neue', Helvetica, Arial-Unicode, Arial, Sans-serif">Created by Ben Davis</text><text x="0" y="78" fill="#000000" font-size="5px" font-weight="bold" font-family="'Helvetica Neue', Helvetica, Arial-Unicode, Arial, Sans-serif">from the Noun Project</text> -->
  <!-- https://thenounproject.com/search/?q=pigeon%20hole&i=1332809 -->
</svg>
