<?xml version="1.0" encoding="UTF-8" standalone="no"?>
<svg
   xmlns:dc="http://purl.org/dc/elements/1.1/"
   xmlns:cc="http://creativecommons.org/ns#"
   xmlns:rdf="http://www.w3.org/1999/02/22-rdf-syntax-ns#"
   xmlns:svg="http://www.w3.org/2000/svg"
   xmlns="http://www.w3.org/2000/svg"
   xmlns:sodipodi="http://sodipodi.sourceforge.net/DTD/sodipodi-0.dtd"
   xmlns:inkscape="http://www.inkscape.org/namespaces/inkscape"
   version="1.1"
   x="0px"
   y="0px"
   viewBox="0 0 53.100472 60"
   enable-background="new 0 0 91 91"
   xml:space="preserve"
   id="svg5007"
   sodipodi:docname="noun_844785_cc.svg"
   inkscape:version="0.92.2 5c3e80d, 2017-08-06">
  <metadata
     id="metadata5013"><rdf:RDF><cc:Work
         rdf:about=""><dc:format>image/svg+xml</dc:format><dc:type
           rdf:resource="http://purl.org/dc/dcmitype/StillImage" /><dc:title></dc:title></cc:Work></rdf:RDF></metadata><defs
     id="defs5011" /><sodipodi:namedview
     pagecolor="#ffffff"
     bordercolor="#666666"
     borderopacity="1"
     objecttolerance="10"
     gridtolerance="10"
     guidetolerance="10"
     inkscape:pageopacity="0"
     inkscape:pageshadow="2"
     inkscape:window-width="1438"
     inkscape:window-height="1268"
     id="namedview5009"
     showgrid="false"
     inkscape:zoom="2.0747253"
     inkscape:cx="-161.20134"
     inkscape:cy="28.693001"
     inkscape:window-x="0"
     inkscape:window-y="20"
     inkscape:window-maximized="0"
     inkscape:current-layer="svg5007"
     fit-margin-top="0"
     fit-margin-left="0"
     fit-margin-right="0"
     fit-margin-bottom="0" /><g
     id="g5005"
     transform="matrix(0.73257036,0,0,0.73257036,-6.6552668,-2.6845805)"><path
       d="m 10.928,61.555 c 1.425,0.113 2.845,0.162 4.26,0.162 5.332,0 10.582,-0.707 15.695,-1.398 4.237,-0.571 8.268,-1.12 12.133,-1.231 0.553,1.16 1.243,2.363 2.103,3.649 0.941,1.41 2.09,2.345 3.204,3.06 -2.204,2.963 -2.564,2.984 -6.786,3.147 -0.789,0.033 -1.578,-0.036 -2.342,-0.104 -2.73,-0.238 -6.465,-0.561 -8.243,5.297 -0.042,0.076 -0.142,0.197 -0.427,0.318 -1.465,0.617 -4.838,0.094 -6.948,-0.764 -1.025,-0.42 -2.191,0.076 -2.606,1.098 -0.416,1.023 0.076,2.191 1.099,2.607 1.165,0.473 3.974,1.324 6.683,1.324 1.179,0 2.339,-0.16 3.336,-0.585 1.239,-0.524 2.139,-1.411 2.601,-2.563 0.024,-0.062 0.045,-0.119 0.063,-0.183 0.839,-2.85 1.465,-2.795 4.099,-2.567 0.832,0.071 1.774,0.153 2.797,0.114 1.86,1.34 2.008,2.924 2.044,5.31 0.037,2.451 0.094,6.155 4.946,7.271 0.15,0.033 0.301,0.051 0.449,0.051 0.911,0 1.734,-0.627 1.947,-1.553 0.247,-1.076 -0.426,-2.149 -1.501,-2.396 -1.687,-0.39 -1.802,-0.793 -1.843,-3.437 -0.024,-1.612 -0.063,-3.754 -1.207,-5.774 2.143,-0.58 3.248,-1.802 5.285,-4.548 0.387,0.304 0.664,0.617 0.826,1.013 1.79,4.351 4.963,6.815 8.649,6.815 0.44,0 0.892,-0.034 1.347,-0.106 1.092,-0.172 1.836,-1.197 1.664,-2.287 -0.172,-1.092 -1.197,-1.83 -2.287,-1.664 -3.189,0.498 -4.929,-2.465 -5.675,-4.28 -0.899,-2.187 -2.735,-3.189 -4.354,-4.076 -1.338,-0.732 -2.602,-1.424 -3.494,-2.762 -0.311,-0.464 -0.586,-0.904 -0.846,-1.339 2.436,0.166 5.022,0.5 7.903,0.875 6.239,0.812 14.003,1.818 24.129,1.511 1.104,-0.035 1.972,-0.957 1.938,-2.062 -0.034,-1.104 -0.937,-1.974 -2.062,-1.938 -9.806,0.301 -17.077,-0.645 -23.489,-1.479 -3.783,-0.492 -7.08,-0.906 -10.288,-0.992 -0.723,-2.475 -0.703,-5.061 -0.259,-8.797 1.436,-0.297 2.899,-0.506 4.431,-0.723 4.339,-0.612 8.824,-1.246 12.923,-4.12 3.128,-2.194 5.082,-6.141 6.807,-9.623 0.828,-1.674 2.08,-4.203 2.726,-4.549 0.877,-0.375 1.367,-1.32 1.168,-2.254 C 73.329,24.089 72.493,23.452 71.544,23.439 63.819,23.546 55.347,27.54 48.075,34.322 48.731,31.492 49.18,28.299 48.874,24 50.003,22.365 54.819,14.061 44.204,4.199 43.733,3.761 43.08,3.577 42.447,3.704 41.816,3.831 41.285,4.255 41.019,4.842 40.526,5.935 36.3,15.682 39.804,21.323 c 0.809,1.301 2.342,2.807 5.114,3.415 0.306,5.032 -0.559,8.186 -1.543,11.767 -0.44,1.602 -0.891,3.246 -1.252,5.118 -0.146,-0.334 -0.286,-0.671 -0.429,-1.014 -0.988,-2.377 -2.107,-5.071 -5.58,-7.159 -2.226,-1.34 -4.68,-1.844 -7.052,-2.331 -1.938,-0.398 -3.77,-0.774 -5.328,-1.573 -0.738,-0.379 -1.641,-0.262 -2.259,0.301 -0.617,0.563 -0.82,1.447 -0.51,2.223 0.675,1.686 1.003,3.578 1.351,5.582 0.623,3.598 1.268,7.316 4.033,10.217 2.914,3.057 7.911,4.879 12.167,4.879 0.952,0 1.862,-0.099 2.709,-0.287 0.071,0.91 0.208,1.799 0.41,2.685 -3.653,0.188 -7.392,0.682 -11.288,1.209 -6.26,0.844 -12.729,1.717 -19.104,1.211 -1.115,-0.092 -2.063,0.733 -2.152,1.836 -0.086,1.102 0.735,2.065 1.837,2.153 z M 67.077,28.013 c -0.334,0.638 -0.673,1.322 -1.029,2.041 -1.512,3.055 -3.226,6.516 -5.519,8.124 -3.312,2.321 -7.137,2.862 -11.187,3.433 -1.063,0.15 -2.146,0.307 -3.233,0.494 C 46.13,42 46.154,41.9 46.176,41.794 46.471,41.679 46.743,41.5 46.963,41.243 52.844,34.382 60.217,29.597 67.077,28.013 Z M 43.203,19.217 c -1.456,-2.339 -0.583,-6.742 0.4,-9.868 4.281,5.096 3.551,9.107 2.711,11.078 -0.295,0.061 -0.562,0.182 -0.79,0.354 -1.057,-0.276 -1.836,-0.783 -2.321,-1.564 z M 29.244,45.111 c -1.927,-2.022 -2.441,-4.994 -2.987,-8.14 -0.142,-0.817 -0.284,-1.644 -0.455,-2.472 0.821,0.205 1.644,0.373 2.455,0.541 2.138,0.438 4.156,0.854 5.796,1.84 2.345,1.41 3.018,3.027 3.948,5.267 0.609,1.466 1.3,3.126 2.567,4.822 0.201,0.271 0.461,0.465 0.746,0.602 -0.021,0.234 -0.039,0.468 -0.056,0.697 -2.692,1.248 -9.057,-0.057 -12.014,-3.157 z"
       id="path5003"
       inkscape:connector-curvature="0"
       style="fill:#f5e8c8" /></g><!-- <text x="0" y="106" fill="#000000" font-size="5px" font-weight="bold" font-family="'Helvetica Neue', Helvetica, Arial-Unicode, Arial, Sans-serif">Created by BomSymbols</text> --><!-- <text x="0" y="111" fill="#000000" font-size="5px" font-weight="bold" font-family="'Helvetica Neue', Helvetica, Arial-Unicode, Arial, Sans-serif">from the Noun Project</text> --><!-- https://thenounproject.com/search/?q=tree%20roots&i=844785 --></svg>
