<?xml version="1.0" encoding="utf-8"?>
<!-- Generated by graphviz version 2.38.0 (20140413.2041)
 -->
<!-- Title: catalan Pages: 1 -->
<svg xmlns="http://www.w3.org/2000/svg" xmlns:xlink="http://www.w3.org/1999/xlink" viewBox="0.00 0.00 441.00 260.00">
<g id="graph0" class="graph" transform="scale(1 1) rotate(0) translate(4 256)">
<title>catalan</title>
<polygon fill="white" stroke="none" points="-4,4 -4,-256 437,-256 437,4 -4,4"/>
<!-- 0 -->
<g id="node1" class="node"><title>0</title>
<ellipse fill="none" stroke="black" cx="27" cy="-234" rx="27" ry="18"/>
<text text-anchor="middle" x="27" y="-230.3" font-family="Times,serif" font-size="14.00">0</text>
</g>
<!-- 4 -->
<g id="node2" class="node"><title>4</title>
<ellipse fill="none" stroke="black" cx="99" cy="-162" rx="27" ry="18"/>
<text text-anchor="middle" x="99" y="-158.3" font-family="Times,serif" font-size="14.00">4</text>
</g>
<!-- 0&#45;&gt;4 -->
<g id="edge1" class="edge"><title>0-&gt;4</title>
<path fill="none" stroke="black" d="M41.5703,-218.834C51.7499,-208.938 65.5239,-195.546 77.0306,-184.359"/>
<polygon fill="black" stroke="black" points="79.4741,-186.865 84.2043,-177.385 74.5945,-181.846 79.4741,-186.865"/>
</g>
<!-- 6 -->
<g id="node6" class="node"><title>6</title>
<ellipse fill="none" stroke="black" cx="80" cy="-90" rx="27" ry="18"/>
<text text-anchor="middle" x="80" y="-86.3" font-family="Times,serif" font-size="14.00">6</text>
</g>
<!-- 4&#45;&gt;6 -->
<g id="edge5" class="edge"><title>4-&gt;6</title>
<path fill="none" stroke="black" d="M94.4006,-144.055C92.2535,-136.145 89.6465,-126.54 87.2439,-117.688"/>
<polygon fill="black" stroke="black" points="90.5544,-116.523 84.557,-107.789 83.7988,-118.357 90.5544,-116.523"/>
</g>
<!-- 1 -->
<g id="node3" class="node"><title>1</title>
<ellipse fill="none" stroke="black" cx="190" cy="-162" rx="27" ry="18"/>
<text text-anchor="middle" x="190" y="-158.3" font-family="Times,serif" font-size="14.00">1</text>
</g>
<!-- 2 -->
<g id="node4" class="node"><title>2</title>
<ellipse fill="none" stroke="black" cx="190" cy="-90" rx="27" ry="18"/>
<text text-anchor="middle" x="190" y="-86.3" font-family="Times,serif" font-size="14.00">2</text>
</g>
<!-- 1&#45;&gt;2 -->
<g id="edge2" class="edge"><title>1-&gt;2</title>
<path fill="none" stroke="black" d="M190,-143.697C190,-135.983 190,-126.712 190,-118.112"/>
<polygon fill="black" stroke="black" points="193.5,-118.104 190,-108.104 186.5,-118.104 193.5,-118.104"/>
</g>
<!-- 3 -->
<g id="node5" class="node"><title>3</title>
<ellipse fill="none" stroke="black" cx="226" cy="-18" rx="27" ry="18"/>
<text text-anchor="middle" x="226" y="-14.3" font-family="Times,serif" font-size="14.00">3</text>
</g>
<!-- 2&#45;&gt;3 -->
<g id="edge3" class="edge"><title>2-&gt;3</title>
<path fill="none" stroke="black" d="M198.35,-72.7646C202.712,-64.2831 208.147,-53.7144 213.041,-44.1974"/>
<polygon fill="black" stroke="black" points="216.235,-45.6409 217.696,-35.1473 210.01,-42.4395 216.235,-45.6409"/>
</g>
<!-- 3&#45;&gt;4 -->
<g id="edge4" class="edge"><title>3-&gt;4</title>
<path fill="none" stroke="black" d="M206.369,-30.5201C190.912,-40.2404 169.467,-55.2261 154,-72 136.385,-91.1036 121.281,-116.65 111.383,-135.473"/>
<polygon fill="black" stroke="black" points="108.135,-134.136 106.696,-144.633 114.367,-137.325 108.135,-134.136"/>
</g>
<!-- 6&#45;&gt;3 -->
<g id="edge7" class="edge"><title>6-&gt;3</title>
<path fill="none" stroke="black" d="M101.23,-78.8214C126.099,-66.8978 167.484,-47.0557 195.717,-33.5192"/>
<polygon fill="black" stroke="black" points="197.241,-36.6702 204.745,-29.1909 194.214,-30.3582 197.241,-36.6702"/>
</g>
<!-- 5 -->
<g id="node7" class="node"><title>5</title>
<ellipse fill="none" stroke="black" cx="99" cy="-234" rx="27" ry="18"/>
<text text-anchor="middle" x="99" y="-230.3" font-family="Times,serif" font-size="14.00">5</text>
</g>
<!-- 5&#45;&gt;4 -->
<g id="edge6" class="edge"><title>5-&gt;4</title>
<path fill="none" stroke="black" d="M99,-215.697C99,-207.983 99,-198.712 99,-190.112"/>
<polygon fill="black" stroke="black" points="102.5,-190.104 99,-180.104 95.5001,-190.104 102.5,-190.104"/>
</g>
<!-- 7 -->
<g id="node8" class="node"><title>7</title>
<ellipse fill="none" stroke="black" cx="262" cy="-90" rx="27" ry="18"/>
<text text-anchor="middle" x="262" y="-86.3" font-family="Times,serif" font-size="14.00">7</text>
</g>
<!-- 7&#45;&gt;3 -->
<g id="edge8" class="edge"><title>7-&gt;3</title>
<path fill="none" stroke="black" d="M253.65,-72.7646C249.288,-64.2831 243.853,-53.7144 238.959,-44.1974"/>
<polygon fill="black" stroke="black" points="241.99,-42.4395 234.304,-35.1473 235.765,-45.6409 241.99,-42.4395"/>
</g>
<!-- 8 -->
<g id="node9" class="node"><title>8</title>
<ellipse fill="none" stroke="black" cx="171" cy="-234" rx="27" ry="18"/>
<text text-anchor="middle" x="171" y="-230.3" font-family="Times,serif" font-size="14.00">8</text>
</g>
<!-- 8&#45;&gt;4 -->
<g id="edge9" class="edge"><title>8-&gt;4</title>
<path fill="none" stroke="black" d="M156.43,-218.834C146.25,-208.938 132.476,-195.546 120.969,-184.359"/>
<polygon fill="black" stroke="black" points="123.405,-181.846 113.796,-177.385 118.526,-186.865 123.405,-181.846"/>
</g>
<!-- 9 -->
<g id="node10" class="node"><title>9</title>
<ellipse fill="none" stroke="black" cx="334" cy="-90" rx="27" ry="18"/>
<text text-anchor="middle" x="334" y="-86.3" font-family="Times,serif" font-size="14.00">9</text>
</g>
<!-- 9&#45;&gt;3 -->
<g id="edge10" class="edge"><title>9-&gt;3</title>
<path fill="none" stroke="black" d="M315.188,-76.8069C297.998,-65.6653 272.382,-49.0622 253.007,-36.5043"/>
<polygon fill="black" stroke="black" points="254.892,-33.5553 244.597,-31.0533 251.084,-39.4294 254.892,-33.5553"/>
</g>
<!-- 10 -->
<g id="node11" class="node"><title>10</title>
<ellipse fill="none" stroke="black" cx="406" cy="-90" rx="27" ry="18"/>
<text text-anchor="middle" x="406" y="-86.3" font-family="Times,serif" font-size="14.00">10</text>
</g>
<!-- 10&#45;&gt;3 -->
<g id="edge11" class="edge"><title>10-&gt;3</title>
<path fill="none" stroke="black" d="M384.82,-78.6171C379.986,-76.354 374.845,-74.0307 370,-72 332.639,-56.3392 288.852,-40.5823 259.457,-30.3697"/>
<polygon fill="black" stroke="black" points="260.289,-26.9541 249.694,-26.9978 258.003,-33.5706 260.289,-26.9541"/>
</g>
</g>
</svg>
