<?xml version="1.0" encoding="utf-8"?>
<!-- Generated by graphviz version 2.38.0 (20140413.2041)
 -->
<!-- Title: danish Pages: 1 -->
<svg xmlns="http://www.w3.org/2000/svg" xmlns:xlink="http://www.w3.org/1999/xlink" viewBox="0.00 0.00 566.00 116.00">
<g id="graph0" class="graph" transform="scale(1 1) rotate(0) translate(4 112)">
<title>danish</title>
<polygon fill="white" stroke="none" points="-4,4 -4,-112 562,-112 562,4 -4,4"/>
<!-- 0 -->
<g id="node1" class="node"><title>0</title>
<ellipse fill="none" stroke="black" cx="27" cy="-90" rx="27" ry="18"/>
<text text-anchor="middle" x="27" y="-86.3" font-family="Times,serif" font-size="14.00">0</text>
</g>
<!-- 3 -->
<g id="node2" class="node"><title>3</title>
<ellipse fill="none" stroke="black" cx="99" cy="-18" rx="27" ry="18"/>
<text text-anchor="middle" x="99" y="-14.3" font-family="Times,serif" font-size="14.00">3</text>
</g>
<!-- 0&#45;&gt;3 -->
<g id="edge1" class="edge"><title>0-&gt;3</title>
<path fill="none" stroke="black" d="M41.5703,-74.8345C51.7499,-64.9376 65.5239,-51.5462 77.0306,-40.3591"/>
<polygon fill="black" stroke="black" points="79.4741,-42.865 84.2043,-33.3847 74.5945,-37.8461 79.4741,-42.865"/>
</g>
<!-- 3&#45;&gt;3 -->
<g id="edge4" class="edge"><title>3-&gt;3</title>
<path fill="none" stroke="black" d="M118.895,-30.4321C131.688,-33.6753 144,-29.5312 144,-18 144,-9.62183 137.501,-5.14331 129.039,-4.56444"/>
<polygon fill="black" stroke="black" points="128.502,-1.10045 118.895,-5.56787 129.191,-8.06645 128.502,-1.10045"/>
</g>
<!-- 1 -->
<g id="node3" class="node"><title>1</title>
<ellipse fill="none" stroke="black" cx="243" cy="-90" rx="27" ry="18"/>
<text text-anchor="middle" x="243" y="-86.3" font-family="Times,serif" font-size="14.00">1</text>
</g>
<!-- 2 -->
<g id="node4" class="node"><title>2</title>
<ellipse fill="none" stroke="black" cx="315" cy="-18" rx="27" ry="18"/>
<text text-anchor="middle" x="315" y="-14.3" font-family="Times,serif" font-size="14.00">2</text>
</g>
<!-- 1&#45;&gt;2 -->
<g id="edge2" class="edge"><title>1-&gt;2</title>
<path fill="none" stroke="black" d="M257.57,-74.8345C267.75,-64.9376 281.524,-51.5462 293.031,-40.3591"/>
<polygon fill="black" stroke="black" points="295.474,-42.865 300.204,-33.3847 290.595,-37.8461 295.474,-42.865"/>
</g>
<!-- 2&#45;&gt;2 -->
<g id="edge3" class="edge"><title>2-&gt;2</title>
<path fill="none" stroke="black" d="M334.895,-30.4321C347.688,-33.6753 360,-29.5312 360,-18 360,-9.62183 353.501,-5.14331 345.039,-4.56444"/>
<polygon fill="black" stroke="black" points="344.502,-1.10045 334.895,-5.56787 345.191,-8.06645 344.502,-1.10045"/>
</g>
<!-- 4 -->
<g id="node5" class="node"><title>4</title>
<ellipse fill="none" stroke="black" cx="495" cy="-18" rx="27" ry="18"/>
<text text-anchor="middle" x="495" y="-14.3" font-family="Times,serif" font-size="14.00">4</text>
</g>
<!-- 4&#45;&gt;4 -->
<g id="edge5" class="edge"><title>4-&gt;4</title>
<path fill="none" stroke="black" d="M514.895,-30.4321C527.688,-33.6753 540,-29.5312 540,-18 540,-9.62183 533.501,-5.14331 525.039,-4.56444"/>
<polygon fill="black" stroke="black" points="524.502,-1.10045 514.895,-5.56787 525.191,-8.06645 524.502,-1.10045"/>
</g>
<!-- 5 -->
<g id="node6" class="node"><title>5</title>
<ellipse fill="none" stroke="black" cx="99" cy="-90" rx="27" ry="18"/>
<text text-anchor="middle" x="99" y="-86.3" font-family="Times,serif" font-size="14.00">5</text>
</g>
<!-- 5&#45;&gt;3 -->
<g id="edge6" class="edge"><title>5-&gt;3</title>
<path fill="none" stroke="black" d="M99,-71.6966C99,-63.9827 99,-54.7125 99,-46.1124"/>
<polygon fill="black" stroke="black" points="102.5,-46.1043 99,-36.1043 95.5001,-46.1044 102.5,-46.1043"/>
</g>
<!-- 6 -->
<g id="node7" class="node"><title>6</title>
<ellipse fill="none" stroke="black" cx="459" cy="-90" rx="27" ry="18"/>
<text text-anchor="middle" x="459" y="-86.3" font-family="Times,serif" font-size="14.00">6</text>
</g>
<!-- 6&#45;&gt;4 -->
<g id="edge7" class="edge"><title>6-&gt;4</title>
<path fill="none" stroke="black" d="M467.35,-72.7646C471.712,-64.2831 477.147,-53.7144 482.041,-44.1974"/>
<polygon fill="black" stroke="black" points="485.235,-45.6409 486.696,-35.1473 479.01,-42.4395 485.235,-45.6409"/>
</g>
<!-- 7 -->
<g id="node8" class="node"><title>7</title>
<ellipse fill="none" stroke="black" cx="171" cy="-90" rx="27" ry="18"/>
<text text-anchor="middle" x="171" y="-86.3" font-family="Times,serif" font-size="14.00">7</text>
</g>
<!-- 7&#45;&gt;3 -->
<g id="edge8" class="edge"><title>7-&gt;3</title>
<path fill="none" stroke="black" d="M156.43,-74.8345C146.25,-64.9376 132.476,-51.5462 120.969,-40.3591"/>
<polygon fill="black" stroke="black" points="123.405,-37.8461 113.796,-33.3847 118.526,-42.865 123.405,-37.8461"/>
</g>
<!-- 8 -->
<g id="node9" class="node"><title>8</title>
<ellipse fill="none" stroke="black" cx="531" cy="-90" rx="27" ry="18"/>
<text text-anchor="middle" x="531" y="-86.3" font-family="Times,serif" font-size="14.00">8</text>
</g>
<!-- 8&#45;&gt;4 -->
<g id="edge9" class="edge"><title>8-&gt;4</title>
<path fill="none" stroke="black" d="M522.65,-72.7646C518.288,-64.2831 512.853,-53.7144 507.959,-44.1974"/>
<polygon fill="black" stroke="black" points="510.99,-42.4395 503.304,-35.1473 504.765,-45.6409 510.99,-42.4395"/>
</g>
<!-- 9 -->
<g id="node10" class="node"><title>9</title>
<ellipse fill="none" stroke="black" cx="315" cy="-90" rx="27" ry="18"/>
<text text-anchor="middle" x="315" y="-86.3" font-family="Times,serif" font-size="14.00">9</text>
</g>
<!-- 9&#45;&gt;2 -->
<g id="edge10" class="edge"><title>9-&gt;2</title>
<path fill="none" stroke="black" d="M315,-71.6966C315,-63.9827 315,-54.7125 315,-46.1124"/>
<polygon fill="black" stroke="black" points="318.5,-46.1043 315,-36.1043 311.5,-46.1044 318.5,-46.1043"/>
</g>
<!-- 10 -->
<g id="node11" class="node"><title>10</title>
<ellipse fill="none" stroke="black" cx="387" cy="-90" rx="27" ry="18"/>
<text text-anchor="middle" x="387" y="-86.3" font-family="Times,serif" font-size="14.00">10</text>
</g>
<!-- 10&#45;&gt;2 -->
<g id="edge11" class="edge"><title>10-&gt;2</title>
<path fill="none" stroke="black" d="M372.43,-74.8345C362.25,-64.9376 348.476,-51.5462 336.969,-40.3591"/>
<polygon fill="black" stroke="black" points="339.405,-37.8461 329.796,-33.3847 334.526,-42.865 339.405,-37.8461"/>
</g>
</g>
</svg>
