<?xml version="1.0" encoding="UTF-8" standalone="no"?>
<!DOCTYPE svg PUBLIC "-//W3C//DTD SVG 1.1//EN"
 "http://www.w3.org/Graphics/SVG/1.1/DTD/svg11.dtd">
<!-- Generated by graphviz version 2.38.0 (20140413.2041)
 -->
<!-- Title: gb Pages: 1 -->
<svg width="494pt" height="566pt"
 viewBox="0.00 0.00 494.15 565.74" xmlns="http://www.w3.org/2000/svg" xmlns:xlink="http://www.w3.org/1999/xlink">
<g id="graph0" class="graph" transform="scale(1 1) rotate(0) translate(4 561.74)">
<title>gb</title>
<polygon fill="white" stroke="none" points="-4,4 -4,-561.74 490.149,-561.74 490.149,4 -4,4"/>
<!-- 0 -->
<g id="node1" class="node"><title>0</title>
<ellipse fill="none" stroke="black" cx="135.075" cy="-90" rx="27" ry="18"/>
<text text-anchor="middle" x="135.075" y="-86.3" font-family="Times,serif" font-size="14.00">0</text>
</g>
<!-- 4 -->
<g id="node2" class="node"><title>4</title>
<ellipse fill="none" stroke="black" cx="171.075" cy="-18" rx="27" ry="18"/>
<text text-anchor="middle" x="171.075" y="-14.3" font-family="Times,serif" font-size="14.00">4</text>
</g>
<!-- 0&#45;&gt;4 -->
<g id="edge1" class="edge"><title>0&#45;&gt;4</title>
<path fill="none" stroke="black" d="M143.424,-72.7646C147.786,-64.2831 153.222,-53.7144 158.116,-44.1974"/>
<polygon fill="black" stroke="black" points="161.309,-45.6409 162.77,-35.1473 155.084,-42.4395 161.309,-45.6409"/>
</g>
<!-- 3 -->
<g id="node3" class="node"><title>3</title>
<ellipse fill="none" stroke="black" cx="207.075" cy="-162" rx="27" ry="18"/>
<text text-anchor="middle" x="207.075" y="-158.3" font-family="Times,serif" font-size="14.00">3</text>
</g>
<!-- 5 -->
<g id="node4" class="node"><title>5</title>
<ellipse fill="none" stroke="black" cx="207.075" cy="-90" rx="27" ry="18"/>
<text text-anchor="middle" x="207.075" y="-86.3" font-family="Times,serif" font-size="14.00">5</text>
</g>
<!-- 3&#45;&gt;5 -->
<g id="edge2" class="edge"><title>3&#45;&gt;5</title>
<path fill="none" stroke="black" d="M207.075,-143.697C207.075,-135.983 207.075,-126.712 207.075,-118.112"/>
<polygon fill="black" stroke="black" points="210.575,-118.104 207.075,-108.104 203.575,-118.104 210.575,-118.104"/>
</g>
<!-- 5&#45;&gt;4 -->
<g id="edge3" class="edge"><title>5&#45;&gt;4</title>
<path fill="none" stroke="black" d="M198.725,-72.7646C194.363,-64.2831 188.928,-53.7144 184.033,-44.1974"/>
<polygon fill="black" stroke="black" points="187.065,-42.4395 179.379,-35.1473 180.84,-45.6409 187.065,-42.4395"/>
</g>
<!-- 1 -->
<g id="node5" class="node"><title>1</title>
<ellipse fill="none" stroke="black" cx="171.075" cy="-234" rx="27" ry="18"/>
<text text-anchor="middle" x="171.075" y="-230.3" font-family="Times,serif" font-size="14.00">1</text>
</g>
<!-- 1&#45;&gt;3 -->
<g id="edge4" class="edge"><title>1&#45;&gt;3</title>
<path fill="none" stroke="black" d="M179.424,-216.765C183.786,-208.283 189.222,-197.714 194.116,-188.197"/>
<polygon fill="black" stroke="black" points="197.309,-189.641 198.77,-179.147 191.084,-186.439 197.309,-189.641"/>
</g>
<!-- 6 -->
<g id="node6" class="node"><title>6</title>
<ellipse fill="none" stroke="black" cx="243.075" cy="-234" rx="27" ry="18"/>
<text text-anchor="middle" x="243.075" y="-230.3" font-family="Times,serif" font-size="14.00">6</text>
</g>
<!-- 6&#45;&gt;3 -->
<g id="edge5" class="edge"><title>6&#45;&gt;3</title>
<path fill="none" stroke="black" d="M234.725,-216.765C230.363,-208.283 224.928,-197.714 220.033,-188.197"/>
<polygon fill="black" stroke="black" points="223.065,-186.439 215.379,-179.147 216.84,-189.641 223.065,-186.439"/>
</g>
<!-- 11 -->
<g id="node7" class="node"><title>11</title>
<ellipse fill="none" stroke="black" cx="243.075" cy="-306" rx="27" ry="18"/>
<text text-anchor="middle" x="243.075" y="-302.3" font-family="Times,serif" font-size="14.00">11</text>
</g>
<!-- 11&#45;&gt;6 -->
<g id="edge6" class="edge"><title>11&#45;&gt;6</title>
<path fill="none" stroke="black" d="M243.075,-287.697C243.075,-279.983 243.075,-270.712 243.075,-262.112"/>
<polygon fill="black" stroke="black" points="246.575,-262.104 243.075,-252.104 239.575,-262.104 246.575,-262.104"/>
</g>
<!-- 23 -->
<g id="node8" class="node"><title>23</title>
<ellipse fill="none" stroke="black" cx="243.075" cy="-378" rx="27" ry="18"/>
<text text-anchor="middle" x="243.075" y="-374.3" font-family="Times,serif" font-size="14.00">23</text>
</g>
<!-- 23&#45;&gt;11 -->
<g id="edge7" class="edge"><title>23&#45;&gt;11</title>
<path fill="none" stroke="black" d="M243.075,-359.697C243.075,-351.983 243.075,-342.712 243.075,-334.112"/>
<polygon fill="black" stroke="black" points="246.575,-334.104 243.075,-324.104 239.575,-334.104 246.575,-334.104"/>
</g>
<!-- 124 -->
<g id="node9" class="node"><title>124</title>
<ellipse fill="none" stroke="black" cx="243.075" cy="-450" rx="27" ry="18"/>
<text text-anchor="middle" x="243.075" y="-446.3" font-family="Times,serif" font-size="14.00">124</text>
</g>
<!-- 124&#45;&gt;23 -->
<g id="edge8" class="edge"><title>124&#45;&gt;23</title>
<path fill="none" stroke="black" d="M243.075,-431.697C243.075,-423.983 243.075,-414.712 243.075,-406.112"/>
<polygon fill="black" stroke="black" points="246.575,-406.104 243.075,-396.104 239.575,-406.104 246.575,-406.104"/>
</g>
<!-- 113,373,373,373\nshort scale -->
<g id="node10" class="node"><title>113,373,373,373\nshort scale</title>
<ellipse fill="none" stroke="black" cx="77.0746" cy="-530.87" rx="77.1494" ry="26.7407"/>
<text text-anchor="middle" x="77.0746" y="-534.67" font-family="Times,serif" font-size="14.00">113,373,373,373</text>
<text text-anchor="middle" x="77.0746" y="-519.67" font-family="Times,serif" font-size="14.00">short scale</text>
</g>
<!-- 113,373,373,373\nshort scale&#45;&gt;124 -->
<g id="edge9" class="edge"><title>113,373,373,373\nshort scale&#45;&gt;124</title>
<path fill="none" stroke="black" d="M121.56,-508.734C150.343,-495.059 187.067,-477.61 212.572,-465.492"/>
<polygon fill="black" stroke="black" points="214.228,-468.581 221.758,-461.128 211.223,-462.258 214.228,-468.581"/>
</g>
<!-- 113323,373373\nlong scale -->
<g id="node11" class="node"><title>113323,373373\nlong scale</title>
<ellipse fill="none" stroke="black" cx="243.075" cy="-530.87" rx="71.3357" ry="26.7407"/>
<text text-anchor="middle" x="243.075" y="-534.67" font-family="Times,serif" font-size="14.00">113323,373373</text>
<text text-anchor="middle" x="243.075" y="-519.67" font-family="Times,serif" font-size="14.00">long scale</text>
</g>
<!-- 113323,373373\nlong scale&#45;&gt;124 -->
<g id="edge10" class="edge"><title>113323,373373\nlong scale&#45;&gt;124</title>
<path fill="none" stroke="black" d="M243.075,-503.607C243.075,-495.506 243.075,-486.568 243.075,-478.392"/>
<polygon fill="black" stroke="black" points="246.575,-478.22 243.075,-468.22 239.575,-478.22 246.575,-478.22"/>
</g>
<!-- 116,373,373,373\ntraditional -->
<g id="node12" class="node"><title>116,373,373,373\ntraditional</title>
<ellipse fill="none" stroke="black" cx="409.075" cy="-530.87" rx="77.1494" ry="26.7407"/>
<text text-anchor="middle" x="409.075" y="-534.67" font-family="Times,serif" font-size="14.00">116,373,373,373</text>
<text text-anchor="middle" x="409.075" y="-519.67" font-family="Times,serif" font-size="14.00">traditional</text>
</g>
<!-- 116,373,373,373\ntraditional&#45;&gt;124 -->
<g id="edge11" class="edge"><title>116,373,373,373\ntraditional&#45;&gt;124</title>
<path fill="none" stroke="black" d="M364.59,-508.734C335.806,-495.059 299.082,-477.61 273.577,-465.492"/>
<polygon fill="black" stroke="black" points="274.926,-462.258 264.391,-461.128 271.922,-468.581 274.926,-462.258"/>
</g>
</g>
</svg>
