<?xml version="1.0" encoding="UTF-8" standalone="no"?>
<!DOCTYPE svg PUBLIC "-//W3C//DTD SVG 1.1//EN"
 "http://www.w3.org/Graphics/SVG/1.1/DTD/svg11.dtd">
<!-- Generated by graphviz version 2.38.0 (20140413.2041)
 -->
<!-- Title: English_us Pages: 1 -->
<svg width="314pt" height="260pt"
 viewBox="0.00 0.00 314.00 260.00" xmlns="http://www.w3.org/2000/svg" xmlns:xlink="http://www.w3.org/1999/xlink">
<g id="graph0" class="graph" transform="scale(1 1) rotate(0) translate(4 256)">
<title>English_us</title>
<polygon fill="white" stroke="none" points="-4,4 -4,-256 310,-256 310,4 -4,4"/>
<!-- 0 -->
<g id="node1" class="node"><title>0</title>
<ellipse fill="none" stroke="black" cx="135" cy="-90" rx="27" ry="18"/>
<text text-anchor="middle" x="135" y="-86.3" font-family="Times,serif" font-size="14.00">0</text>
</g>
<!-- 4 -->
<g id="node2" class="node"><title>4</title>
<ellipse fill="none" stroke="black" cx="207" cy="-18" rx="27" ry="18"/>
<text text-anchor="middle" x="207" y="-14.3" font-family="Times,serif" font-size="14.00">4</text>
</g>
<!-- 0&#45;&gt;4 -->
<g id="edge1" class="edge"><title>0&#45;&gt;4</title>
<path fill="none" stroke="black" d="M149.57,-74.8345C159.75,-64.9376 173.524,-51.5462 185.031,-40.3591"/>
<polygon fill="black" stroke="black" points="187.474,-42.865 192.204,-33.3847 182.595,-37.8461 187.474,-42.865"/>
</g>
<!-- 4&#45;&gt;4 -->
<g id="edge5" class="edge"><title>4&#45;&gt;4</title>
<path fill="none" stroke="black" d="M226.895,-30.4321C239.688,-33.6753 252,-29.5312 252,-18 252,-9.62183 245.501,-5.14331 237.039,-4.56444"/>
<polygon fill="black" stroke="black" points="236.502,-1.10045 226.895,-5.56787 237.191,-8.06645 236.502,-1.10045"/>
</g>
<!-- 1 -->
<g id="node3" class="node"><title>1</title>
<ellipse fill="none" stroke="black" cx="27" cy="-234" rx="27" ry="18"/>
<text text-anchor="middle" x="27" y="-230.3" font-family="Times,serif" font-size="14.00">1</text>
</g>
<!-- 3 -->
<g id="node4" class="node"><title>3</title>
<ellipse fill="none" stroke="black" cx="135" cy="-162" rx="27" ry="18"/>
<text text-anchor="middle" x="135" y="-158.3" font-family="Times,serif" font-size="14.00">3</text>
</g>
<!-- 1&#45;&gt;3 -->
<g id="edge2" class="edge"><title>1&#45;&gt;3</title>
<path fill="none" stroke="black" d="M45.8122,-220.807C63.0021,-209.665 88.6184,-193.062 107.993,-180.504"/>
<polygon fill="black" stroke="black" points="109.916,-183.429 116.403,-175.053 106.108,-177.555 109.916,-183.429"/>
</g>
<!-- 5 -->
<g id="node6" class="node"><title>5</title>
<ellipse fill="none" stroke="black" cx="207" cy="-90" rx="27" ry="18"/>
<text text-anchor="middle" x="207" y="-86.3" font-family="Times,serif" font-size="14.00">5</text>
</g>
<!-- 3&#45;&gt;5 -->
<g id="edge4" class="edge"><title>3&#45;&gt;5</title>
<path fill="none" stroke="black" d="M149.57,-146.834C159.75,-136.938 173.524,-123.546 185.031,-112.359"/>
<polygon fill="black" stroke="black" points="187.474,-114.865 192.204,-105.385 182.595,-109.846 187.474,-114.865"/>
</g>
<!-- 2 -->
<g id="node5" class="node"><title>2</title>
<ellipse fill="none" stroke="black" cx="99" cy="-234" rx="27" ry="18"/>
<text text-anchor="middle" x="99" y="-230.3" font-family="Times,serif" font-size="14.00">2</text>
</g>
<!-- 2&#45;&gt;3 -->
<g id="edge3" class="edge"><title>2&#45;&gt;3</title>
<path fill="none" stroke="black" d="M107.35,-216.765C111.712,-208.283 117.147,-197.714 122.041,-188.197"/>
<polygon fill="black" stroke="black" points="125.235,-189.641 126.696,-179.147 119.01,-186.439 125.235,-189.641"/>
</g>
<!-- 5&#45;&gt;4 -->
<g id="edge6" class="edge"><title>5&#45;&gt;4</title>
<path fill="none" stroke="black" d="M207,-71.6966C207,-63.9827 207,-54.7125 207,-46.1124"/>
<polygon fill="black" stroke="black" points="210.5,-46.1043 207,-36.1043 203.5,-46.1044 210.5,-46.1043"/>
</g>
<!-- 6 -->
<g id="node7" class="node"><title>6</title>
<ellipse fill="none" stroke="black" cx="171" cy="-234" rx="27" ry="18"/>
<text text-anchor="middle" x="171" y="-230.3" font-family="Times,serif" font-size="14.00">6</text>
</g>
<!-- 6&#45;&gt;3 -->
<g id="edge7" class="edge"><title>6&#45;&gt;3</title>
<path fill="none" stroke="black" d="M162.65,-216.765C158.288,-208.283 152.853,-197.714 147.959,-188.197"/>
<polygon fill="black" stroke="black" points="150.99,-186.439 143.304,-179.147 144.765,-189.641 150.99,-186.439"/>
</g>
<!-- 7 -->
<g id="node8" class="node"><title>7</title>
<ellipse fill="none" stroke="black" cx="207" cy="-162" rx="27" ry="18"/>
<text text-anchor="middle" x="207" y="-158.3" font-family="Times,serif" font-size="14.00">7</text>
</g>
<!-- 7&#45;&gt;5 -->
<g id="edge8" class="edge"><title>7&#45;&gt;5</title>
<path fill="none" stroke="black" d="M207,-143.697C207,-135.983 207,-126.712 207,-118.112"/>
<polygon fill="black" stroke="black" points="210.5,-118.104 207,-108.104 203.5,-118.104 210.5,-118.104"/>
</g>
<!-- 8 -->
<g id="node9" class="node"><title>8</title>
<ellipse fill="none" stroke="black" cx="279" cy="-162" rx="27" ry="18"/>
<text text-anchor="middle" x="279" y="-158.3" font-family="Times,serif" font-size="14.00">8</text>
</g>
<!-- 8&#45;&gt;5 -->
<g id="edge9" class="edge"><title>8&#45;&gt;5</title>
<path fill="none" stroke="black" d="M264.43,-146.834C254.25,-136.938 240.476,-123.546 228.969,-112.359"/>
<polygon fill="black" stroke="black" points="231.405,-109.846 221.796,-105.385 226.526,-114.865 231.405,-109.846"/>
</g>
<!-- 9 -->
<g id="node10" class="node"><title>9</title>
<ellipse fill="none" stroke="black" cx="279" cy="-90" rx="27" ry="18"/>
<text text-anchor="middle" x="279" y="-86.3" font-family="Times,serif" font-size="14.00">9</text>
</g>
<!-- 9&#45;&gt;4 -->
<g id="edge10" class="edge"><title>9&#45;&gt;4</title>
<path fill="none" stroke="black" d="M264.43,-74.8345C254.25,-64.9376 240.476,-51.5462 228.969,-40.3591"/>
<polygon fill="black" stroke="black" points="231.405,-37.8461 221.796,-33.3847 226.526,-42.865 231.405,-37.8461"/>
</g>
<!-- 10 -->
<g id="node11" class="node"><title>10</title>
<ellipse fill="none" stroke="black" cx="243" cy="-234" rx="27" ry="18"/>
<text text-anchor="middle" x="243" y="-230.3" font-family="Times,serif" font-size="14.00">10</text>
</g>
<!-- 10&#45;&gt;3 -->
<g id="edge11" class="edge"><title>10&#45;&gt;3</title>
<path fill="none" stroke="black" d="M224.188,-220.807C206.998,-209.665 181.382,-193.062 162.007,-180.504"/>
<polygon fill="black" stroke="black" points="163.892,-177.555 153.597,-175.053 160.084,-183.429 163.892,-177.555"/>
</g>
</g>
</svg>
