<?xml version="1.0" encoding="UTF-8" standalone="no"?>
<!DOCTYPE svg PUBLIC "-//W3C//DTD SVG 1.1//EN"
 "http://www.w3.org/Graphics/SVG/1.1/DTD/svg11.dtd">
<!-- Generated by graphviz version 2.38.0 (20140413.2041)
 -->
<!-- Title: eur Pages: 1 -->
<svg width="698pt" height="587pt"
 viewBox="0.00 0.00 698.37 586.95" xmlns="http://www.w3.org/2000/svg" xmlns:xlink="http://www.w3.org/1999/xlink">
<g id="graph0" class="graph" transform="scale(1 1) rotate(0) translate(4 582.953)">
<title>eur</title>
<polygon fill="white" stroke="none" points="-4,4 -4,-582.953 694.375,-582.953 694.375,4 -4,4"/>
<!-- 0 -->
<g id="node1" class="node"><title>0</title>
<ellipse fill="none" stroke="black" cx="231.359" cy="-90" rx="27" ry="18"/>
<text text-anchor="middle" x="231.359" y="-86.3" font-family="Times,serif" font-size="14.00">0</text>
</g>
<!-- 4 -->
<g id="node2" class="node"><title>4</title>
<ellipse fill="none" stroke="black" cx="267.359" cy="-18" rx="27" ry="18"/>
<text text-anchor="middle" x="267.359" y="-14.3" font-family="Times,serif" font-size="14.00">4</text>
</g>
<!-- 0&#45;&gt;4 -->
<g id="edge1" class="edge"><title>0&#45;&gt;4</title>
<path fill="none" stroke="black" d="M239.709,-72.7646C244.07,-64.2831 249.506,-53.7144 254.4,-44.1974"/>
<polygon fill="black" stroke="black" points="257.594,-45.6409 259.055,-35.1473 251.369,-42.4395 257.594,-45.6409"/>
</g>
<!-- 1 -->
<g id="node3" class="node"><title>1</title>
<ellipse fill="none" stroke="black" cx="267.359" cy="-234" rx="27" ry="18"/>
<text text-anchor="middle" x="267.359" y="-230.3" font-family="Times,serif" font-size="14.00">1</text>
</g>
<!-- 3 -->
<g id="node4" class="node"><title>3</title>
<ellipse fill="none" stroke="black" cx="303.359" cy="-162" rx="27" ry="18"/>
<text text-anchor="middle" x="303.359" y="-158.3" font-family="Times,serif" font-size="14.00">3</text>
</g>
<!-- 1&#45;&gt;3 -->
<g id="edge2" class="edge"><title>1&#45;&gt;3</title>
<path fill="none" stroke="black" d="M275.709,-216.765C280.07,-208.283 285.506,-197.714 290.4,-188.197"/>
<polygon fill="black" stroke="black" points="293.594,-189.641 295.055,-179.147 287.369,-186.439 293.594,-189.641"/>
</g>
<!-- 5 -->
<g id="node8" class="node"><title>5</title>
<ellipse fill="none" stroke="black" cx="303.359" cy="-90" rx="27" ry="18"/>
<text text-anchor="middle" x="303.359" y="-86.3" font-family="Times,serif" font-size="14.00">5</text>
</g>
<!-- 3&#45;&gt;5 -->
<g id="edge5" class="edge"><title>3&#45;&gt;5</title>
<path fill="none" stroke="black" d="M303.359,-143.697C303.359,-135.983 303.359,-126.712 303.359,-118.112"/>
<polygon fill="black" stroke="black" points="306.859,-118.104 303.359,-108.104 299.859,-118.104 306.859,-118.104"/>
</g>
<!-- 11 -->
<g id="node5" class="node"><title>11</title>
<ellipse fill="none" stroke="black" cx="339.359" cy="-306" rx="27" ry="18"/>
<text text-anchor="middle" x="339.359" y="-302.3" font-family="Times,serif" font-size="14.00">11</text>
</g>
<!-- 6 -->
<g id="node6" class="node"><title>6</title>
<ellipse fill="none" stroke="black" cx="339.359" cy="-234" rx="27" ry="18"/>
<text text-anchor="middle" x="339.359" y="-230.3" font-family="Times,serif" font-size="14.00">6</text>
</g>
<!-- 11&#45;&gt;6 -->
<g id="edge3" class="edge"><title>11&#45;&gt;6</title>
<path fill="none" stroke="black" d="M339.359,-287.697C339.359,-279.983 339.359,-270.712 339.359,-262.112"/>
<polygon fill="black" stroke="black" points="342.859,-262.104 339.359,-252.104 335.859,-262.104 342.859,-262.104"/>
</g>
<!-- 6&#45;&gt;3 -->
<g id="edge8" class="edge"><title>6&#45;&gt;3</title>
<path fill="none" stroke="black" d="M331.009,-216.765C326.647,-208.283 321.212,-197.714 316.318,-188.197"/>
<polygon fill="black" stroke="black" points="319.349,-186.439 311.663,-179.147 313.124,-189.641 319.349,-186.439"/>
</g>
<!-- 23 -->
<g id="node7" class="node"><title>23</title>
<ellipse fill="none" stroke="black" cx="339.359" cy="-378" rx="27" ry="18"/>
<text text-anchor="middle" x="339.359" y="-374.3" font-family="Times,serif" font-size="14.00">23</text>
</g>
<!-- 23&#45;&gt;11 -->
<g id="edge4" class="edge"><title>23&#45;&gt;11</title>
<path fill="none" stroke="black" d="M339.359,-359.697C339.359,-351.983 339.359,-342.712 339.359,-334.112"/>
<polygon fill="black" stroke="black" points="342.859,-334.104 339.359,-324.104 335.859,-334.104 342.859,-334.104"/>
</g>
<!-- 5&#45;&gt;4 -->
<g id="edge7" class="edge"><title>5&#45;&gt;4</title>
<path fill="none" stroke="black" d="M295.009,-72.7646C290.647,-64.2831 285.212,-53.7144 280.318,-44.1974"/>
<polygon fill="black" stroke="black" points="283.349,-42.4395 275.663,-35.1473 277.124,-45.6409 283.349,-42.4395"/>
</g>
<!-- 323 -->
<g id="node9" class="node"><title>323</title>
<ellipse fill="none" stroke="black" cx="339.359" cy="-450" rx="27" ry="18"/>
<text text-anchor="middle" x="339.359" y="-446.3" font-family="Times,serif" font-size="14.00">323</text>
</g>
<!-- 323&#45;&gt;23 -->
<g id="edge6" class="edge"><title>323&#45;&gt;23</title>
<path fill="none" stroke="black" d="M339.359,-431.697C339.359,-423.983 339.359,-414.712 339.359,-406.112"/>
<polygon fill="black" stroke="black" points="342.859,-406.104 339.359,-396.104 335.859,-406.104 342.859,-406.104"/>
</g>
<!-- 1,124373,373373,\n373373,373373,373373 \nlong scale -->
<g id="node10" class="node"><title>1,124373,373373,\n373373,373373,373373 \nlong scale</title>
<ellipse fill="none" stroke="black" cx="105.359" cy="-541.477" rx="105.218" ry="37.4533"/>
<text text-anchor="middle" x="105.359" y="-552.777" font-family="Times,serif" font-size="14.00">1,124373,373373,</text>
<text text-anchor="middle" x="105.359" y="-537.777" font-family="Times,serif" font-size="14.00">373373,373373,373373 </text>
<text text-anchor="middle" x="105.359" y="-522.777" font-family="Times,serif" font-size="14.00">long scale</text>
</g>
<!-- 1,124373,373373,\n373373,373373,373373 \nlong scale&#45;&gt;323 -->
<g id="edge9" class="edge"><title>1,124373,373373,\n373373,373373,373373 \nlong scale&#45;&gt;323</title>
<path fill="none" stroke="black" d="M175.884,-513.509C219.487,-496.837 273.372,-476.232 307.063,-463.349"/>
<polygon fill="black" stroke="black" points="308.33,-466.612 316.421,-459.771 305.83,-460.074 308.33,-466.612"/>
</g>
<!-- 1,104,373,373,373,\n373,373,373,373,373,373\nshort scale -->
<g id="node11" class="node"><title>1,104,373,373,373,\n373,373,373,373,373,373\nshort scale</title>
<ellipse fill="none" stroke="black" cx="339.359" cy="-541.477" rx="111.032" ry="37.4533"/>
<text text-anchor="middle" x="339.359" y="-552.777" font-family="Times,serif" font-size="14.00">1,104,373,373,373,</text>
<text text-anchor="middle" x="339.359" y="-537.777" font-family="Times,serif" font-size="14.00">373,373,373,373,373,373</text>
<text text-anchor="middle" x="339.359" y="-522.777" font-family="Times,serif" font-size="14.00">short scale</text>
</g>
<!-- 1,104,373,373,373,\n373,373,373,373,373,373\nshort scale&#45;&gt;323 -->
<g id="edge10" class="edge"><title>1,104,373,373,373,\n373,373,373,373,373,373\nshort scale&#45;&gt;323</title>
<path fill="none" stroke="black" d="M339.359,-503.825C339.359,-495.331 339.359,-486.434 339.359,-478.416"/>
<polygon fill="black" stroke="black" points="342.859,-478.146 339.359,-468.146 335.859,-478.146 342.859,-478.146"/>
</g>
<!-- 1,101,323,373,373,\n373,373,373,373,373,373\ntraditional -->
<g id="node12" class="node"><title>1,101,323,373,373,\n373,373,373,373,373,373\ntraditional</title>
<ellipse fill="none" stroke="black" cx="579.359" cy="-541.477" rx="111.032" ry="37.4533"/>
<text text-anchor="middle" x="579.359" y="-552.777" font-family="Times,serif" font-size="14.00">1,101,323,373,373,</text>
<text text-anchor="middle" x="579.359" y="-537.777" font-family="Times,serif" font-size="14.00">373,373,373,373,373,373</text>
<text text-anchor="middle" x="579.359" y="-522.777" font-family="Times,serif" font-size="14.00">traditional</text>
</g>
<!-- 1,101,323,373,373,\n373,373,373,373,373,373\ntraditional&#45;&gt;323 -->
<g id="edge11" class="edge"><title>1,101,323,373,373,\n373,373,373,373,373,373\ntraditional&#45;&gt;323</title>
<path fill="none" stroke="black" d="M506.047,-513.145C461.256,-496.445 406.183,-475.913 371.918,-463.139"/>
<polygon fill="black" stroke="black" points="373.001,-459.807 362.409,-459.593 370.556,-466.366 373.001,-459.807"/>
</g>
</g>
</svg>
