<?xml version="1.0" encoding="utf-8"?>
<!-- Generated by graphviz version 2.38.0 (20140413.2041)
 -->
<!-- Title: esperanto Pages: 1 -->
<svg xmlns="http://www.w3.org/2000/svg" xmlns:xlink="http://www.w3.org/1999/xlink" viewBox="0.00 0.00 332.00 44.00">
<g id="graph0" class="graph" transform="scale(1 1) rotate(0) translate(4 40)">
<title>esperanto</title>
<polygon fill="white" stroke="none" points="-4,4 -4,-40 328,-40 328,4 -4,4"/>
<!-- 6 -->
<g id="node1" class="node"><title>6</title>
<ellipse fill="none" stroke="black" cx="207" cy="-18" rx="27" ry="18"/>
<text text-anchor="middle" x="207" y="-14.3" font-family="Times,serif" font-size="14.00">6</text>
</g>
<!-- 3 -->
<g id="node2" class="node"><title>3</title>
<ellipse fill="none" stroke="black" cx="297" cy="-18" rx="27" ry="18"/>
<text text-anchor="middle" x="297" y="-14.3" font-family="Times,serif" font-size="14.00">3</text>
</g>
<!-- 6&#45;&gt;3 -->
<g id="edge1" class="edge"><title>6-&gt;3</title>
<path fill="none" stroke="black" d="M234.403,-18C242.393,-18 251.311,-18 259.824,-18"/>
<polygon fill="black" stroke="black" points="259.919,-21.5001 269.919,-18 259.919,-14.5001 259.919,-21.5001"/>
</g>
<!-- 11 -->
<g id="node3" class="node"><title>11</title>
<ellipse fill="none" stroke="black" cx="117" cy="-18" rx="27" ry="18"/>
<text text-anchor="middle" x="117" y="-14.3" font-family="Times,serif" font-size="14.00">11</text>
</g>
<!-- 11&#45;&gt;6 -->
<g id="edge2" class="edge"><title>11-&gt;6</title>
<path fill="none" stroke="black" d="M144.403,-18C152.393,-18 161.311,-18 169.824,-18"/>
<polygon fill="black" stroke="black" points="169.919,-21.5001 179.919,-18 169.919,-14.5001 169.919,-21.5001"/>
</g>
<!-- 44 -->
<g id="node4" class="node"><title>44</title>
<ellipse fill="none" stroke="black" cx="27" cy="-18" rx="27" ry="18"/>
<text text-anchor="middle" x="27" y="-14.3" font-family="Times,serif" font-size="14.00">44</text>
</g>
<!-- 44&#45;&gt;11 -->
<g id="edge3" class="edge"><title>44-&gt;11</title>
<path fill="none" stroke="black" d="M54.4029,-18C62.3932,-18 71.3106,-18 79.8241,-18"/>
<polygon fill="black" stroke="black" points="79.919,-21.5001 89.919,-18 79.919,-14.5001 79.919,-21.5001"/>
</g>
</g>
</svg>
