<?xml version="1.0" encoding="utf-8"?>
<!-- Generated by graphviz version 2.38.0 (20140413.2041)
 -->
<!-- Title: esperanto Pages: 1 -->
<svg xmlns="http://www.w3.org/2000/svg" xmlns:xlink="http://www.w3.org/1999/xlink" viewBox="0.00 0.00 584.00 116.00">
<g id="graph0" class="graph" transform="scale(1 1) rotate(0) translate(4 112)">
<title>esperanto</title>
<polygon fill="white" stroke="none" points="-4,4 -4,-112 580,-112 580,4 -4,4"/>
<!-- 0 -->
<g id="node1" class="node"><title>0</title>
<ellipse fill="none" stroke="black" cx="27" cy="-90" rx="27" ry="18"/>
<text text-anchor="middle" x="27" y="-86.3" font-family="Times,serif" font-size="14.00">0</text>
</g>
<!-- 4 -->
<g id="node2" class="node"><title>4</title>
<ellipse fill="none" stroke="black" cx="63" cy="-18" rx="27" ry="18"/>
<text text-anchor="middle" x="63" y="-14.3" font-family="Times,serif" font-size="14.00">4</text>
</g>
<!-- 0&#45;&gt;4 -->
<g id="edge1" class="edge"><title>0-&gt;4</title>
<path fill="none" stroke="black" d="M35.3496,-72.7646C39.7115,-64.2831 45.1469,-53.7144 50.0413,-44.1974"/>
<polygon fill="black" stroke="black" points="53.2346,-45.6409 54.6957,-35.1473 47.0096,-42.4395 53.2346,-45.6409"/>
</g>
<!-- 4&#45;&gt;4 -->
<g id="edge5" class="edge"><title>4-&gt;4</title>
<path fill="none" stroke="black" d="M82.895,-30.4321C95.688,-33.6753 108,-29.5312 108,-18 108,-9.62183 101.501,-5.14331 93.0395,-4.56444"/>
<polygon fill="black" stroke="black" points="92.5019,-1.10045 82.895,-5.56787 93.191,-8.06645 92.5019,-1.10045"/>
</g>
<!-- 1 -->
<g id="node3" class="node"><title>1</title>
<ellipse fill="none" stroke="black" cx="171" cy="-90" rx="27" ry="18"/>
<text text-anchor="middle" x="171" y="-86.3" font-family="Times,serif" font-size="14.00">1</text>
</g>
<!-- 3 -->
<g id="node4" class="node"><title>3</title>
<ellipse fill="none" stroke="black" cx="315" cy="-18" rx="27" ry="18"/>
<text text-anchor="middle" x="315" y="-14.3" font-family="Times,serif" font-size="14.00">3</text>
</g>
<!-- 1&#45;&gt;3 -->
<g id="edge2" class="edge"><title>1-&gt;3</title>
<path fill="none" stroke="black" d="M192.248,-78.6713C216.602,-66.8324 256.719,-47.3312 284.428,-33.8615"/>
<polygon fill="black" stroke="black" points="286.202,-36.8909 293.665,-29.3711 283.141,-30.5953 286.202,-36.8909"/>
</g>
<!-- 3&#45;&gt;3 -->
<g id="edge4" class="edge"><title>3-&gt;3</title>
<path fill="none" stroke="black" d="M334.895,-30.4321C347.688,-33.6753 360,-29.5312 360,-18 360,-9.62183 353.501,-5.14331 345.039,-4.56444"/>
<polygon fill="black" stroke="black" points="344.502,-1.10045 334.895,-5.56787 345.191,-8.06645 344.502,-1.10045"/>
</g>
<!-- 2 -->
<g id="node5" class="node"><title>2</title>
<ellipse fill="none" stroke="black" cx="531" cy="-18" rx="27" ry="18"/>
<text text-anchor="middle" x="531" y="-14.3" font-family="Times,serif" font-size="14.00">2</text>
</g>
<!-- 2&#45;&gt;2 -->
<g id="edge3" class="edge"><title>2-&gt;2</title>
<path fill="none" stroke="black" d="M550.895,-30.4321C563.688,-33.6753 576,-29.5312 576,-18 576,-9.62183 569.501,-5.14331 561.039,-4.56444"/>
<polygon fill="black" stroke="black" points="560.502,-1.10045 550.895,-5.56787 561.191,-8.06645 560.502,-1.10045"/>
</g>
<!-- 5 -->
<g id="node6" class="node"><title>5</title>
<ellipse fill="none" stroke="black" cx="99" cy="-90" rx="27" ry="18"/>
<text text-anchor="middle" x="99" y="-86.3" font-family="Times,serif" font-size="14.00">5</text>
</g>
<!-- 5&#45;&gt;4 -->
<g id="edge6" class="edge"><title>5-&gt;4</title>
<path fill="none" stroke="black" d="M90.6504,-72.7646C86.2885,-64.2831 80.8531,-53.7144 75.9587,-44.1974"/>
<polygon fill="black" stroke="black" points="78.9904,-42.4395 71.3043,-35.1473 72.7654,-45.6409 78.9904,-42.4395"/>
</g>
<!-- 6 -->
<g id="node7" class="node"><title>6</title>
<ellipse fill="none" stroke="black" cx="243" cy="-90" rx="27" ry="18"/>
<text text-anchor="middle" x="243" y="-86.3" font-family="Times,serif" font-size="14.00">6</text>
</g>
<!-- 6&#45;&gt;3 -->
<g id="edge7" class="edge"><title>6-&gt;3</title>
<path fill="none" stroke="black" d="M257.57,-74.8345C267.75,-64.9376 281.524,-51.5462 293.031,-40.3591"/>
<polygon fill="black" stroke="black" points="295.474,-42.865 300.204,-33.3847 290.595,-37.8461 295.474,-42.865"/>
</g>
<!-- 7 -->
<g id="node8" class="node"><title>7</title>
<ellipse fill="none" stroke="black" cx="315" cy="-90" rx="27" ry="18"/>
<text text-anchor="middle" x="315" y="-86.3" font-family="Times,serif" font-size="14.00">7</text>
</g>
<!-- 7&#45;&gt;3 -->
<g id="edge8" class="edge"><title>7-&gt;3</title>
<path fill="none" stroke="black" d="M315,-71.6966C315,-63.9827 315,-54.7125 315,-46.1124"/>
<polygon fill="black" stroke="black" points="318.5,-46.1043 315,-36.1043 311.5,-46.1044 318.5,-46.1043"/>
</g>
<!-- 8 -->
<g id="node9" class="node"><title>8</title>
<ellipse fill="none" stroke="black" cx="531" cy="-90" rx="27" ry="18"/>
<text text-anchor="middle" x="531" y="-86.3" font-family="Times,serif" font-size="14.00">8</text>
</g>
<!-- 8&#45;&gt;2 -->
<g id="edge9" class="edge"><title>8-&gt;2</title>
<path fill="none" stroke="black" d="M531,-71.6966C531,-63.9827 531,-54.7125 531,-46.1124"/>
<polygon fill="black" stroke="black" points="534.5,-46.1043 531,-36.1043 527.5,-46.1044 534.5,-46.1043"/>
</g>
<!-- 9 -->
<g id="node10" class="node"><title>9</title>
<ellipse fill="none" stroke="black" cx="387" cy="-90" rx="27" ry="18"/>
<text text-anchor="middle" x="387" y="-86.3" font-family="Times,serif" font-size="14.00">9</text>
</g>
<!-- 9&#45;&gt;3 -->
<g id="edge10" class="edge"><title>9-&gt;3</title>
<path fill="none" stroke="black" d="M372.43,-74.8345C362.25,-64.9376 348.476,-51.5462 336.969,-40.3591"/>
<polygon fill="black" stroke="black" points="339.405,-37.8461 329.796,-33.3847 334.526,-42.865 339.405,-37.8461"/>
</g>
<!-- 10 -->
<g id="node11" class="node"><title>10</title>
<ellipse fill="none" stroke="black" cx="459" cy="-90" rx="27" ry="18"/>
<text text-anchor="middle" x="459" y="-86.3" font-family="Times,serif" font-size="14.00">10</text>
</g>
<!-- 10&#45;&gt;3 -->
<g id="edge11" class="edge"><title>10-&gt;3</title>
<path fill="none" stroke="black" d="M437.752,-78.6713C413.398,-66.8324 373.281,-47.3312 345.572,-33.8615"/>
<polygon fill="black" stroke="black" points="346.859,-30.5953 336.335,-29.3711 343.798,-36.8909 346.859,-30.5953"/>
</g>
</g>
</svg>
