<?xml version="1.0" encoding="utf-8"?>
<!-- Generated by graphviz version 2.38.0 (20140413.2041)
 -->
<!-- Title: finnish Pages: 1 -->
<svg xmlns="http://www.w3.org/2000/svg" xmlns:xlink="http://www.w3.org/1999/xlink" viewBox="0.00 0.00 494.00 188.00">
<g id="graph0" class="graph" transform="scale(1 1) rotate(0) translate(4 184)">
<title>finnish</title>
<polygon fill="white" stroke="none" points="-4,4 -4,-184 490,-184 490,4 -4,4"/>
<!-- 0 -->
<g id="node1" class="node"><title>0</title>
<ellipse fill="none" stroke="black" cx="27" cy="-90" rx="27" ry="18"/>
<text text-anchor="middle" x="27" y="-86.3" font-family="Times,serif" font-size="14.00">0</text>
</g>
<!-- 5 -->
<g id="node2" class="node"><title>5</title>
<ellipse fill="none" stroke="black" cx="171" cy="-18" rx="27" ry="18"/>
<text text-anchor="middle" x="171" y="-14.3" font-family="Times,serif" font-size="14.00">5</text>
</g>
<!-- 0&#45;&gt;5 -->
<g id="edge1" class="edge"><title>0-&gt;5</title>
<path fill="none" stroke="black" d="M48.2477,-78.6713C72.6018,-66.8324 112.719,-47.3312 140.428,-33.8615"/>
<polygon fill="black" stroke="black" points="142.202,-36.8909 149.665,-29.3711 139.141,-30.5953 142.202,-36.8909"/>
</g>
<!-- 5&#45;&gt;5 -->
<g id="edge6" class="edge"><title>5-&gt;5</title>
<path fill="none" stroke="black" d="M190.895,-30.4321C203.688,-33.6753 216,-29.5312 216,-18 216,-9.62183 209.501,-5.14331 201.039,-4.56444"/>
<polygon fill="black" stroke="black" points="200.502,-1.10045 190.895,-5.56787 201.191,-8.06645 200.502,-1.10045"/>
</g>
<!-- 1 -->
<g id="node3" class="node"><title>1</title>
<ellipse fill="none" stroke="black" cx="99" cy="-162" rx="27" ry="18"/>
<text text-anchor="middle" x="99" y="-158.3" font-family="Times,serif" font-size="14.00">1</text>
</g>
<!-- 4 -->
<g id="node4" class="node"><title>4</title>
<ellipse fill="none" stroke="black" cx="99" cy="-90" rx="27" ry="18"/>
<text text-anchor="middle" x="99" y="-86.3" font-family="Times,serif" font-size="14.00">4</text>
</g>
<!-- 1&#45;&gt;4 -->
<g id="edge2" class="edge"><title>1-&gt;4</title>
<path fill="none" stroke="black" d="M99,-143.697C99,-135.983 99,-126.712 99,-118.112"/>
<polygon fill="black" stroke="black" points="102.5,-118.104 99,-108.104 95.5001,-118.104 102.5,-118.104"/>
</g>
<!-- 4&#45;&gt;5 -->
<g id="edge5" class="edge"><title>4-&gt;5</title>
<path fill="none" stroke="black" d="M113.57,-74.8345C123.75,-64.9376 137.524,-51.5462 149.031,-40.3591"/>
<polygon fill="black" stroke="black" points="151.474,-42.865 156.204,-33.3847 146.595,-37.8461 151.474,-42.865"/>
</g>
<!-- 2 -->
<g id="node5" class="node"><title>2</title>
<ellipse fill="none" stroke="black" cx="171" cy="-90" rx="27" ry="18"/>
<text text-anchor="middle" x="171" y="-86.3" font-family="Times,serif" font-size="14.00">2</text>
</g>
<!-- 2&#45;&gt;5 -->
<g id="edge3" class="edge"><title>2-&gt;5</title>
<path fill="none" stroke="black" d="M171,-71.6966C171,-63.9827 171,-54.7125 171,-46.1124"/>
<polygon fill="black" stroke="black" points="174.5,-46.1043 171,-36.1043 167.5,-46.1044 174.5,-46.1043"/>
</g>
<!-- 3 -->
<g id="node6" class="node"><title>3</title>
<ellipse fill="none" stroke="black" cx="243" cy="-90" rx="27" ry="18"/>
<text text-anchor="middle" x="243" y="-86.3" font-family="Times,serif" font-size="14.00">3</text>
</g>
<!-- 3&#45;&gt;5 -->
<g id="edge4" class="edge"><title>3-&gt;5</title>
<path fill="none" stroke="black" d="M228.43,-74.8345C218.25,-64.9376 204.476,-51.5462 192.969,-40.3591"/>
<polygon fill="black" stroke="black" points="195.405,-37.8461 185.796,-33.3847 190.526,-42.865 195.405,-37.8461"/>
</g>
<!-- 6 -->
<g id="node7" class="node"><title>6</title>
<ellipse fill="none" stroke="black" cx="315" cy="-90" rx="27" ry="18"/>
<text text-anchor="middle" x="315" y="-86.3" font-family="Times,serif" font-size="14.00">6</text>
</g>
<!-- 6&#45;&gt;5 -->
<g id="edge7" class="edge"><title>6-&gt;5</title>
<path fill="none" stroke="black" d="M293.752,-78.6713C269.398,-66.8324 229.281,-47.3312 201.572,-33.8615"/>
<polygon fill="black" stroke="black" points="202.859,-30.5953 192.335,-29.3711 199.798,-36.8909 202.859,-30.5953"/>
</g>
<!-- 7 -->
<g id="node8" class="node"><title>7</title>
<ellipse fill="none" stroke="black" cx="387" cy="-162" rx="27" ry="18"/>
<text text-anchor="middle" x="387" y="-158.3" font-family="Times,serif" font-size="14.00">7</text>
</g>
<!-- 9 -->
<g id="node9" class="node"><title>9</title>
<ellipse fill="none" stroke="black" cx="387" cy="-90" rx="27" ry="18"/>
<text text-anchor="middle" x="387" y="-86.3" font-family="Times,serif" font-size="14.00">9</text>
</g>
<!-- 7&#45;&gt;9 -->
<g id="edge8" class="edge"><title>7-&gt;9</title>
<path fill="none" stroke="black" d="M387,-143.697C387,-135.983 387,-126.712 387,-118.112"/>
<polygon fill="black" stroke="black" points="390.5,-118.104 387,-108.104 383.5,-118.104 390.5,-118.104"/>
</g>
<!-- 8 -->
<g id="node10" class="node"><title>8</title>
<ellipse fill="none" stroke="black" cx="387" cy="-18" rx="27" ry="18"/>
<text text-anchor="middle" x="387" y="-14.3" font-family="Times,serif" font-size="14.00">8</text>
</g>
<!-- 9&#45;&gt;8 -->
<g id="edge10" class="edge"><title>9-&gt;8</title>
<path fill="none" stroke="black" d="M381.16,-72.411C380.297,-64.507 380.048,-54.8518 380.412,-45.9352"/>
<polygon fill="black" stroke="black" points="383.903,-46.1791 381.121,-35.9562 376.921,-45.6831 383.903,-46.1791"/>
</g>
<!-- 8&#45;&gt;9 -->
<g id="edge9" class="edge"><title>8-&gt;9</title>
<path fill="none" stroke="black" d="M392.879,-35.9562C393.714,-43.8272 393.948,-53.3739 393.583,-62.1869"/>
<polygon fill="black" stroke="black" points="390.074,-62.1835 392.84,-72.411 397.056,-62.6911 390.074,-62.1835"/>
</g>
<!-- 10 -->
<g id="node11" class="node"><title>10</title>
<ellipse fill="none" stroke="black" cx="459" cy="-90" rx="27" ry="18"/>
<text text-anchor="middle" x="459" y="-86.3" font-family="Times,serif" font-size="14.00">10</text>
</g>
<!-- 10&#45;&gt;8 -->
<g id="edge11" class="edge"><title>10-&gt;8</title>
<path fill="none" stroke="black" d="M444.43,-74.8345C434.25,-64.9376 420.476,-51.5462 408.969,-40.3591"/>
<polygon fill="black" stroke="black" points="411.405,-37.8461 401.796,-33.3847 406.526,-42.865 411.405,-37.8461"/>
</g>
</g>
</svg>
