<?xml version="1.0" encoding="utf-8"?>
<!-- Generated by graphviz version 2.38.0 (20140413.2041)
 -->
<!-- Title: finnish Pages: 1 -->
<svg xmlns="http://www.w3.org/2000/svg" xmlns:xlink="http://www.w3.org/1999/xlink" viewBox="0.00 0.00 692.00 44.00">
<g id="graph0" class="graph" transform="scale(1 1) rotate(0) translate(4 40)">
<title>finnish</title>
<polygon fill="white" stroke="none" points="-4,4 -4,-40 688,-40 688,4 -4,4"/>
<!-- 10 -->
<g id="node1" class="node"><title>10</title>
<ellipse fill="none" stroke="black" cx="567" cy="-18" rx="27" ry="18"/>
<text text-anchor="middle" x="567" y="-14.3" font-family="Times,serif" font-size="14.00">10</text>
</g>
<!-- 8 -->
<g id="node2" class="node"><title>8</title>
<ellipse fill="none" stroke="black" cx="657" cy="-18" rx="27" ry="18"/>
<text text-anchor="middle" x="657" y="-14.3" font-family="Times,serif" font-size="14.00">8</text>
</g>
<!-- 10&#45;&gt;8 -->
<g id="edge1" class="edge"><title>10-&gt;8</title>
<path fill="none" stroke="black" d="M594.403,-18C602.393,-18 611.311,-18 619.824,-18"/>
<polygon fill="black" stroke="black" points="619.919,-21.5001 629.919,-18 619.919,-14.5001 619.919,-21.5001"/>
</g>
<!-- 11 -->
<g id="node3" class="node"><title>11</title>
<ellipse fill="none" stroke="black" cx="477" cy="-18" rx="27" ry="18"/>
<text text-anchor="middle" x="477" y="-14.3" font-family="Times,serif" font-size="14.00">11</text>
</g>
<!-- 11&#45;&gt;10 -->
<g id="edge2" class="edge"><title>11-&gt;10</title>
<path fill="none" stroke="black" d="M504.403,-18C512.393,-18 521.311,-18 529.824,-18"/>
<polygon fill="black" stroke="black" points="529.919,-21.5001 539.919,-18 529.919,-14.5001 529.919,-21.5001"/>
</g>
<!-- 15 -->
<g id="node4" class="node"><title>15</title>
<ellipse fill="none" stroke="black" cx="387" cy="-18" rx="27" ry="18"/>
<text text-anchor="middle" x="387" y="-14.3" font-family="Times,serif" font-size="14.00">15</text>
</g>
<!-- 15&#45;&gt;11 -->
<g id="edge3" class="edge"><title>15-&gt;11</title>
<path fill="none" stroke="black" d="M414.403,-18C422.393,-18 431.311,-18 439.824,-18"/>
<polygon fill="black" stroke="black" points="439.919,-21.5001 449.919,-18 439.919,-14.5001 439.919,-21.5001"/>
</g>
<!-- 17 -->
<g id="node5" class="node"><title>17</title>
<ellipse fill="none" stroke="black" cx="297" cy="-18" rx="27" ry="18"/>
<text text-anchor="middle" x="297" y="-14.3" font-family="Times,serif" font-size="14.00">17</text>
</g>
<!-- 17&#45;&gt;15 -->
<g id="edge4" class="edge"><title>17-&gt;15</title>
<path fill="none" stroke="black" d="M324.403,-18C332.393,-18 341.311,-18 349.824,-18"/>
<polygon fill="black" stroke="black" points="349.919,-21.5001 359.919,-18 349.919,-14.5001 349.919,-21.5001"/>
</g>
<!-- 21 -->
<g id="node6" class="node"><title>21</title>
<ellipse fill="none" stroke="black" cx="207" cy="-18" rx="27" ry="18"/>
<text text-anchor="middle" x="207" y="-14.3" font-family="Times,serif" font-size="14.00">21</text>
</g>
<!-- 21&#45;&gt;17 -->
<g id="edge5" class="edge"><title>21-&gt;17</title>
<path fill="none" stroke="black" d="M234.403,-18C242.393,-18 251.311,-18 259.824,-18"/>
<polygon fill="black" stroke="black" points="259.919,-21.5001 269.919,-18 259.919,-14.5001 259.919,-21.5001"/>
</g>
<!-- 29 -->
<g id="node7" class="node"><title>29</title>
<ellipse fill="none" stroke="black" cx="117" cy="-18" rx="27" ry="18"/>
<text text-anchor="middle" x="117" y="-14.3" font-family="Times,serif" font-size="14.00">29</text>
</g>
<!-- 29&#45;&gt;21 -->
<g id="edge6" class="edge"><title>29-&gt;21</title>
<path fill="none" stroke="black" d="M144.403,-18C152.393,-18 161.311,-18 169.824,-18"/>
<polygon fill="black" stroke="black" points="169.919,-21.5001 179.919,-18 169.919,-14.5001 169.919,-21.5001"/>
</g>
<!-- 179 -->
<g id="node8" class="node"><title>179</title>
<ellipse fill="none" stroke="black" cx="27" cy="-18" rx="27" ry="18"/>
<text text-anchor="middle" x="27" y="-14.3" font-family="Times,serif" font-size="14.00">179</text>
</g>
<!-- 179&#45;&gt;29 -->
<g id="edge7" class="edge"><title>179-&gt;29</title>
<path fill="none" stroke="black" d="M54.4029,-18C62.3932,-18 71.3106,-18 79.8241,-18"/>
<polygon fill="black" stroke="black" points="79.919,-21.5001 89.919,-18 79.919,-14.5001 79.919,-21.5001"/>
</g>
</g>
</svg>
