<?xml version="1.0" encoding="UTF-8" standalone="no"?>
<!DOCTYPE svg PUBLIC "-//W3C//DTD SVG 1.1//EN"
 "http://www.w3.org/Graphics/SVG/1.1/DTD/svg11.dtd">
<!-- Generated by graphviz version 2.38.0 (20140413.2041)
 -->
<!-- Title: french_fr Pages: 1 -->
<svg width="433pt" height="44pt"
 viewBox="0.00 0.00 432.99 44.00" xmlns="http://www.w3.org/2000/svg" xmlns:xlink="http://www.w3.org/1999/xlink">
<g id="graph0" class="graph" transform="scale(1 1) rotate(0) translate(4 40)">
<title>french_fr</title>
<polygon fill="white" stroke="none" points="-4,4 -4,-40 428.994,-40 428.994,4 -4,4"/>
<!-- 8 -->
<g id="node1" class="node"><title>8</title>
<ellipse fill="none" stroke="black" cx="307.994" cy="-18" rx="27" ry="18"/>
<text text-anchor="middle" x="307.994" y="-14.3" font-family="Times,serif" font-size="14.00">8</text>
</g>
<!-- 4 -->
<g id="node2" class="node"><title>4</title>
<ellipse fill="none" stroke="black" cx="397.994" cy="-18" rx="27" ry="18"/>
<text text-anchor="middle" x="397.994" y="-14.3" font-family="Times,serif" font-size="14.00">4</text>
</g>
<!-- 8&#45;&gt;4 -->
<g id="edge1" class="edge"><title>8&#45;&gt;4</title>
<path fill="none" stroke="black" d="M335.397,-18C343.387,-18 352.305,-18 360.818,-18"/>
<polygon fill="black" stroke="black" points="360.913,-21.5001 370.913,-18 360.913,-14.5001 360.913,-21.5001"/>
</g>
<!-- 14 -->
<g id="node3" class="node"><title>14</title>
<ellipse fill="none" stroke="black" cx="217.994" cy="-18" rx="27" ry="18"/>
<text text-anchor="middle" x="217.994" y="-14.3" font-family="Times,serif" font-size="14.00">14</text>
</g>
<!-- 14&#45;&gt;8 -->
<g id="edge2" class="edge"><title>14&#45;&gt;8</title>
<path fill="none" stroke="black" d="M245.397,-18C253.387,-18 262.305,-18 270.818,-18"/>
<polygon fill="black" stroke="black" points="270.913,-21.5001 280.913,-18 270.913,-14.5001 270.913,-21.5001"/>
</g>
<!-- 44 -->
<g id="node4" class="node"><title>44</title>
<ellipse fill="none" stroke="black" cx="127.994" cy="-18" rx="27" ry="18"/>
<text text-anchor="middle" x="127.994" y="-14.3" font-family="Times,serif" font-size="14.00">44</text>
</g>
<!-- 44&#45;&gt;14 -->
<g id="edge3" class="edge"><title>44&#45;&gt;14</title>
<path fill="none" stroke="black" d="M155.397,-18C163.387,-18 172.305,-18 180.818,-18"/>
<polygon fill="black" stroke="black" points="180.913,-21.5001 190.913,-18 180.913,-14.5001 180.913,-21.5001"/>
</g>
<!-- 23494 -->
<g id="node5" class="node"><title>23494</title>
<ellipse fill="none" stroke="black" cx="32.4971" cy="-18" rx="32.4942" ry="18"/>
<text text-anchor="middle" x="32.4971" y="-14.3" font-family="Times,serif" font-size="14.00">23494</text>
</g>
<!-- 23494&#45;&gt;44 -->
<g id="edge4" class="edge"><title>23494&#45;&gt;44</title>
<path fill="none" stroke="black" d="M65.151,-18C73.4369,-18 82.4316,-18 90.9288,-18"/>
<polygon fill="black" stroke="black" points="90.9656,-21.5001 100.966,-18 90.9656,-14.5001 90.9656,-21.5001"/>
</g>
</g>
</svg>
