<?xml version="1.0" encoding="UTF-8" standalone="no"?>
<!DOCTYPE svg PUBLIC "-//W3C//DTD SVG 1.1//EN"
 "http://www.w3.org/Graphics/SVG/1.1/DTD/svg11.dtd">
<!-- Generated by graphviz version 2.38.0 (20140413.2041)
 -->
<!-- Title: french_ch Pages: 1 -->
<svg width="350pt" height="404pt"
 viewBox="0.00 0.00 350.00 404.00" xmlns="http://www.w3.org/2000/svg" xmlns:xlink="http://www.w3.org/1999/xlink">
<g id="graph0" class="graph" transform="scale(1 1) rotate(0) translate(4 400)">
<title>french_ch</title>
<polygon fill="white" stroke="none" points="-4,4 -4,-400 346,-400 346,4 -4,4"/>
<!-- 0 -->
<g id="node1" class="node"><title>0</title>
<ellipse fill="none" stroke="black" cx="27" cy="-306" rx="27" ry="18"/>
<text text-anchor="middle" x="27" y="-302.3" font-family="Times,serif" font-size="14.00">0</text>
</g>
<!-- 4 -->
<g id="node2" class="node"><title>4</title>
<ellipse fill="none" stroke="black" cx="171" cy="-234" rx="27" ry="18"/>
<text text-anchor="middle" x="171" y="-230.3" font-family="Times,serif" font-size="14.00">4</text>
</g>
<!-- 0&#45;&gt;4 -->
<g id="edge1" class="edge"><title>0&#45;&gt;4</title>
<path fill="none" stroke="black" d="M48.2477,-294.671C72.6018,-282.832 112.719,-263.331 140.428,-249.862"/>
<polygon fill="black" stroke="black" points="142.202,-252.891 149.665,-245.371 139.141,-246.595 142.202,-252.891"/>
</g>
<!-- 6 -->
<g id="node7" class="node"><title>6</title>
<ellipse fill="none" stroke="black" cx="108" cy="-162" rx="27" ry="18"/>
<text text-anchor="middle" x="108" y="-158.3" font-family="Times,serif" font-size="14.00">6</text>
</g>
<!-- 4&#45;&gt;6 -->
<g id="edge5" class="edge"><title>4&#45;&gt;6</title>
<path fill="none" stroke="black" d="M157.639,-218.155C149.12,-208.689 137.915,-196.238 128.307,-185.563"/>
<polygon fill="black" stroke="black" points="130.633,-182.915 121.341,-177.824 125.43,-187.598 130.633,-182.915"/>
</g>
<!-- 1 -->
<g id="node3" class="node"><title>1</title>
<ellipse fill="none" stroke="black" cx="99" cy="-378" rx="27" ry="18"/>
<text text-anchor="middle" x="99" y="-374.3" font-family="Times,serif" font-size="14.00">1</text>
</g>
<!-- 2 -->
<g id="node4" class="node"><title>2</title>
<ellipse fill="none" stroke="black" cx="99" cy="-306" rx="27" ry="18"/>
<text text-anchor="middle" x="99" y="-302.3" font-family="Times,serif" font-size="14.00">2</text>
</g>
<!-- 1&#45;&gt;2 -->
<g id="edge2" class="edge"><title>1&#45;&gt;2</title>
<path fill="none" stroke="black" d="M99,-359.697C99,-351.983 99,-342.712 99,-334.112"/>
<polygon fill="black" stroke="black" points="102.5,-334.104 99,-324.104 95.5001,-334.104 102.5,-334.104"/>
</g>
<!-- 2&#45;&gt;4 -->
<g id="edge3" class="edge"><title>2&#45;&gt;4</title>
<path fill="none" stroke="black" d="M113.57,-290.834C123.75,-280.938 137.524,-267.546 149.031,-256.359"/>
<polygon fill="black" stroke="black" points="151.474,-258.865 156.204,-249.385 146.595,-253.846 151.474,-258.865"/>
</g>
<!-- 3 -->
<g id="node5" class="node"><title>3</title>
<ellipse fill="none" stroke="black" cx="180" cy="-90" rx="27" ry="18"/>
<text text-anchor="middle" x="180" y="-86.3" font-family="Times,serif" font-size="14.00">3</text>
</g>
<!-- 5 -->
<g id="node6" class="node"><title>5</title>
<ellipse fill="none" stroke="black" cx="207" cy="-18" rx="27" ry="18"/>
<text text-anchor="middle" x="207" y="-14.3" font-family="Times,serif" font-size="14.00">5</text>
</g>
<!-- 3&#45;&gt;5 -->
<g id="edge4" class="edge"><title>3&#45;&gt;5</title>
<path fill="none" stroke="black" d="M186.399,-72.411C189.514,-64.3352 193.334,-54.4312 196.835,-45.3547"/>
<polygon fill="black" stroke="black" points="200.126,-46.5458 200.46,-35.9562 193.595,-44.0267 200.126,-46.5458"/>
</g>
<!-- 5&#45;&gt;4 -->
<g id="edge6" class="edge"><title>5&#45;&gt;4</title>
<path fill="none" stroke="black" d="M212.275,-36.1054C220.642,-66.248 234.241,-130.333 216,-180 211.558,-192.094 202.998,-203.316 194.526,-212.291"/>
<polygon fill="black" stroke="black" points="191.833,-210.033 187.208,-219.566 196.768,-214.997 191.833,-210.033"/>
</g>
<!-- 6&#45;&gt;3 -->
<g id="edge7" class="edge"><title>6&#45;&gt;3</title>
<path fill="none" stroke="black" d="M122.57,-146.834C132.75,-136.938 146.524,-123.546 158.031,-112.359"/>
<polygon fill="black" stroke="black" points="160.474,-114.865 165.204,-105.385 155.595,-109.846 160.474,-114.865"/>
</g>
<!-- 7 -->
<g id="node8" class="node"><title>7</title>
<ellipse fill="none" stroke="black" cx="171" cy="-306" rx="27" ry="18"/>
<text text-anchor="middle" x="171" y="-302.3" font-family="Times,serif" font-size="14.00">7</text>
</g>
<!-- 7&#45;&gt;4 -->
<g id="edge8" class="edge"><title>7&#45;&gt;4</title>
<path fill="none" stroke="black" d="M171,-287.697C171,-279.983 171,-270.712 171,-262.112"/>
<polygon fill="black" stroke="black" points="174.5,-262.104 171,-252.104 167.5,-262.104 174.5,-262.104"/>
</g>
<!-- 8 -->
<g id="node9" class="node"><title>8</title>
<ellipse fill="none" stroke="black" cx="243" cy="-306" rx="27" ry="18"/>
<text text-anchor="middle" x="243" y="-302.3" font-family="Times,serif" font-size="14.00">8</text>
</g>
<!-- 8&#45;&gt;4 -->
<g id="edge9" class="edge"><title>8&#45;&gt;4</title>
<path fill="none" stroke="black" d="M228.43,-290.834C218.25,-280.938 204.476,-267.546 192.969,-256.359"/>
<polygon fill="black" stroke="black" points="195.405,-253.846 185.796,-249.385 190.526,-258.865 195.405,-253.846"/>
</g>
<!-- 9 -->
<g id="node10" class="node"><title>9</title>
<ellipse fill="none" stroke="black" cx="315" cy="-306" rx="27" ry="18"/>
<text text-anchor="middle" x="315" y="-302.3" font-family="Times,serif" font-size="14.00">9</text>
</g>
<!-- 9&#45;&gt;4 -->
<g id="edge10" class="edge"><title>9&#45;&gt;4</title>
<path fill="none" stroke="black" d="M293.752,-294.671C269.398,-282.832 229.281,-263.331 201.572,-249.862"/>
<polygon fill="black" stroke="black" points="202.859,-246.595 192.335,-245.371 199.798,-252.891 202.859,-246.595"/>
</g>
<!-- 10 -->
<g id="node11" class="node"><title>10</title>
<ellipse fill="none" stroke="black" cx="180" cy="-162" rx="27" ry="18"/>
<text text-anchor="middle" x="180" y="-158.3" font-family="Times,serif" font-size="14.00">10</text>
</g>
<!-- 10&#45;&gt;3 -->
<g id="edge11" class="edge"><title>10&#45;&gt;3</title>
<path fill="none" stroke="black" d="M180,-143.697C180,-135.983 180,-126.712 180,-118.112"/>
<polygon fill="black" stroke="black" points="183.5,-118.104 180,-108.104 176.5,-118.104 183.5,-118.104"/>
</g>
</g>
</svg>
