<?xml version="1.0" encoding="utf-8"?>
<!-- Generated by graphviz version 2.38.0 (20140413.2041)
 -->
<!-- Title: german Pages: 1 -->
<svg xmlns="http://www.w3.org/2000/svg" xmlns:xlink="http://www.w3.org/1999/xlink" viewBox="0.00 0.00 566.00 260.00">
<g id="graph0" class="graph" transform="scale(1 1) rotate(0) translate(4 256)">
<title>german</title>
<polygon fill="white" stroke="none" points="-4,4 -4,-256 562,-256 562,4 -4,4"/>
<!-- 0 -->
<g id="node1" class="node"><title>0</title>
<ellipse fill="none" stroke="black" cx="27" cy="-90" rx="27" ry="18"/>
<text text-anchor="middle" x="27" y="-86.3" font-family="Times,serif" font-size="14.00">0</text>
</g>
<!-- 4 -->
<g id="node2" class="node"><title>4</title>
<ellipse fill="none" stroke="black" cx="279" cy="-18" rx="27" ry="18"/>
<text text-anchor="middle" x="279" y="-14.3" font-family="Times,serif" font-size="14.00">4</text>
</g>
<!-- 0&#45;&gt;4 -->
<g id="edge1" class="edge"><title>0-&gt;4</title>
<path fill="none" stroke="black" d="M47.6411,-78.3871C52.5922,-76.0847 57.919,-73.8025 63,-72 124.858,-50.056 199.802,-33.8861 243.181,-25.4974"/>
<polygon fill="black" stroke="black" points="244.073,-28.8905 253.243,-23.5822 242.764,-22.0139 244.073,-28.8905"/>
</g>
<!-- 4&#45;&gt;4 -->
<g id="edge5" class="edge"><title>4-&gt;4</title>
<path fill="none" stroke="black" d="M298.895,-30.4321C311.688,-33.6753 324,-29.5312 324,-18 324,-9.62183 317.501,-5.14331 309.039,-4.56444"/>
<polygon fill="black" stroke="black" points="308.502,-1.10045 298.895,-5.56787 309.191,-8.06645 308.502,-1.10045"/>
</g>
<!-- 1 -->
<g id="node3" class="node"><title>1</title>
<ellipse fill="none" stroke="black" cx="99" cy="-90" rx="27" ry="18"/>
<text text-anchor="middle" x="99" y="-86.3" font-family="Times,serif" font-size="14.00">1</text>
</g>
<!-- 1&#45;&gt;4 -->
<g id="edge2" class="edge"><title>1-&gt;4</title>
<path fill="none" stroke="black" d="M120.18,-78.6171C125.014,-76.354 130.155,-74.0307 135,-72 172.361,-56.3392 216.148,-40.5823 245.543,-30.3697"/>
<polygon fill="black" stroke="black" points="246.997,-33.5706 255.306,-26.9978 244.711,-26.9541 246.997,-33.5706"/>
</g>
<!-- 2 -->
<g id="node4" class="node"><title>2</title>
<ellipse fill="none" stroke="black" cx="171" cy="-90" rx="27" ry="18"/>
<text text-anchor="middle" x="171" y="-86.3" font-family="Times,serif" font-size="14.00">2</text>
</g>
<!-- 2&#45;&gt;4 -->
<g id="edge3" class="edge"><title>2-&gt;4</title>
<path fill="none" stroke="black" d="M189.812,-76.8069C207.002,-65.6653 232.618,-49.0622 251.993,-36.5043"/>
<polygon fill="black" stroke="black" points="253.916,-39.4294 260.403,-31.0533 250.108,-33.5553 253.916,-39.4294"/>
</g>
<!-- 3 -->
<g id="node5" class="node"><title>3</title>
<ellipse fill="none" stroke="black" cx="243" cy="-90" rx="27" ry="18"/>
<text text-anchor="middle" x="243" y="-86.3" font-family="Times,serif" font-size="14.00">3</text>
</g>
<!-- 3&#45;&gt;4 -->
<g id="edge4" class="edge"><title>3-&gt;4</title>
<path fill="none" stroke="black" d="M251.35,-72.7646C255.712,-64.2831 261.147,-53.7144 266.041,-44.1974"/>
<polygon fill="black" stroke="black" points="269.235,-45.6409 270.696,-35.1473 263.01,-42.4395 269.235,-45.6409"/>
</g>
<!-- 5 -->
<g id="node6" class="node"><title>5</title>
<ellipse fill="none" stroke="black" cx="315" cy="-90" rx="27" ry="18"/>
<text text-anchor="middle" x="315" y="-86.3" font-family="Times,serif" font-size="14.00">5</text>
</g>
<!-- 5&#45;&gt;4 -->
<g id="edge6" class="edge"><title>5-&gt;4</title>
<path fill="none" stroke="black" d="M306.65,-72.7646C302.288,-64.2831 296.853,-53.7144 291.959,-44.1974"/>
<polygon fill="black" stroke="black" points="294.99,-42.4395 287.304,-35.1473 288.765,-45.6409 294.99,-42.4395"/>
</g>
<!-- 6 -->
<g id="node7" class="node"><title>6</title>
<ellipse fill="none" stroke="black" cx="315" cy="-162" rx="27" ry="18"/>
<text text-anchor="middle" x="315" y="-158.3" font-family="Times,serif" font-size="14.00">6</text>
</g>
<!-- 6&#45;&gt;5 -->
<g id="edge7" class="edge"><title>6-&gt;5</title>
<path fill="none" stroke="black" d="M315,-143.697C315,-135.983 315,-126.712 315,-118.112"/>
<polygon fill="black" stroke="black" points="318.5,-118.104 315,-108.104 311.5,-118.104 318.5,-118.104"/>
</g>
<!-- 7 -->
<g id="node8" class="node"><title>7</title>
<ellipse fill="none" stroke="black" cx="315" cy="-234" rx="27" ry="18"/>
<text text-anchor="middle" x="315" y="-230.3" font-family="Times,serif" font-size="14.00">7</text>
</g>
<!-- 7&#45;&gt;6 -->
<g id="edge8" class="edge"><title>7-&gt;6</title>
<path fill="none" stroke="black" d="M315,-215.697C315,-207.983 315,-198.712 315,-190.112"/>
<polygon fill="black" stroke="black" points="318.5,-190.104 315,-180.104 311.5,-190.104 318.5,-190.104"/>
</g>
<!-- 8 -->
<g id="node9" class="node"><title>8</title>
<ellipse fill="none" stroke="black" cx="387" cy="-90" rx="27" ry="18"/>
<text text-anchor="middle" x="387" y="-86.3" font-family="Times,serif" font-size="14.00">8</text>
</g>
<!-- 8&#45;&gt;4 -->
<g id="edge9" class="edge"><title>8-&gt;4</title>
<path fill="none" stroke="black" d="M368.188,-76.8069C350.998,-65.6653 325.382,-49.0622 306.007,-36.5043"/>
<polygon fill="black" stroke="black" points="307.892,-33.5553 297.597,-31.0533 304.084,-39.4294 307.892,-33.5553"/>
</g>
<!-- 9 -->
<g id="node10" class="node"><title>9</title>
<ellipse fill="none" stroke="black" cx="459" cy="-90" rx="27" ry="18"/>
<text text-anchor="middle" x="459" y="-86.3" font-family="Times,serif" font-size="14.00">9</text>
</g>
<!-- 9&#45;&gt;4 -->
<g id="edge10" class="edge"><title>9-&gt;4</title>
<path fill="none" stroke="black" d="M437.82,-78.6171C432.986,-76.354 427.845,-74.0307 423,-72 385.639,-56.3392 341.852,-40.5823 312.457,-30.3697"/>
<polygon fill="black" stroke="black" points="313.289,-26.9541 302.694,-26.9978 311.003,-33.5706 313.289,-26.9541"/>
</g>
<!-- 10 -->
<g id="node11" class="node"><title>10</title>
<ellipse fill="none" stroke="black" cx="531" cy="-90" rx="27" ry="18"/>
<text text-anchor="middle" x="531" y="-86.3" font-family="Times,serif" font-size="14.00">10</text>
</g>
<!-- 10&#45;&gt;4 -->
<g id="edge11" class="edge"><title>10-&gt;4</title>
<path fill="none" stroke="black" d="M510.359,-78.3871C505.408,-76.0847 500.081,-73.8025 495,-72 433.142,-50.056 358.198,-33.8861 314.819,-25.4974"/>
<polygon fill="black" stroke="black" points="315.236,-22.0139 304.757,-23.5822 313.927,-28.8905 315.236,-22.0139"/>
</g>
</g>
</svg>
