<?xml version="1.0" encoding="utf-8"?>
<!-- Generated by graphviz version 2.38.0 (20140413.2041)
 -->
<!-- Title: italian Pages: 1 -->
<svg xmlns="http://www.w3.org/2000/svg" xmlns:xlink="http://www.w3.org/1999/xlink" viewBox="0.00 0.00 792.99 44.00">
<g id="graph0" class="graph" transform="scale(1 1) rotate(0) translate(4 40)">
<title>italian</title>
<polygon fill="white" stroke="none" points="-4,4 -4,-40 788.994,-40 788.994,4 -4,4"/>
<!-- 4 -->
<g id="node1" class="node"><title>4</title>
<ellipse fill="none" stroke="black" cx="397.994" cy="-18" rx="27" ry="18"/>
<text text-anchor="middle" x="397.994" y="-14.3" font-family="Times,serif" font-size="14.00">4</text>
</g>
<!-- 7 -->
<g id="node2" class="node"><title>7</title>
<ellipse fill="none" stroke="black" cx="487.994" cy="-18" rx="27" ry="18"/>
<text text-anchor="middle" x="487.994" y="-14.3" font-family="Times,serif" font-size="14.00">7</text>
</g>
<!-- 4&#45;&gt;7 -->
<g id="edge1" class="edge"><title>4-&gt;7</title>
<path fill="none" stroke="black" d="M425.397,-18C433.387,-18 442.305,-18 450.818,-18"/>
<polygon fill="black" stroke="black" points="450.913,-21.5001 460.913,-18 450.913,-14.5001 450.913,-21.5001"/>
</g>
<!-- 5 -->
<g id="node3" class="node"><title>5</title>
<ellipse fill="none" stroke="black" cx="577.994" cy="-18" rx="27" ry="18"/>
<text text-anchor="middle" x="577.994" y="-14.3" font-family="Times,serif" font-size="14.00">5</text>
</g>
<!-- 7&#45;&gt;5 -->
<g id="edge4" class="edge"><title>7-&gt;5</title>
<path fill="none" stroke="black" d="M515.397,-18C523.387,-18 532.305,-18 540.818,-18"/>
<polygon fill="black" stroke="black" points="540.913,-21.5001 550.913,-18 540.913,-14.5001 540.913,-21.5001"/>
</g>
<!-- 6 -->
<g id="node4" class="node"><title>6</title>
<ellipse fill="none" stroke="black" cx="667.994" cy="-18" rx="27" ry="18"/>
<text text-anchor="middle" x="667.994" y="-14.3" font-family="Times,serif" font-size="14.00">6</text>
</g>
<!-- 5&#45;&gt;6 -->
<g id="edge2" class="edge"><title>5-&gt;6</title>
<path fill="none" stroke="black" d="M605.397,-18C613.387,-18 622.305,-18 630.818,-18"/>
<polygon fill="black" stroke="black" points="630.913,-21.5001 640.913,-18 630.913,-14.5001 630.913,-21.5001"/>
</g>
<!-- 3 -->
<g id="node5" class="node"><title>3</title>
<ellipse fill="none" stroke="black" cx="757.994" cy="-18" rx="27" ry="18"/>
<text text-anchor="middle" x="757.994" y="-14.3" font-family="Times,serif" font-size="14.00">3</text>
</g>
<!-- 6&#45;&gt;3 -->
<g id="edge3" class="edge"><title>6-&gt;3</title>
<path fill="none" stroke="black" d="M695.397,-18C703.387,-18 712.305,-18 720.818,-18"/>
<polygon fill="black" stroke="black" points="720.913,-21.5001 730.913,-18 720.913,-14.5001 720.913,-21.5001"/>
</g>
<!-- 8 -->
<g id="node6" class="node"><title>8</title>
<ellipse fill="none" stroke="black" cx="307.994" cy="-18" rx="27" ry="18"/>
<text text-anchor="middle" x="307.994" y="-14.3" font-family="Times,serif" font-size="14.00">8</text>
</g>
<!-- 8&#45;&gt;4 -->
<g id="edge5" class="edge"><title>8-&gt;4</title>
<path fill="none" stroke="black" d="M335.397,-18C343.387,-18 352.305,-18 360.818,-18"/>
<polygon fill="black" stroke="black" points="360.913,-21.5001 370.913,-18 360.913,-14.5001 360.913,-21.5001"/>
</g>
<!-- 15 -->
<g id="node7" class="node"><title>15</title>
<ellipse fill="none" stroke="black" cx="217.994" cy="-18" rx="27" ry="18"/>
<text text-anchor="middle" x="217.994" y="-14.3" font-family="Times,serif" font-size="14.00">15</text>
</g>
<!-- 15&#45;&gt;8 -->
<g id="edge6" class="edge"><title>15-&gt;8</title>
<path fill="none" stroke="black" d="M245.397,-18C253.387,-18 262.305,-18 270.818,-18"/>
<polygon fill="black" stroke="black" points="270.913,-21.5001 280.913,-18 270.913,-14.5001 270.913,-21.5001"/>
</g>
<!-- 44 -->
<g id="node8" class="node"><title>44</title>
<ellipse fill="none" stroke="black" cx="127.994" cy="-18" rx="27" ry="18"/>
<text text-anchor="middle" x="127.994" y="-14.3" font-family="Times,serif" font-size="14.00">44</text>
</g>
<!-- 44&#45;&gt;15 -->
<g id="edge7" class="edge"><title>44-&gt;15</title>
<path fill="none" stroke="black" d="M155.397,-18C163.387,-18 172.305,-18 180.818,-18"/>
<polygon fill="black" stroke="black" points="180.913,-21.5001 190.913,-18 180.913,-14.5001 180.913,-21.5001"/>
</g>
<!-- 24454 -->
<g id="node9" class="node"><title>24454</title>
<ellipse fill="none" stroke="black" cx="32.4971" cy="-18" rx="32.4942" ry="18"/>
<text text-anchor="middle" x="32.4971" y="-14.3" font-family="Times,serif" font-size="14.00">24454</text>
</g>
<!-- 24454&#45;&gt;44 -->
<g id="edge8" class="edge"><title>24454-&gt;44</title>
<path fill="none" stroke="black" d="M65.151,-18C73.4369,-18 82.4316,-18 90.9288,-18"/>
<polygon fill="black" stroke="black" points="90.9656,-21.5001 100.966,-18 90.9656,-14.5001 90.9656,-21.5001"/>
</g>
</g>
</svg>
