<?xml version="1.0" encoding="utf-8"?>
<!-- Generated by graphviz version 2.38.0 (20140413.2041)
 -->
<!-- Title: italian Pages: 1 -->
<svg xmlns="http://www.w3.org/2000/svg" xmlns:xlink="http://www.w3.org/1999/xlink" viewBox="0.00 0.00 314.00 404.00">
<g id="graph0" class="graph" transform="scale(1 1) rotate(0) translate(4 400)">
<title>italian</title>
<polygon fill="white" stroke="none" points="-4,4 -4,-400 310,-400 310,4 -4,4"/>
<!-- 0 -->
<g id="node1" class="node"><title>0</title>
<ellipse fill="none" stroke="black" cx="27" cy="-378" rx="27" ry="18"/>
<text text-anchor="middle" x="27" y="-374.3" font-family="Times,serif" font-size="14.00">0</text>
</g>
<!-- 4 -->
<g id="node2" class="node"><title>4</title>
<ellipse fill="none" stroke="black" cx="99" cy="-306" rx="27" ry="18"/>
<text text-anchor="middle" x="99" y="-302.3" font-family="Times,serif" font-size="14.00">4</text>
</g>
<!-- 0&#45;&gt;4 -->
<g id="edge1" class="edge"><title>0-&gt;4</title>
<path fill="none" stroke="black" d="M41.5703,-362.834C51.7499,-352.938 65.5239,-339.546 77.0306,-328.359"/>
<polygon fill="black" stroke="black" points="79.4741,-330.865 84.2043,-321.385 74.5945,-325.846 79.4741,-330.865"/>
</g>
<!-- 7 -->
<g id="node6" class="node"><title>7</title>
<ellipse fill="none" stroke="black" cx="99" cy="-234" rx="27" ry="18"/>
<text text-anchor="middle" x="99" y="-230.3" font-family="Times,serif" font-size="14.00">7</text>
</g>
<!-- 4&#45;&gt;7 -->
<g id="edge5" class="edge"><title>4-&gt;7</title>
<path fill="none" stroke="black" d="M99,-287.697C99,-279.983 99,-270.712 99,-262.112"/>
<polygon fill="black" stroke="black" points="102.5,-262.104 99,-252.104 95.5001,-262.104 102.5,-262.104"/>
</g>
<!-- 1 -->
<g id="node3" class="node"><title>1</title>
<ellipse fill="none" stroke="black" cx="207" cy="-90" rx="27" ry="18"/>
<text text-anchor="middle" x="207" y="-86.3" font-family="Times,serif" font-size="14.00">1</text>
</g>
<!-- 3 -->
<g id="node4" class="node"><title>3</title>
<ellipse fill="none" stroke="black" cx="207" cy="-18" rx="27" ry="18"/>
<text text-anchor="middle" x="207" y="-14.3" font-family="Times,serif" font-size="14.00">3</text>
</g>
<!-- 1&#45;&gt;3 -->
<g id="edge2" class="edge"><title>1-&gt;3</title>
<path fill="none" stroke="black" d="M207,-71.6966C207,-63.9827 207,-54.7125 207,-46.1124"/>
<polygon fill="black" stroke="black" points="210.5,-46.1043 207,-36.1043 203.5,-46.1044 210.5,-46.1043"/>
</g>
<!-- 3&#45;&gt;3 -->
<g id="edge4" class="edge"><title>3-&gt;3</title>
<path fill="none" stroke="black" d="M226.895,-30.4321C239.688,-33.6753 252,-29.5312 252,-18 252,-9.62183 245.501,-5.14331 237.039,-4.56444"/>
<polygon fill="black" stroke="black" points="236.502,-1.10045 226.895,-5.56787 237.191,-8.06645 236.502,-1.10045"/>
</g>
<!-- 2 -->
<g id="node5" class="node"><title>2</title>
<ellipse fill="none" stroke="black" cx="279" cy="-90" rx="27" ry="18"/>
<text text-anchor="middle" x="279" y="-86.3" font-family="Times,serif" font-size="14.00">2</text>
</g>
<!-- 2&#45;&gt;3 -->
<g id="edge3" class="edge"><title>2-&gt;3</title>
<path fill="none" stroke="black" d="M264.43,-74.8345C254.25,-64.9376 240.476,-51.5462 228.969,-40.3591"/>
<polygon fill="black" stroke="black" points="231.405,-37.8461 221.796,-33.3847 226.526,-42.865 231.405,-37.8461"/>
</g>
<!-- 5 -->
<g id="node7" class="node"><title>5</title>
<ellipse fill="none" stroke="black" cx="135" cy="-162" rx="27" ry="18"/>
<text text-anchor="middle" x="135" y="-158.3" font-family="Times,serif" font-size="14.00">5</text>
</g>
<!-- 7&#45;&gt;5 -->
<g id="edge8" class="edge"><title>7-&gt;5</title>
<path fill="none" stroke="black" d="M107.35,-216.765C111.712,-208.283 117.147,-197.714 122.041,-188.197"/>
<polygon fill="black" stroke="black" points="125.235,-189.641 126.696,-179.147 119.01,-186.439 125.235,-189.641"/>
</g>
<!-- 6 -->
<g id="node8" class="node"><title>6</title>
<ellipse fill="none" stroke="black" cx="135" cy="-90" rx="27" ry="18"/>
<text text-anchor="middle" x="135" y="-86.3" font-family="Times,serif" font-size="14.00">6</text>
</g>
<!-- 5&#45;&gt;6 -->
<g id="edge6" class="edge"><title>5-&gt;6</title>
<path fill="none" stroke="black" d="M135,-143.697C135,-135.983 135,-126.712 135,-118.112"/>
<polygon fill="black" stroke="black" points="138.5,-118.104 135,-108.104 131.5,-118.104 138.5,-118.104"/>
</g>
<!-- 6&#45;&gt;3 -->
<g id="edge7" class="edge"><title>6-&gt;3</title>
<path fill="none" stroke="black" d="M149.57,-74.8345C159.75,-64.9376 173.524,-51.5462 185.031,-40.3591"/>
<polygon fill="black" stroke="black" points="187.474,-42.865 192.204,-33.3847 182.595,-37.8461 187.474,-42.865"/>
</g>
<!-- 8 -->
<g id="node9" class="node"><title>8</title>
<ellipse fill="none" stroke="black" cx="99" cy="-378" rx="27" ry="18"/>
<text text-anchor="middle" x="99" y="-374.3" font-family="Times,serif" font-size="14.00">8</text>
</g>
<!-- 8&#45;&gt;4 -->
<g id="edge9" class="edge"><title>8-&gt;4</title>
<path fill="none" stroke="black" d="M99,-359.697C99,-351.983 99,-342.712 99,-334.112"/>
<polygon fill="black" stroke="black" points="102.5,-334.104 99,-324.104 95.5001,-334.104 102.5,-334.104"/>
</g>
<!-- 9 -->
<g id="node10" class="node"><title>9</title>
<ellipse fill="none" stroke="black" cx="171" cy="-378" rx="27" ry="18"/>
<text text-anchor="middle" x="171" y="-374.3" font-family="Times,serif" font-size="14.00">9</text>
</g>
<!-- 9&#45;&gt;4 -->
<g id="edge10" class="edge"><title>9-&gt;4</title>
<path fill="none" stroke="black" d="M156.43,-362.834C146.25,-352.938 132.476,-339.546 120.969,-328.359"/>
<polygon fill="black" stroke="black" points="123.405,-325.846 113.796,-321.385 118.526,-330.865 123.405,-325.846"/>
</g>
<!-- 10 -->
<g id="node11" class="node"><title>10</title>
<ellipse fill="none" stroke="black" cx="171" cy="-234" rx="27" ry="18"/>
<text text-anchor="middle" x="171" y="-230.3" font-family="Times,serif" font-size="14.00">10</text>
</g>
<!-- 10&#45;&gt;5 -->
<g id="edge11" class="edge"><title>10-&gt;5</title>
<path fill="none" stroke="black" d="M162.65,-216.765C158.288,-208.283 152.853,-197.714 147.959,-188.197"/>
<polygon fill="black" stroke="black" points="150.99,-186.439 143.304,-179.147 144.765,-189.641 150.99,-186.439"/>
</g>
</g>
</svg>
