<?xml version="1.0" encoding="utf-8"?>
<!-- Generated by graphviz version 2.38.0 (20140413.2041)
 -->
<!-- Title: portuguese_pt Pages: 1 -->
<svg xmlns="http://www.w3.org/2000/svg" xmlns:xlink="http://www.w3.org/1999/xlink" viewBox="0.00 0.00 422.00 260.00">
<g id="graph0" class="graph" transform="scale(1 1) rotate(0) translate(4 256)">
<title>portuguese_pt</title>
<polygon fill="white" stroke="none" points="-4,4 -4,-256 418,-256 418,4 -4,4"/>
<!-- 0 -->
<g id="node1" class="node"><title>0</title>
<ellipse fill="none" stroke="black" cx="27" cy="-162" rx="27" ry="18"/>
<text text-anchor="middle" x="27" y="-158.3" font-family="Times,serif" font-size="14.00">0</text>
</g>
<!-- 4 -->
<g id="node2" class="node"><title>4</title>
<ellipse fill="none" stroke="black" cx="207" cy="-90" rx="27" ry="18"/>
<text text-anchor="middle" x="207" y="-86.3" font-family="Times,serif" font-size="14.00">4</text>
</g>
<!-- 0&#45;&gt;4 -->
<g id="edge1" class="edge"><title>0-&gt;4</title>
<path fill="none" stroke="black" d="M48.1801,-150.617C53.0145,-148.354 58.1554,-146.031 63,-144 100.361,-128.339 144.148,-112.582 173.543,-102.37"/>
<polygon fill="black" stroke="black" points="174.997,-105.571 183.306,-98.9978 172.711,-98.9541 174.997,-105.571"/>
</g>
<!-- 6 -->
<g id="node6" class="node"><title>6</title>
<ellipse fill="none" stroke="black" cx="207" cy="-18" rx="27" ry="18"/>
<text text-anchor="middle" x="207" y="-14.3" font-family="Times,serif" font-size="14.00">6</text>
</g>
<!-- 4&#45;&gt;6 -->
<g id="edge5" class="edge"><title>4-&gt;6</title>
<path fill="none" stroke="black" d="M201.16,-72.411C200.297,-64.507 200.048,-54.8518 200.412,-45.9352"/>
<polygon fill="black" stroke="black" points="203.903,-46.1791 201.121,-35.9562 196.921,-45.6831 203.903,-46.1791"/>
</g>
<!-- 1 -->
<g id="node3" class="node"><title>1</title>
<ellipse fill="none" stroke="black" cx="99" cy="-234" rx="27" ry="18"/>
<text text-anchor="middle" x="99" y="-230.3" font-family="Times,serif" font-size="14.00">1</text>
</g>
<!-- 2 -->
<g id="node4" class="node"><title>2</title>
<ellipse fill="none" stroke="black" cx="99" cy="-162" rx="27" ry="18"/>
<text text-anchor="middle" x="99" y="-158.3" font-family="Times,serif" font-size="14.00">2</text>
</g>
<!-- 1&#45;&gt;2 -->
<g id="edge2" class="edge"><title>1-&gt;2</title>
<path fill="none" stroke="black" d="M99,-215.697C99,-207.983 99,-198.712 99,-190.112"/>
<polygon fill="black" stroke="black" points="102.5,-190.104 99,-180.104 95.5001,-190.104 102.5,-190.104"/>
</g>
<!-- 2&#45;&gt;4 -->
<g id="edge3" class="edge"><title>2-&gt;4</title>
<path fill="none" stroke="black" d="M117.812,-148.807C135.002,-137.665 160.618,-121.062 179.993,-108.504"/>
<polygon fill="black" stroke="black" points="181.916,-111.429 188.403,-103.053 178.108,-105.555 181.916,-111.429"/>
</g>
<!-- 3 -->
<g id="node5" class="node"><title>3</title>
<ellipse fill="none" stroke="black" cx="171" cy="-162" rx="27" ry="18"/>
<text text-anchor="middle" x="171" y="-158.3" font-family="Times,serif" font-size="14.00">3</text>
</g>
<!-- 3&#45;&gt;4 -->
<g id="edge4" class="edge"><title>3-&gt;4</title>
<path fill="none" stroke="black" d="M179.35,-144.765C183.712,-136.283 189.147,-125.714 194.041,-116.197"/>
<polygon fill="black" stroke="black" points="197.235,-117.641 198.696,-107.147 191.01,-114.439 197.235,-117.641"/>
</g>
<!-- 6&#45;&gt;4 -->
<g id="edge7" class="edge"><title>6-&gt;4</title>
<path fill="none" stroke="black" d="M212.879,-35.9562C213.714,-43.8272 213.948,-53.3739 213.583,-62.1869"/>
<polygon fill="black" stroke="black" points="210.074,-62.1835 212.84,-72.411 217.056,-62.6911 210.074,-62.1835"/>
</g>
<!-- 5 -->
<g id="node7" class="node"><title>5</title>
<ellipse fill="none" stroke="black" cx="243" cy="-234" rx="27" ry="18"/>
<text text-anchor="middle" x="243" y="-230.3" font-family="Times,serif" font-size="14.00">5</text>
</g>
<!-- 5&#45;&gt;5 -->
<g id="edge6" class="edge"><title>5-&gt;5</title>
<path fill="none" stroke="black" d="M262.895,-246.432C275.688,-249.675 288,-245.531 288,-234 288,-225.622 281.501,-221.143 273.039,-220.564"/>
<polygon fill="black" stroke="black" points="272.502,-217.1 262.895,-221.568 273.191,-224.066 272.502,-217.1"/>
</g>
<!-- 7 -->
<g id="node8" class="node"><title>7</title>
<ellipse fill="none" stroke="black" cx="243" cy="-162" rx="27" ry="18"/>
<text text-anchor="middle" x="243" y="-158.3" font-family="Times,serif" font-size="14.00">7</text>
</g>
<!-- 7&#45;&gt;4 -->
<g id="edge8" class="edge"><title>7-&gt;4</title>
<path fill="none" stroke="black" d="M234.65,-144.765C230.288,-136.283 224.853,-125.714 219.959,-116.197"/>
<polygon fill="black" stroke="black" points="222.99,-114.439 215.304,-107.147 216.765,-117.641 222.99,-114.439"/>
</g>
<!-- 8 -->
<g id="node9" class="node"><title>8</title>
<ellipse fill="none" stroke="black" cx="315" cy="-162" rx="27" ry="18"/>
<text text-anchor="middle" x="315" y="-158.3" font-family="Times,serif" font-size="14.00">8</text>
</g>
<!-- 8&#45;&gt;4 -->
<g id="edge9" class="edge"><title>8-&gt;4</title>
<path fill="none" stroke="black" d="M296.188,-148.807C278.998,-137.665 253.382,-121.062 234.007,-108.504"/>
<polygon fill="black" stroke="black" points="235.892,-105.555 225.597,-103.053 232.084,-111.429 235.892,-105.555"/>
</g>
<!-- 9 -->
<g id="node10" class="node"><title>9</title>
<ellipse fill="none" stroke="black" cx="387" cy="-162" rx="27" ry="18"/>
<text text-anchor="middle" x="387" y="-158.3" font-family="Times,serif" font-size="14.00">9</text>
</g>
<!-- 9&#45;&gt;4 -->
<g id="edge10" class="edge"><title>9-&gt;4</title>
<path fill="none" stroke="black" d="M365.82,-150.617C360.986,-148.354 355.845,-146.031 351,-144 313.639,-128.339 269.852,-112.582 240.457,-102.37"/>
<polygon fill="black" stroke="black" points="241.289,-98.9541 230.694,-98.9978 239.003,-105.571 241.289,-98.9541"/>
</g>
<!-- 10 -->
<g id="node11" class="node"><title>10</title>
<ellipse fill="none" stroke="black" cx="171" cy="-234" rx="27" ry="18"/>
<text text-anchor="middle" x="171" y="-230.3" font-family="Times,serif" font-size="14.00">10</text>
</g>
<!-- 10&#45;&gt;3 -->
<g id="edge11" class="edge"><title>10-&gt;3</title>
<path fill="none" stroke="black" d="M171,-215.697C171,-207.983 171,-198.712 171,-190.112"/>
<polygon fill="black" stroke="black" points="174.5,-190.104 171,-180.104 167.5,-190.104 174.5,-190.104"/>
</g>
</g>
</svg>
