<?xml version="1.0" encoding="utf-8"?>
<!-- Generated by graphviz version 2.38.0 (20140413.2041)
 -->
<!-- Title: portuguese_br Pages: 1 -->
<svg xmlns="http://www.w3.org/2000/svg" xmlns:xlink="http://www.w3.org/1999/xlink" viewBox="0.00 0.00 422.00 44.00">
<g id="graph0" class="graph" transform="scale(1 1) rotate(0) translate(4 40)">
<title>portuguese_br</title>
<polygon fill="white" stroke="none" points="-4,4 -4,-40 418,-40 418,4 -4,4"/>
<!-- 3 -->
<g id="node1" class="node"><title>3</title>
<ellipse fill="none" stroke="black" cx="297" cy="-18" rx="27" ry="18"/>
<text text-anchor="middle" x="297" y="-14.3" font-family="Times,serif" font-size="14.00">3</text>
</g>
<!-- 4 -->
<g id="node2" class="node"><title>4</title>
<ellipse fill="none" stroke="black" cx="387" cy="-18" rx="27" ry="18"/>
<text text-anchor="middle" x="387" y="-14.3" font-family="Times,serif" font-size="14.00">4</text>
</g>
<!-- 3&#45;&gt;4 -->
<g id="edge1" class="edge"><title>3-&gt;4</title>
<path fill="none" stroke="black" d="M324.403,-18C332.393,-18 341.311,-18 349.824,-18"/>
<polygon fill="black" stroke="black" points="349.919,-21.5001 359.919,-18 349.919,-14.5001 349.919,-21.5001"/>
</g>
<!-- 10 -->
<g id="node3" class="node"><title>10</title>
<ellipse fill="none" stroke="black" cx="207" cy="-18" rx="27" ry="18"/>
<text text-anchor="middle" x="207" y="-14.3" font-family="Times,serif" font-size="14.00">10</text>
</g>
<!-- 10&#45;&gt;3 -->
<g id="edge2" class="edge"><title>10-&gt;3</title>
<path fill="none" stroke="black" d="M234.403,-18C242.393,-18 251.311,-18 259.824,-18"/>
<polygon fill="black" stroke="black" points="259.919,-21.5001 269.919,-18 259.919,-14.5001 259.919,-21.5001"/>
</g>
<!-- 22 -->
<g id="node4" class="node"><title>22</title>
<ellipse fill="none" stroke="black" cx="117" cy="-18" rx="27" ry="18"/>
<text text-anchor="middle" x="117" y="-14.3" font-family="Times,serif" font-size="14.00">22</text>
</g>
<!-- 22&#45;&gt;10 -->
<g id="edge3" class="edge"><title>22-&gt;10</title>
<path fill="none" stroke="black" d="M144.403,-18C152.393,-18 161.311,-18 169.824,-18"/>
<polygon fill="black" stroke="black" points="169.919,-21.5001 179.919,-18 169.919,-14.5001 169.919,-21.5001"/>
</g>
<!-- 154 -->
<g id="node5" class="node"><title>154</title>
<ellipse fill="none" stroke="black" cx="27" cy="-18" rx="27" ry="18"/>
<text text-anchor="middle" x="27" y="-14.3" font-family="Times,serif" font-size="14.00">154</text>
</g>
<!-- 154&#45;&gt;22 -->
<g id="edge4" class="edge"><title>154-&gt;22</title>
<path fill="none" stroke="black" d="M54.4029,-18C62.3932,-18 71.3106,-18 79.8241,-18"/>
<polygon fill="black" stroke="black" points="79.919,-21.5001 89.919,-18 79.919,-14.5001 79.919,-21.5001"/>
</g>
</g>
</svg>
