<?xml version="1.0" encoding="UTF-8" standalone="no"?>
<!DOCTYPE svg PUBLIC "-//W3C//DTD SVG 1.1//EN"
 "http://www.w3.org/Graphics/SVG/1.1/DTD/svg11.dtd">
<!-- Generated by graphviz version 2.38.0 (20140413.2041)
 -->
<!-- Title: spanish Pages: 1 -->
<svg width="425pt" height="44pt"
 viewBox="0.00 0.00 425.19 44.00" xmlns="http://www.w3.org/2000/svg" xmlns:xlink="http://www.w3.org/1999/xlink">
<g id="graph0" class="graph" transform="scale(1 1) rotate(0) translate(4 40)">
<title>spanish</title>
<polygon fill="white" stroke="none" points="-4,4 -4,-40 421.195,-40 421.195,4 -4,4"/>
<!-- 7 -->
<g id="node1" class="node"><title>7</title>
<ellipse fill="none" stroke="black" cx="300.195" cy="-18" rx="27" ry="18"/>
<text text-anchor="middle" x="300.195" y="-14.3" font-family="Times,serif" font-size="14.00">7</text>
</g>
<!-- 5 -->
<g id="node2" class="node"><title>5</title>
<ellipse fill="none" stroke="black" cx="390.195" cy="-18" rx="27" ry="18"/>
<text text-anchor="middle" x="390.195" y="-14.3" font-family="Times,serif" font-size="14.00">5</text>
</g>
<!-- 7&#45;&gt;5 -->
<g id="edge1" class="edge"><title>7&#45;&gt;5</title>
<path fill="none" stroke="black" d="M327.598,-18C335.588,-18 344.505,-18 353.019,-18"/>
<polygon fill="black" stroke="black" points="353.114,-21.5001 363.114,-18 353.114,-14.5001 353.114,-21.5001"/>
</g>
<!-- 14 -->
<g id="node3" class="node"><title>14</title>
<ellipse fill="none" stroke="black" cx="210.195" cy="-18" rx="27" ry="18"/>
<text text-anchor="middle" x="210.195" y="-14.3" font-family="Times,serif" font-size="14.00">14</text>
</g>
<!-- 14&#45;&gt;7 -->
<g id="edge2" class="edge"><title>14&#45;&gt;7</title>
<path fill="none" stroke="black" d="M237.598,-18C245.588,-18 254.505,-18 263.019,-18"/>
<polygon fill="black" stroke="black" points="263.114,-21.5001 273.114,-18 263.114,-14.5001 263.114,-21.5001"/>
</g>
<!-- 34 -->
<g id="node4" class="node"><title>34</title>
<ellipse fill="none" stroke="black" cx="120.195" cy="-18" rx="27" ry="18"/>
<text text-anchor="middle" x="120.195" y="-14.3" font-family="Times,serif" font-size="14.00">34</text>
</g>
<!-- 34&#45;&gt;14 -->
<g id="edge3" class="edge"><title>34&#45;&gt;14</title>
<path fill="none" stroke="black" d="M147.598,-18C155.588,-18 164.505,-18 173.019,-18"/>
<polygon fill="black" stroke="black" points="173.114,-21.5001 183.114,-18 173.114,-14.5001 173.114,-21.5001"/>
</g>
<!-- 2444 -->
<g id="node5" class="node"><title>2444</title>
<ellipse fill="none" stroke="black" cx="28.5975" cy="-18" rx="28.6953" ry="18"/>
<text text-anchor="middle" x="28.5975" y="-14.3" font-family="Times,serif" font-size="14.00">2444</text>
</g>
<!-- 2444&#45;&gt;34 -->
<g id="edge4" class="edge"><title>2444&#45;&gt;34</title>
<path fill="none" stroke="black" d="M57.4555,-18C65.5632,-18 74.539,-18 83.0773,-18"/>
<polygon fill="black" stroke="black" points="83.1875,-21.5001 93.1875,-18 83.1875,-14.5001 83.1875,-21.5001"/>
</g>
</g>
</svg>
