<?xml version="1.0" encoding="utf-8"?>
<!-- Generated by graphviz version 2.38.0 (20140413.2041)
 -->
<!-- Title: spanish Pages: 1 -->
<svg xmlns="http://www.w3.org/2000/svg" xmlns:xlink="http://www.w3.org/1999/xlink" viewBox="0.00 0.00 386.00 260.00">
<g id="graph0" class="graph" transform="scale(1 1) rotate(0) translate(4 256)">
<title>spanish</title>
<polygon fill="white" stroke="none" points="-4,4 -4,-256 382,-256 382,4 -4,4"/>
<!-- 0 -->
<g id="node1" class="node"><title>0</title>
<ellipse fill="none" stroke="black" cx="27" cy="-162" rx="27" ry="18"/>
<text text-anchor="middle" x="27" y="-158.3" font-family="Times,serif" font-size="14.00">0</text>
</g>
<!-- 4 -->
<g id="node2" class="node"><title>4</title>
<ellipse fill="none" stroke="black" cx="135" cy="-90" rx="27" ry="18"/>
<text text-anchor="middle" x="135" y="-86.3" font-family="Times,serif" font-size="14.00">4</text>
</g>
<!-- 0&#45;&gt;4 -->
<g id="edge1" class="edge"><title>0-&gt;4</title>
<path fill="none" stroke="black" d="M45.8122,-148.807C63.0021,-137.665 88.6184,-121.062 107.993,-108.504"/>
<polygon fill="black" stroke="black" points="109.916,-111.429 116.403,-103.053 106.108,-105.555 109.916,-111.429"/>
</g>
<!-- 6 -->
<g id="node6" class="node"><title>6</title>
<ellipse fill="none" stroke="black" cx="135" cy="-18" rx="27" ry="18"/>
<text text-anchor="middle" x="135" y="-14.3" font-family="Times,serif" font-size="14.00">6</text>
</g>
<!-- 4&#45;&gt;6 -->
<g id="edge5" class="edge"><title>4-&gt;6</title>
<path fill="none" stroke="black" d="M129.16,-72.411C128.297,-64.507 128.048,-54.8518 128.412,-45.9352"/>
<polygon fill="black" stroke="black" points="131.903,-46.1791 129.121,-35.9562 124.921,-45.6831 131.903,-46.1791"/>
</g>
<!-- 1 -->
<g id="node3" class="node"><title>1</title>
<ellipse fill="none" stroke="black" cx="63" cy="-234" rx="27" ry="18"/>
<text text-anchor="middle" x="63" y="-230.3" font-family="Times,serif" font-size="14.00">1</text>
</g>
<!-- 3 -->
<g id="node4" class="node"><title>3</title>
<ellipse fill="none" stroke="black" cx="99" cy="-162" rx="27" ry="18"/>
<text text-anchor="middle" x="99" y="-158.3" font-family="Times,serif" font-size="14.00">3</text>
</g>
<!-- 1&#45;&gt;3 -->
<g id="edge2" class="edge"><title>1-&gt;3</title>
<path fill="none" stroke="black" d="M71.3496,-216.765C75.7115,-208.283 81.1469,-197.714 86.0413,-188.197"/>
<polygon fill="black" stroke="black" points="89.2346,-189.641 90.6957,-179.147 83.0096,-186.439 89.2346,-189.641"/>
</g>
<!-- 3&#45;&gt;4 -->
<g id="edge4" class="edge"><title>3-&gt;4</title>
<path fill="none" stroke="black" d="M107.35,-144.765C111.712,-136.283 117.147,-125.714 122.041,-116.197"/>
<polygon fill="black" stroke="black" points="125.235,-117.641 126.696,-107.147 119.01,-114.439 125.235,-117.641"/>
</g>
<!-- 2 -->
<g id="node5" class="node"><title>2</title>
<ellipse fill="none" stroke="black" cx="135" cy="-234" rx="27" ry="18"/>
<text text-anchor="middle" x="135" y="-230.3" font-family="Times,serif" font-size="14.00">2</text>
</g>
<!-- 2&#45;&gt;3 -->
<g id="edge3" class="edge"><title>2-&gt;3</title>
<path fill="none" stroke="black" d="M126.65,-216.765C122.288,-208.283 116.853,-197.714 111.959,-188.197"/>
<polygon fill="black" stroke="black" points="114.99,-186.439 107.304,-179.147 108.765,-189.641 114.99,-186.439"/>
</g>
<!-- 6&#45;&gt;4 -->
<g id="edge7" class="edge"><title>6-&gt;4</title>
<path fill="none" stroke="black" d="M140.879,-35.9562C141.714,-43.8272 141.948,-53.3739 141.583,-62.1869"/>
<polygon fill="black" stroke="black" points="138.074,-62.1835 140.84,-72.411 145.056,-62.6911 138.074,-62.1835"/>
</g>
<!-- 5 -->
<g id="node7" class="node"><title>5</title>
<ellipse fill="none" stroke="black" cx="315" cy="-162" rx="27" ry="18"/>
<text text-anchor="middle" x="315" y="-158.3" font-family="Times,serif" font-size="14.00">5</text>
</g>
<!-- 5&#45;&gt;5 -->
<g id="edge6" class="edge"><title>5-&gt;5</title>
<path fill="none" stroke="black" d="M334.895,-174.432C347.688,-177.675 360,-173.531 360,-162 360,-153.622 353.501,-149.143 345.039,-148.564"/>
<polygon fill="black" stroke="black" points="344.502,-145.1 334.895,-149.568 345.191,-152.066 344.502,-145.1"/>
</g>
<!-- 7 -->
<g id="node8" class="node"><title>7</title>
<ellipse fill="none" stroke="black" cx="279" cy="-234" rx="27" ry="18"/>
<text text-anchor="middle" x="279" y="-230.3" font-family="Times,serif" font-size="14.00">7</text>
</g>
<!-- 7&#45;&gt;5 -->
<g id="edge8" class="edge"><title>7-&gt;5</title>
<path fill="none" stroke="black" d="M287.35,-216.765C291.712,-208.283 297.147,-197.714 302.041,-188.197"/>
<polygon fill="black" stroke="black" points="305.235,-189.641 306.696,-179.147 299.01,-186.439 305.235,-189.641"/>
</g>
<!-- 8 -->
<g id="node9" class="node"><title>8</title>
<ellipse fill="none" stroke="black" cx="171" cy="-162" rx="27" ry="18"/>
<text text-anchor="middle" x="171" y="-158.3" font-family="Times,serif" font-size="14.00">8</text>
</g>
<!-- 8&#45;&gt;4 -->
<g id="edge9" class="edge"><title>8-&gt;4</title>
<path fill="none" stroke="black" d="M162.65,-144.765C158.288,-136.283 152.853,-125.714 147.959,-116.197"/>
<polygon fill="black" stroke="black" points="150.99,-114.439 143.304,-107.147 144.765,-117.641 150.99,-114.439"/>
</g>
<!-- 9 -->
<g id="node10" class="node"><title>9</title>
<ellipse fill="none" stroke="black" cx="351" cy="-234" rx="27" ry="18"/>
<text text-anchor="middle" x="351" y="-230.3" font-family="Times,serif" font-size="14.00">9</text>
</g>
<!-- 9&#45;&gt;5 -->
<g id="edge10" class="edge"><title>9-&gt;5</title>
<path fill="none" stroke="black" d="M342.65,-216.765C338.288,-208.283 332.853,-197.714 327.959,-188.197"/>
<polygon fill="black" stroke="black" points="330.99,-186.439 323.304,-179.147 324.765,-189.641 330.99,-186.439"/>
</g>
<!-- 10 -->
<g id="node11" class="node"><title>10</title>
<ellipse fill="none" stroke="black" cx="243" cy="-162" rx="27" ry="18"/>
<text text-anchor="middle" x="243" y="-158.3" font-family="Times,serif" font-size="14.00">10</text>
</g>
<!-- 10&#45;&gt;4 -->
<g id="edge11" class="edge"><title>10-&gt;4</title>
<path fill="none" stroke="black" d="M224.188,-148.807C206.998,-137.665 181.382,-121.062 162.007,-108.504"/>
<polygon fill="black" stroke="black" points="163.892,-105.555 153.597,-103.053 160.084,-111.429 163.892,-105.555"/>
</g>
</g>
</svg>
