<?xml version="1.0" encoding="UTF-8" standalone="no"?>
<!DOCTYPE svg PUBLIC "-//W3C//DTD SVG 1.1//EN"
 "http://www.w3.org/Graphics/SVG/1.1/DTD/svg11.dtd">
<!-- Generated by graphviz version 2.38.0 (20140413.2041)
 -->
<!-- Title: swedish Pages: 1 -->
<svg width="638pt" height="116pt"
 viewBox="0.00 0.00 638.00 116.00" xmlns="http://www.w3.org/2000/svg" xmlns:xlink="http://www.w3.org/1999/xlink">
<g id="graph0" class="graph" transform="scale(1 1) rotate(0) translate(4 112)">
<title>swedish</title>
<polygon fill="white" stroke="none" points="-4,4 -4,-112 634,-112 634,4 -4,4"/>
<!-- 0 -->
<g id="node1" class="node"><title>0</title>
<ellipse fill="none" stroke="black" cx="27" cy="-90" rx="27" ry="18"/>
<text text-anchor="middle" x="27" y="-86.3" font-family="Times,serif" font-size="14.00">0</text>
</g>
<!-- 4 -->
<g id="node2" class="node"><title>4</title>
<ellipse fill="none" stroke="black" cx="63" cy="-18" rx="27" ry="18"/>
<text text-anchor="middle" x="63" y="-14.3" font-family="Times,serif" font-size="14.00">4</text>
</g>
<!-- 0&#45;&gt;4 -->
<g id="edge1" class="edge"><title>0&#45;&gt;4</title>
<path fill="none" stroke="black" d="M35.3496,-72.7646C39.7115,-64.2831 45.1469,-53.7144 50.0413,-44.1974"/>
<polygon fill="black" stroke="black" points="53.2346,-45.6409 54.6957,-35.1473 47.0096,-42.4395 53.2346,-45.6409"/>
</g>
<!-- 4&#45;&gt;4 -->
<g id="edge5" class="edge"><title>4&#45;&gt;4</title>
<path fill="none" stroke="black" d="M82.895,-30.4321C95.688,-33.6753 108,-29.5312 108,-18 108,-9.62183 101.501,-5.14331 93.0395,-4.56444"/>
<polygon fill="black" stroke="black" points="92.5019,-1.10045 82.895,-5.56787 93.191,-8.06645 92.5019,-1.10045"/>
</g>
<!-- 1 -->
<g id="node3" class="node"><title>1</title>
<ellipse fill="none" stroke="black" cx="171" cy="-90" rx="27" ry="18"/>
<text text-anchor="middle" x="171" y="-86.3" font-family="Times,serif" font-size="14.00">1</text>
</g>
<!-- 3 -->
<g id="node4" class="node"><title>3</title>
<ellipse fill="none" stroke="black" cx="387" cy="-18" rx="27" ry="18"/>
<text text-anchor="middle" x="387" y="-14.3" font-family="Times,serif" font-size="14.00">3</text>
</g>
<!-- 1&#45;&gt;3 -->
<g id="edge2" class="edge"><title>1&#45;&gt;3</title>
<path fill="none" stroke="black" d="M192.084,-78.3773C196.924,-76.1266 202.091,-73.869 207,-72 256.396,-53.1947 315.48,-36.9376 352.132,-27.5522"/>
<polygon fill="black" stroke="black" points="353.014,-30.9394 361.848,-25.0908 351.295,-24.1537 353.014,-30.9394"/>
</g>
<!-- 3&#45;&gt;3 -->
<g id="edge4" class="edge"><title>3&#45;&gt;3</title>
<path fill="none" stroke="black" d="M406.895,-30.4321C419.688,-33.6753 432,-29.5312 432,-18 432,-9.62183 425.501,-5.14331 417.039,-4.56444"/>
<polygon fill="black" stroke="black" points="416.502,-1.10045 406.895,-5.56787 417.191,-8.06645 416.502,-1.10045"/>
</g>
<!-- 2 -->
<g id="node5" class="node"><title>2</title>
<ellipse fill="none" stroke="black" cx="243" cy="-90" rx="27" ry="18"/>
<text text-anchor="middle" x="243" y="-86.3" font-family="Times,serif" font-size="14.00">2</text>
</g>
<!-- 2&#45;&gt;3 -->
<g id="edge3" class="edge"><title>2&#45;&gt;3</title>
<path fill="none" stroke="black" d="M264.248,-78.6713C288.602,-66.8324 328.719,-47.3312 356.428,-33.8615"/>
<polygon fill="black" stroke="black" points="358.202,-36.8909 365.665,-29.3711 355.141,-30.5953 358.202,-36.8909"/>
</g>
<!-- 5 -->
<g id="node6" class="node"><title>5</title>
<ellipse fill="none" stroke="black" cx="315" cy="-90" rx="27" ry="18"/>
<text text-anchor="middle" x="315" y="-86.3" font-family="Times,serif" font-size="14.00">5</text>
</g>
<!-- 5&#45;&gt;3 -->
<g id="edge6" class="edge"><title>5&#45;&gt;3</title>
<path fill="none" stroke="black" d="M329.57,-74.8345C339.75,-64.9376 353.524,-51.5462 365.031,-40.3591"/>
<polygon fill="black" stroke="black" points="367.474,-42.865 372.204,-33.3847 362.595,-37.8461 367.474,-42.865"/>
</g>
<!-- 6 -->
<g id="node7" class="node"><title>6</title>
<ellipse fill="none" stroke="black" cx="387" cy="-90" rx="27" ry="18"/>
<text text-anchor="middle" x="387" y="-86.3" font-family="Times,serif" font-size="14.00">6</text>
</g>
<!-- 6&#45;&gt;3 -->
<g id="edge7" class="edge"><title>6&#45;&gt;3</title>
<path fill="none" stroke="black" d="M387,-71.6966C387,-63.9827 387,-54.7125 387,-46.1124"/>
<polygon fill="black" stroke="black" points="390.5,-46.1043 387,-36.1043 383.5,-46.1044 390.5,-46.1043"/>
</g>
<!-- 7 -->
<g id="node8" class="node"><title>7</title>
<ellipse fill="none" stroke="black" cx="459" cy="-90" rx="27" ry="18"/>
<text text-anchor="middle" x="459" y="-86.3" font-family="Times,serif" font-size="14.00">7</text>
</g>
<!-- 7&#45;&gt;3 -->
<g id="edge8" class="edge"><title>7&#45;&gt;3</title>
<path fill="none" stroke="black" d="M444.43,-74.8345C434.25,-64.9376 420.476,-51.5462 408.969,-40.3591"/>
<polygon fill="black" stroke="black" points="411.405,-37.8461 401.796,-33.3847 406.526,-42.865 411.405,-37.8461"/>
</g>
<!-- 8 -->
<g id="node9" class="node"><title>8</title>
<ellipse fill="none" stroke="black" cx="99" cy="-90" rx="27" ry="18"/>
<text text-anchor="middle" x="99" y="-86.3" font-family="Times,serif" font-size="14.00">8</text>
</g>
<!-- 8&#45;&gt;4 -->
<g id="edge9" class="edge"><title>8&#45;&gt;4</title>
<path fill="none" stroke="black" d="M90.6504,-72.7646C86.2885,-64.2831 80.8531,-53.7144 75.9587,-44.1974"/>
<polygon fill="black" stroke="black" points="78.9904,-42.4395 71.3043,-35.1473 72.7654,-45.6409 78.9904,-42.4395"/>
</g>
<!-- 9 -->
<g id="node10" class="node"><title>9</title>
<ellipse fill="none" stroke="black" cx="531" cy="-90" rx="27" ry="18"/>
<text text-anchor="middle" x="531" y="-86.3" font-family="Times,serif" font-size="14.00">9</text>
</g>
<!-- 9&#45;&gt;3 -->
<g id="edge10" class="edge"><title>9&#45;&gt;3</title>
<path fill="none" stroke="black" d="M509.752,-78.6713C485.398,-66.8324 445.281,-47.3312 417.572,-33.8615"/>
<polygon fill="black" stroke="black" points="418.859,-30.5953 408.335,-29.3711 415.798,-36.8909 418.859,-30.5953"/>
</g>
<!-- 10 -->
<g id="node11" class="node"><title>10</title>
<ellipse fill="none" stroke="black" cx="603" cy="-90" rx="27" ry="18"/>
<text text-anchor="middle" x="603" y="-86.3" font-family="Times,serif" font-size="14.00">10</text>
</g>
<!-- 10&#45;&gt;3 -->
<g id="edge11" class="edge"><title>10&#45;&gt;3</title>
<path fill="none" stroke="black" d="M581.916,-78.3773C577.076,-76.1266 571.909,-73.869 567,-72 517.604,-53.1947 458.52,-36.9376 421.868,-27.5522"/>
<polygon fill="black" stroke="black" points="422.705,-24.1537 412.152,-25.0908 420.986,-30.9394 422.705,-24.1537"/>
</g>
</g>
</svg>
